<?xml version="1.0" standalone="no"?>
<!DOCTYPE svg PUBLIC "-//W3C//DTD SVG 1.1//EN" "http://www.w3.org/Graphics/SVG/1.1/DTD/svg11.dtd" >
<svg xmlns="http://www.w3.org/2000/svg" xmlns:xlink="http://www.w3.org/1999/xlink" version="1.1">
<metadata></metadata>
<defs>
<font id="tt_mastersblack" horiz-adv-x="950" >
<font-face units-per-em="2048" ascent="1479" descent="-569" />
<missing-glyph horiz-adv-x="450" />
<glyph horiz-adv-x="0" />
<glyph horiz-adv-x="0" />
<glyph unicode="&#xd;" horiz-adv-x="0" />
<glyph unicode=" "  horiz-adv-x="450" />
<glyph unicode="&#x09;" horiz-adv-x="450" />
<glyph unicode="&#xa0;" horiz-adv-x="450" />
<glyph unicode="!" horiz-adv-x="677" d="M66 178q0 65 8 125q9 70 18 109q3 14 12 26q10 13 35 13q5 0 62 -5q30 -3 69 -12q47 -11 72 -20q30 -11 61 -31q24 -17 41 -45q18 -30 15 -57h-2q-15 -81 -21 -158q-6 -70 -22 -127q-6 -21 -15 -33t-30 -12q-49 0 -95 16q-32 11 -79 41q-31 20 -64 53q-15 15 -45 50 q-20 26 -20 67zM117 940q0 108 10 213q8 89 25 170q15 73 30 117q2 10 25 26q21 15 47 15q28 0 68 -6q14 -2 40 -6.5t39 -6.5q30 -4 78 -16q35 -8 56 -19q14 -3 28 -12q19 -11 29 -24q12 -14 18 -37q7 -24 4 -49h7q-15 -87 -39 -193q-2 -7 -54 -205q-19 -73 -55 -190 q-8 -26 -23.5 -76.5t-21.5 -71.5t-31 -43q-23 -20 -47 -20q-52 0 -86 6t-55 18q-19 11 -33 25q-7 7 -20 29q-10 17 -19 53q-10 40 -12 57q-8 115 -8 246z" />
<glyph unicode="&#x22;" horiz-adv-x="741" d="M84 1135q6 24 6 45q0 3 4 43q2 18 10 65q1 9 17 68q8 30 22 55q10 14 19 31t33 14q14 -2 36 -2h27q17 0 25 -2q12 -3 30 -12q47 -18 41 -62l-4 -8q-6 -47 -18 -104q-5 -21 -13.5 -58t-11.5 -49q-13 -57 -26 -92q-7 -20 -25 -61q-2 -4 -8 -17.5t-8 -19.5q-6 -16 -29 -6 q-28 12 -64 41q-30 24 -61 90q-9 14 -2 41zM383 1126q6 24 6 45q0 3 4 43q2 20 10 66q1 8 17 68q8 30 22 55q11 14 19 31q9 17 33 14q14 -2 36 -2h27q17 0 25 -2q12 -3 30 -12q47 -18 41 -62l-4 -8q-6 -50 -18 -105q-4 -21 -13 -57t-12 -49q-13 -57 -26 -92q-10 -27 -25 -62 q-3 -6 -8.5 -18.5t-7.5 -17.5q-7 -17 -29 -7q-28 12 -64 41q-30 24 -61 90q-9 14 -2 41z" />
<glyph unicode="#" horiz-adv-x="1613" d="M0 553q6 22 29 25q39 3 121 6q85 3 180 6l16 78q3 14 9.5 40.5t9.5 39.5q-34 -3 -66 -3q-21 0 -57 -4l-31 -26q-57 3 -86 22q-25 17 -62 60q-12 15 -30 45q-19 32 -25 76q-3 27 0 45q3 19 25 22q45 6 143 12q96 6 227 15q23 94 62 250q32 126 35 153q3 16 24 31 q20 14 47 14q31 0 58 -8q44 -13 61 -20q38 -15 60 -25q45 -20 47 -21q25 -9 37 -30q11 -20 8 -45q-4 -25 -25 -117q-8 -35 -37 -154l99 13l82 10q9 36 27 111t26 108q24 106 28 127q3 15 25 31q20 14 47 14q50 0 111 -22q22 -8 56 -21t42 -16q25 -9 37 -31q11 -20 8 -45 q-5 -35 -18 -88q-16 -68 -27 -109q0 -17 16 -20q78 4 99 4q41 0 45 -2q13 -8 28 -19q16 -12 23 -26q12 -24 22 -49q11 -28 27 -80q9 -27 6 -51q-3 -26 -37 -29q-71 -10 -139 -21q-59 -10 -168 -20q-9 -35 -18 -72q-2 -10 -9 -35t-10 -40q88 9 160 12q71 3 80 0 q20 -12 29 -21q12 -12 24 -30q24 -36 29 -45q4 -7 18 -30.5t23 -39.5q15 -21 12 -49t-37 -31q-63 -7 -172 -25q-90 -15 -221 -30q-17 -5 -27 -23q-34 -136 -41 -172q-26 -123 -34 -166q-3 -20 -13 -30q-11 -11 -30 -11q-29 0 -56 15q-26 14 -55 37q-28 21 -49 49 q-10 13 -41 49q-10 17 -16 37q-6 21 -3 43q1 12 5.5 36.5t5.5 30.5q9 54 14 78q-8 -1 -36.5 -3.5t-49.5 -4.5q-81 -8 -111 -10q-21 -86 -36 -168q-28 -156 -29 -160q-6 -43 -47 -43q-38 0 -68 18q-33 20 -59 43q-21 19 -51 56q-34 43 -43 53q-22 31 -19 68q3 52 12 118 q-10 -2 -26 -2h-21q-54 3 -88 23q-26 16 -63 59q-4 5 -15 19.5t-18 23.5q-23 29 -43 74q-9 20 -2 43zM657 586q35 2 101 10q17 2 94 12q9 40 18 78q2 6 9 34t10 44l-96 -4l-91 -10z" />
<glyph unicode="$" horiz-adv-x="1105" d="M10 928q0 106 35 202q36 98 96 170q61 72 148 123q86 50 194 62q1 8 5 28.5t6 32.5t6 36.5t6 37.5q6 40 12 68q7 34 12 47q2 13 13 30q10 16 35 13q40 -5 86 -31q13 -7 39.5 -23t41.5 -24q28 -17 35 -27q9 -12 6 -37q-7 -47 -12 -86q-2 -15 -12 -88q39 -8 82 -24 q13 -5 40 -15.5t40 -15.5q29 -13 55 -33q28 -21 49 -49q19 -25 33 -59q11 -28 8 -64q-1 -8 -2 -21.5t-2 -25t-2 -22.5q-3 -34 -12 -76q-6 -26 -29 -86q-17 -44 -49 -103q-1 -1 -2.5 -4.5t-3.5 -7.5l-4 -8q-6 -15 -19 -31q-18 -23 -26 -29q-14 -12 -37 -18q-21 -6 -50 10 q-31 17 -61 25q-39 9 -61 18q-21 9 -31 29q-8 16 -8 43q0 13 4 59q9 82 -19 121q-27 37 -80 37t-92 -45t-39 -123q0 -91 43 -143t105 -82q66 -32 133 -55q71 -24 133 -62q64 -39 103 -98q40 -61 40 -170q0 -100 -36 -168q-37 -69 -97 -117q-62 -49 -129 -72t-141 -26 q-3 -59 -6 -123q-3 -65 -12 -92q-3 -14 -13 -31q-8 -14 -35 -14q-40 0 -90 16q-26 9 -86 35q-24 12 -34 25t-7 36l-16 -10q3 47 6 86q1 16 3 46.5t3 45.5q-50 17 -100 54q-41 30 -68 65q-48 54 -86 121q-34 60 -37 108q-3 65 7 78q8 11 28 21q27 9 64 -15q43 -28 90 -41 q11 -4 125 -38q52 -16 108 -7q31 5 64 25q30 18 33 59q0 21 -23 41q-24 21 -61 37q-86 38 -93 41q-29 12 -110 49q-42 19 -96 49q-41 22 -76 64q-33 38 -51 98q-19 62 -19 148z" />
<glyph unicode="%" horiz-adv-x="1449" d="M68 109q3 19 12 34q58 96 137 201q84 111 197 246q157 188 223 262q143 161 221 246q97 105 191 196q89 86 131 113q12 9 30 18q19 9 41 0q48 -22 66 -49q6 -10 22.5 -31t24.5 -32q16 -23 22 -43q6 -21 -12 -39h10q-95 -89 -233 -236q-157 -168 -289 -319 q-150 -172 -297 -357t-264 -348q-26 -39 -68 -20q-9 4 -45 22q-6 3 -36 23q-18 12 -37 31q-20 20 -41 47q-9 15 -6 35zM68 1079q0 83 22 160q20 70 60 129q39 57 86 86q51 31 100 31h2q48 0 100 -12q51 -12 80 -31q20 -12 35 -27q21 -21 35 -49q12 -25 26 -74 q13 -47 13 -100q0 -72 -23 -152q-20 -70 -59 -131q-38 -59 -82 -92q-47 -35 -92 -35t-105 17q-50 14 -86 30q-46 18 -80 76q-32 54 -32 174zM283 1075q0 -33 4 -61q3 -18 10 -33q5 -11 12 -14q4 -2 10 -2q17 0 35 30q24 40 35 70q18 49 25 80q10 45 10 55q0 49 -14 66 q-15 18 -37 18l-4 -8q-17 0 -17 -2t-4 -6q-18 -18 -41 -68q-24 -52 -24 -125zM813 238q0 86 18 157q16 64 50 123q30 53 71 80q44 29 84 29l-4 -6q18 0 62 -7q50 -8 77 -14q46 -10 72 -18q31 -9 47 -19q22 -13 29 -20q10 -10 20 -37t13 -62q4 -50 4 -94q0 -76 -21 -147 q-21 -70 -55 -125q-32 -52 -78 -88q-42 -33 -88 -39q-46 -5 -100 -2q-47 3 -82 18q-44 17 -82 86q-37 67 -37 185zM1022 240q0 -34 4 -62q3 -20 10 -31q6 -8 13 -12q4 -2 10 -2q15 0 31 29q14 26 30 65q18 45 25 74q10 42 10 53q0 48 -12 66t-33 18l-2 2q-18 0 -23 -8 q-4 -6 -10 -12q-18 -18 -35 -62q-18 -47 -18 -118z" />
<glyph unicode="&#x26;" horiz-adv-x="1290" d="M6 395q9 76 43 142q35 68 80 125q46 58 86 98v14q-20 30 -37 68q-20 44 -28 90q-10 54 -7 108q3 51 29 119q11 32 43 94q24 46 72 101q43 50 102 84q57 34 141 43q31 3 105 -21q80 -26 151 -61q79 -39 136 -84q59 -47 59 -86q0 -94 -33 -164q-37 -79 -82 -135 q-50 -62 -108 -117q-22 -20 -59.5 -55.5t-51.5 -48.5q11 -11 35 -34t37 -36q24 -24 78 -70l6 -6l35 45q12 18 12 23q9 15 43 24t61 -12q58 -46 105 -74q48 -29 69 -82q27 -46 15 -92q-3 -6 -15 -26q-3 -5 -9 -15.5t-9 -15.5q58 -34 92 -43q18 -5 25.5 -6t7.5 0 q18 -11 29 -33q13 -26 -2 -55q-21 -46 -62 -117q-28 -49 -74 -98q-16 -19 -34 -25q-19 -6 -50 0q-21 3 -79 31q-55 27 -101 61q-62 -50 -127 -80t-127 -24q-28 2 -69 22q-43 20 -68 23q-195 64 -307 135q-113 72 -133 119q-34 73 -25 147zM414 393q0 -4 4 -24q3 -16 16 -29 q15 -15 31 -23t47 -8q17 0 49 19q-23 37 -55 78q-35 44 -62 65l-4 -4q-5 -11 -16 -25q-10 -13 -10 -49zM487 987q0 -9 11 -35q11 6 37 29q18 15 36 37l11 -8q18 21 30 45q13 26 13 47q0 22 -9 37q-10 16 -30 16q-26 0 -43 -14q-19 -16 -31 -37q-11 -19 -18 -47t-7 -45v-25z M1245 276l2 -2q-2 0 -2 2z" />
<glyph unicode="'" horiz-adv-x="438" d="M84 1135q6 24 6 45q0 3 4 43q2 18 10 65q1 9 17 68q8 30 22 55q10 14 19 31t33 14q14 -2 36 -2h27q17 0 25 -2q12 -3 30 -12q47 -18 41 -62l-4 -8q-6 -47 -18 -104q-5 -21 -13.5 -58t-11.5 -49q-13 -57 -26 -92q-7 -20 -25 -61q-2 -4 -8 -17.5t-8 -19.5q-6 -16 -29 -6 q-28 12 -64 41q-30 24 -61 90q-9 14 -2 41z" />
<glyph unicode="(" horiz-adv-x="704" d="M84 547q9 171 43 307q36 145 86 250q55 115 117 201q64 89 135 153q4 2 14 12q13 13 21 17q12 6 24 6q14 0 29 -12q23 -17 43 -49q30 -49 41 -74q30 -67 35 -82q14 -40 24 -74q12 -40 -4 -72q-16 -33 -24 -43l-6 -8q-33 -44 -70 -98t-74 -129q-36 -73 -59 -147 q-24 -76 -33 -154q-14 -151 -2 -291q11 -122 41 -246q26 -107 65 -196q9 -20 66 -144q9 -19 -14 -36q-24 -18 -45 -9q-22 11 -70 43q-17 11 -80 58q-24 18 -78 61q-32 25 -61 51q-39 33 -74 111q-33 74 -55 176q-23 107 -31 209q-10 118 -4 209z" />
<glyph unicode=")" horiz-adv-x="745" d="M8 -66q-12 40 4 72q15 29 25 43l2 2q22 30 70 99q34 49 73 129q39 79 60 147q25 81 34 154q16 166 5 290q-11 122 -41 246q-25 104 -66 197q-19 44 -65 143q-10 19 14 37q26 19 47 10q30 -15 72 -43q31 -20 80 -57q16 -12 44.5 -35.5t32.5 -26.5q43 -35 62 -51 q42 -36 71 -110q36 -93 54 -176q21 -100 30 -209q10 -125 5 -209q-9 -171 -43 -307q-36 -145 -86 -250q-52 -110 -117 -199q-67 -92 -135 -154q-6 -3 -15 -12q-12 -12 -20 -16q-12 -6 -25 -6t-28 12q-23 17 -43 49q-30 49 -41 74q-27 61 -35 84q-24 69 -25 73z" />
<glyph unicode="*" horiz-adv-x="634" d="M92 1262q3 9 23 59q13 33 39 59q17 17 26 19q15 4 35 -8q17 -10 35 -31q26 -30 35 -43v2q0 38 -2 61t-2 56q0 15 10 28t35 13h55q22 0 68 -17q25 -9 28 -18q4 -11 -2 -33q-9 -35 -14 -49q-8 -21 -19 -47q7 3 47 18q22 8 41 12q16 9 35 3q20 -7 29 -31q14 -42 16 -49 q5 -18 2 -62q-3 -23 -14 -28q-18 -9 -33 -11l-22 2q-10 2 -39 2h-47l20 -28q9 -15 19 -25q12 -9 18 -31q6 -20 -12 -38q-27 -27 -37 -35q-21 -17 -49 -29q-38 -15 -66 23q-10 15 -20 45q-9 27 -15 51l-63 -90q-3 -16 -21 -25q-17 -9 -38 6q-9 6 -25 17t-18 12q-21 14 -41 47 q-10 16 -13 29q-3 12 13 28q14 14 41 31q29 18 47 31q-35 5 -41 6q-14 2 -33 10q-14 3 -27 19t-4 39z" />
<glyph unicode="+" horiz-adv-x="974" d="M37 713q0 27 16 43t25 16q33 -2 106 4q53 5 146 12q10 86 18 148q2 19 7 56t7 52q3 16 19 29q15 12 43 12q20 -3 55 -12q42 -11 68 -20q23 -8 57 -25q26 -13 31 -18q27 -27 18 -52q-3 -31 -6 -63q-3 -37 -12 -84q51 3 98 6q44 3 72 0v-4q26 6 51 -22q6 -6 12 -31 q10 -40 13 -55q8 -38 10 -62q4 -40 4 -53q0 -29 -14 -43q-16 -16 -31 -19q-1 0 -42 -3t-69 -5q-71 -6 -153 -12q-1 -8 -8 -60t-9 -77q-6 -65 -6 -105q-3 -9 -18 -24q-16 -16 -43 -13q-21 0 -82 7q-48 6 -98 28q-15 6 -27 41q-11 32 -8 74l10 117l-115 -11q-38 -3 -63 13 t-31 30q-24 53 -37 99q-14 49 -14 86z" />
<glyph unicode="," horiz-adv-x="462" d="M20 100q0 45 7 103q5 40 16 90q3 12 12 24q10 13 31 13q48 0 109 -6q63 -6 110 -39q19 -13 35 -41q15 -27 12 -49q-2 -12 -5.5 -33.5t-4.5 -30.5q-4 -28 -6 -43q-4 -26 -8 -37q-9 -27 -13 -43q-2 -2 -2 -8q0 -4 -4 -8q-3 -10 -16 -45q-5 -12 -23 -49q-4 -8 -12 -25 t-12 -25l-8 -14t-8.5 -14t-6.5 -10q-20 -33 -47 -43q-24 -9 -61 6q-47 18 -41 61l-4 -10q17 40 30 74q5 13 15.5 39t15.5 40q-57 15 -92 62q-19 25 -19 61z" />
<glyph unicode="-" d="M43 672q0 27 16 43t25 16q52 0 147 6q15 1 197 17q54 5 195 14q84 6 139 2v-6q26 6 51 -23q7 -7 16 -28q12 -29 19 -51q11 -36 16 -62q6 -30 6 -51q0 -29 -9.5 -42.5t-29.5 -12.5q-47 3 -135 0q-23 -1 -184 -11q-119 -8 -178 -14q-82 -9 -123 -12q-40 -3 -61 12 q-22 15 -31 31q-32 55 -51 92q-25 48 -25 80z" />
<glyph unicode="." horiz-adv-x="462" d="M27 104q0 54 6 103q5 40 16 90q3 13 12 25t31 12q48 0 109 -6q63 -6 110 -39q19 -13 35 -41q15 -27 12 -49l2 -6q-2 -12 -5.5 -33.5t-4.5 -30.5q-4 -28 -6 -43q-4 -26 -8 -37q-5 -15 -12 -43q-6 -19 -13 -29t-28 -10q-87 0 -150 17q-52 14 -88 59q-18 24 -18 61z" />
<glyph unicode="/" horiz-adv-x="1030" d="M4 195q8 24 14 34q34 81 97 201q54 102 139 246q28 48 82.5 136.5t75.5 123.5q73 121 153 242q77 117 129 188q58 80 80 102q12 12 25 17q17 7 37 -2q43 -19 96 -66q56 -49 78 -80q33 -39 12 -80l-4 -4q-37 -66 -148 -247q-129 -210 -192 -308q-72 -112 -211 -338 q-121 -197 -197 -337q-17 -36 -59 -21q-66 28 -111 64q-48 39 -92 94q-10 17 -4 35z" />
<glyph unicode="0" horiz-adv-x="1161" d="M59 588q0 171 37 332t99 288q61 125 145 203t172 78v2q60 0 115 -8q51 -8 116 -25q55 -15 105 -33q51 -18 80 -39q33 -23 65 -51q37 -32 60 -82q25 -55 37 -133q13 -84 4 -202q-9 -166 -54 -340q-43 -165 -108 -295t-144 -209t-159 -82q-53 0 -111 6q-55 6 -112 18 q-52 11 -103 31q-50 19 -78 39q-34 24 -61 55q-33 38 -55 92q-25 61 -37 146q-13 93 -13 209zM475 401q3 -49 19 -49q8 0 18 13q9 12 18 30q8 16 15 37q7 23 10 35q1 5 6 23.5t8 29.5q9 29 21 86q16 76 28 142q6 33 21 109t20 104q1 4 2.5 14t2.5 18.5t2 16.5q2 18 2 53 q0 31 -2 43q-3 18 -9 18h-8q-12 3 -20 -8q-10 -13 -15 -26q-8 -19 -10 -31q-3 -15 -6 -21q-9 -34 -25 -89t-22 -77q-24 -92 -31 -122q-6 -29 -20 -109q-17 -98 -19 -113q-9 -77 -6 -127z" />
<glyph unicode="1" horiz-adv-x="765" d="M-8 991q-3 26 47 53q50 26 98 86q39 49 82 123q40 69 62 117q21 47 30 64q5 12 19 26q13 13 37 13q1 0 63 -5q36 -3 74 -12q46 -11 74 -20q25 -8 63 -29q21 -15 43 -37q21 -21 18 -45l-6 2q-24 -141 -37 -229q-26 -176 -43 -314q-36 -298 -43 -358q-21 -188 -36 -369 q-3 -43 -50 -43q-35 0 -81 19q-30 13 -82 47q-25 17 -74 55q-2 2 -55 47q-14 9 -21 35q-6 24 -6 45q0 110 16 264q12 120 37 295q-27 12 -98 49q-14 7 -38.5 21t-35.5 20q-32 17 -43 31q-10 21 -14 49z" />
<glyph unicode="2" horiz-adv-x="1093" d="M-16 225q0 27 16 56v2q43 90 117 182q88 108 159 190q45 51 158 183q74 86 111 153q9 15 2 25q-6 9 -35 12q-15 0 -45 -6q-44 -9 -64 -14q-27 -7 -67 -21q-37 -13 -62 -24q-39 -17 -61 -2q-21 15 -37 34l-88 219q-15 46 -2 66q14 21 53 41q56 29 115 49q76 26 119 37 q77 20 106 25q47 9 78 12q46 3 113 -19q63 -20 129 -59q68 -39 121 -84q57 -48 90 -92q7 -7 10 -27q4 -28 4 -49q0 -26 -6 -61q-6 -33 -21 -68q-29 -81 -75 -147q-45 -64 -109 -138q-42 -49 -123 -137q-63 -69 -119 -143q-8 -8 -8 -19q0 -9 10 -12q31 -2 84 -2h66 q86 -3 125 -14t63 -21q29 -16 56 -90q30 -81 67 -172q17 -45 8 -80q-9 -34 -53 -43q-10 -2 -47 4q-10 2 -38.5 8t-47.5 9q-56 10 -119 18q-68 9 -143 12q-31 2 -74 2h-45h-43q-22 0 -63 3l-23 -29q-65 -15 -92 -6q-28 9 -59 37q-5 5 -41 30q-15 11 -72 56q-35 28 -68 61 q-30 30 -30 53z" />
<glyph unicode="3" horiz-adv-x="1009" d="M-23 1317q-3 26 13 45t37 22q15 2 46 8t46 9q19 3 60 10.5t61 11.5q92 16 157 23q107 11 207 16q42 3 72 -6q34 -10 51 -20q20 -12 37 -25q15 -12 24 -18q18 -11 37 -27q22 -18 43 -43q7 -8 21.5 -24.5t21.5 -24.5q21 -24 33 -39q9 -9 6 -37q-3 -30 -14 -61 q-10 -30 -27 -68q-14 -32 -37 -55q-64 -98 -116 -168q-54 -73 -92 -105l-2 -2q70 -27 120 -57q49 -30 76 -70q30 -44 35 -100q7 -67 -2 -154q-9 -75 -51 -143q-41 -67 -109 -125q-60 -51 -141 -88q-73 -33 -150 -33q-122 0 -196 39q-76 40 -138 111q-41 46 -81 114 q-34 57 -37 86q-3 32 16 48t37 22q45 15 78 -2q45 -23 67 -33q46 -21 97 -24q49 -3 90 12t71 45q34 34 48 80q14 44 -5 84q-17 36 -49 49q-17 7 -35 -2t-43 -12q-15 -3 -18 6q-4 11 -12 22q-2 0 -2 2q-6 6 -15 21q-3 5 -9 15.5t-9 15.5t-9.5 15t-9.5 15l-14 23 q-2 3 -8.5 15.5t-11.5 19.5q-13 19 10 35q46 29 72 43q27 14 67 49q33 28 68 73q30 37 67 117q-24 4 -39 4h-43q-58 0 -98 -6q-45 -7 -67 -14q-26 -8 -50 -19q-21 -9 -43 -12l-24 -12q-32 4 -41 8q-14 7 -21 14t-14 25q-4 10 -23 33q-5 5 -18 28q-11 20 -25 54 q-13 32 -24 67q-14 45 -19 74z" />
<glyph unicode="4" horiz-adv-x="1097" d="M-4 575q0 20 10 37q26 65 80 176q52 108 123 228q72 123 149 233q76 109 158 191q15 15 31 18t31 0q20 -4 30 -8q6 -2 16 -5l9 -3l4 -2q24 -5 65 -19q12 -4 34.5 -12t33.5 -12q33 -12 61 -27q30 -17 43 -27q7 -5 19 -13t16 -11q12 -9 9 -35q-24 -142 -37 -227 q-4 -27 -21 -133t-26 -170q23 2 61 2q21 0 49 -4v-15q16 3 31 -6q16 -10 24 -20q7 -7 19 -31q10 -20 24 -55q18 -44 23 -62q10 -33 10 -53q0 -29 -9.5 -42.5t-29.5 -12.5q-30 3 -96 0q-64 -3 -147 -9q-4 -30 -12.5 -98t-12.5 -106q-12 -106 -18 -209q-3 -22 -15 -37t-33 -6 q-104 46 -172 96q-65 48 -104 96q-20 26 -20 68q0 78 6 172q-19 -2 -154 -14q-20 -2 -39 -4t-34.5 -4t-20.5 -3q-40 -3 -62 13q-21 15 -30 30q-26 45 -52 74q-24 27 -24 61zM313 678l123 20q15 110 17 136q4 51 16 133v2q-55 -79 -104 -172q-43 -82 -52 -119z" />
<glyph unicode="5" horiz-adv-x="1128" d="M37 330q3 9 12 18q5 5 23 14q10 5 22 9q21 6 43 0q7 -2 25 -8t28 -9q30 -9 70 -12q43 -3 98 8q66 15 123 49q61 36 97 78q30 35 24 62q-6 25 -35 45q-29 19 -65 28q-45 11 -70 13q-39 -3 -90 -13q-68 -14 -80 -16q-38 -6 -63 -6q-28 0 -43 18q-14 14 -17 31q-4 24 -4 39 q0 22 4 92t6 107q1 18 11 106q9 79 10 92v6q0 14 -12 29l-12 16t-15 19q-8 9 -33 43q-19 26 -31 55q-9 24 7 53t36 35q96 27 152 45q72 23 160 45q94 24 174 37q111 18 192 23q52 3 93 -2q43 -6 63 -19q19 -13 43 -53q28 -47 43 -86q22 -56 31 -92q12 -48 4 -68 q-3 -13 -31 -26q-29 -13 -43 -13q-148 0 -246 -14q-97 -14 -196 -43l-13 -25q-18 -35 -24 -94q-4 -43 -8 -125q80 14 114 17q59 6 123 -19q87 -27 140 -57q63 -35 102 -80q40 -46 55 -113q15 -69 -2 -155q-18 -101 -65 -185q-47 -83 -111 -141q-63 -57 -145 -88t-168 -31 q-109 0 -183 27q-72 26 -127 72q-52 43 -92 98q-34 47 -80 113l-18 28q-9 13 -6 23z" />
<glyph unicode="6" horiz-adv-x="1077" d="M57 504q0 51 2 59q0 4 2 6q12 237 91 410q76 167 178 268q105 105 205 152q109 51 165 65q7 1 31 11q14 6 37 -11q12 -12 25 -30q15 -21 30 -45q14 -23 25 -48q8 -20 12 -34q3 -28 0 -41q-3 -12 -37 -39q-66 -52 -110 -94q-47 -44 -95 -99q-41 -46 -69 -92 q-30 -48 -37 -70q8 10 31 27q16 12 47 27q23 12 55 18q33 7 62 -2l-9 -14q133 -36 195 -86q65 -53 92 -111q28 -61 25 -121q-3 -58 -9 -118q-9 -76 -49 -160q-42 -88 -102 -160t-139 -123q-76 -49 -158 -49q-53 0 -127 23q-64 20 -127 49q-58 27 -104 61q-52 38 -68 57 q-28 36 -43 93q-15 59 -21 116q-6 59 -6 105zM408 416q3 -52 18 -82q15 -29 37 -39q20 -9 47 -2l2 -4q20 6 37 16q16 10 29 29q11 16 24 49q11 28 27 80q6 21 6 49q0 24 -10 51q-9 24 -25 43q-15 18 -37 21h-14q-2 0 -14 4q-38 -3 -70 -25q-31 -22 -43 -43q-3 -6 -6 -18 q-11 -72 -8 -129z" />
<glyph unicode="7" horiz-adv-x="1056" d="M33 1346q-3 27 12 45q16 19 37 22q25 3 108 13.5t142 17.5q164 20 405 20h35h53q22 0 54 -4q24 -3 30 -12q6 -12 25 -31q11 -11 39 -47q25 -32 43 -67q24 -47 37 -89v-8q3 -16 0 -35q-3 -18 -9 -30l-16 -15q-35 -63 -113 -219q-54 -107 -122 -264q-53 -122 -123 -299 q-57 -145 -113 -319q-6 -22 -22 -25t-37 6q-63 26 -136 90q-66 57 -116 127q-9 15 -2 35q8 23 10 35q37 123 80 225q44 106 102 215q46 87 111 203q57 102 104 180q-70 -5 -104 -8l-115 -12q-22 -2 -60.5 -7t-49.5 -6q-47 -5 -93 -2q-28 3 -43 9q-17 7 -24 14q-10 10 -19 22 q-16 22 -24 31q-7 7 -19 25q-10 15 -24 43q-15 30 -25 55q-12 29 -18 66z" />
<glyph unicode="8" horiz-adv-x="1171" d="M4 317q0 39 6 74q14 101 80 205q62 98 189 180h4q-115 70 -164 119q-52 52 -49 117q6 129 55 213q51 87 123 145q74 59 160 86q94 30 165 35q28 0 60 -4q16 -2 59 -17q127 -44 215 -88q102 -51 146 -118q22 -31 22 -70q0 -40 -6 -74q-16 -89 -82 -176q-69 -91 -162 -166 q142 -65 215 -129q74 -65 68 -149v-6q-9 -127 -68 -222q-57 -93 -141 -155q-83 -62 -178 -92q-94 -30 -178 -33q-28 0 -60 4q-20 3 -59 16q-23 8 -66 25.5t-53 21.5q-48 19 -117 56q-58 32 -98 63q-46 36 -65 68q-21 30 -21 71zM391 455l2 -9q0 -15 13 -28q14 -14 30 -19 q22 -7 41 -10q22 -3 37 0q52 5 98 19q40 12 37 65q0 16 -18 37q-24 28 -39 43q-27 27 -39 37q-16 14 -25 18q-4 0 -6 2q-55 -28 -94 -80q-37 -49 -37 -75zM461 989q3 -16 14 -24q18 -13 27 -17q7 -3 28 -8q14 -4 19 -6q0 -2 4 -2q37 25 61 59q21 30 21 60l-6 -2q0 25 -19 34 q-19 10 -51 7q-59 -6 -80 -33t-18 -68z" />
<glyph unicode="9" horiz-adv-x="1165" d="M37 854q-3 75 2 127q9 84 59 170q49 85 121 160q66 69 158 119q86 47 166 47q59 0 133 -21t141 -51q70 -31 123 -64q57 -36 76 -57q29 -38 43 -88q17 -62 22 -113q1 -9 5.5 -47.5t5.5 -56.5q3 -47 0 -59q-3 -164 -70 -310q-65 -141 -160 -266q-91 -120 -190 -205 q-104 -90 -166 -127q-15 -9 -31 -12t-37 12q-13 13 -32 25q-28 17 -46 33q-35 30 -41 36q-16 16 -20 31q-3 30 2 41q6 12 37 43q52 49 92 98q35 43 70 97q34 53 49 84q14 30 26 61q-30 -6 -38 -8q-14 -4 -54 -8q-36 -4 -53 -4q-29 0 -39 2l-10 -8q-135 25 -203 75 q-68 51 -104 115q-34 61 -37 129zM438 911q3 -26 13 -53q9 -24 28 -43q17 -17 39 -20q6 -2 19 -2h18q35 3 70 18q32 14 45 37l8 16q16 87 10 140q-6 56 -24 90q-16 31 -48 45q-28 12 -59 6v-6q-48 -9 -68 -45q-22 -40 -49 -133q-5 -19 -2 -50z" />
<glyph unicode=":" horiz-adv-x="524" d="M47 104q0 54 6 103q4 30 17 90q3 13 12 25t31 12q47 0 108 -6q64 -6 111 -39q19 -13 35 -41q15 -27 12 -49l2 -6q-2 -12 -5.5 -33.5t-4.5 -30.5q-3 -28 -6 -43q-3 -20 -9 -37q-5 -15 -12 -43q-7 -22 -12 -29q-7 -10 -29 -10q-86 0 -149 17q-52 14 -88 59q-19 25 -19 61z M90 733q0 53 6 103q4 30 17 90q3 12 12 24q10 13 31 13q36 0 108 -7q66 -6 111 -38q19 -13 35 -41q15 -27 12 -50l2 -6q-2 -13 -5.5 -34t-4.5 -29q-4 -28 -6 -43q-3 -20 -9 -37q-5 -15 -12 -43q-7 -22 -12 -29q-7 -10 -29 -10q-90 0 -149 16q-51 14 -88 60q-19 25 -19 61z " />
<glyph unicode=";" horiz-adv-x="524" d="M41 100q0 54 6 103q5 40 16 90q3 10 13 24q10 13 30 13q48 0 109 -6q64 -6 111 -39q18 -12 34 -41t13 -49q-2 -14 -6 -35t-5 -29q-4 -28 -6 -43q-4 -26 -8 -37q-5 -15 -12 -43q-2 -2 -2 -8q0 -4 -4 -8l-4.5 -13.5t-6.5 -16.5t-6 -15q-7 -20 -22 -49l-25 -50 q-4 -8 -22 -38q-20 -33 -47 -43q-24 -9 -62 6q-47 18 -41 61l-4 -10q24 56 31 74q5 13 15.5 39t15.5 40q-58 15 -93 62q-18 24 -18 61zM84 729q0 53 6 102q5 42 16 91q2 10 13 24q9 12 31 12q46 0 108 -6q64 -6 111 -39q18 -12 34 -41t13 -49l2 -6q-2 -13 -5.5 -34t-4.5 -29 q0 -4 -7 -43q-4 -26 -8 -37q-5 -15 -12 -43q-7 -22 -12 -29q-7 -10 -29 -10q-91 0 -150 16q-51 14 -88 60q-18 24 -18 61z" />
<glyph unicode="&#x3c;" horiz-adv-x="954" d="M0 475q3 16 20 33q10 14 41 45q8 8 24.5 23t23.5 22q8 6 100 86q105 91 149 127q31 25 89 73.5t79 65.5q69 57 154 123q12 9 33 6q22 -3 43 -18q19 -15 37 -37q6 -7 18 -21.5t18 -21.5q23 -26 31 -39q12 -18 12 -29q0 -27 -22 -49v-14q-42 -39 -94 -80q-45 -36 -125 -98 l-135 -105q-84 -65 -123 -98q42 -29 121 -78q64 -41 129 -78q79 -46 118 -67q18 -10 47 -26.5t41 -22.5q16 -10 19 -21q4 -16 4 -29q0 -8 -16 -30q-17 -24 -39 -43q-32 -28 -49 -45q-19 -19 -43 -39q-23 -16 -43 -19q-21 -3 -33 6q-48 42 -148 119q-79 62 -153 117 q-25 19 -70 52t-65 48q-65 49 -95 70q-5 3 -35 23q-12 8 -32 24q-16 12 -25 25q-9 12 -6 20z" />
<glyph unicode="=" horiz-adv-x="1296" d="M43 487q0 27 16 43t25 19q8 1 47 4.5t68 5.5q82 6 174 12q24 1 94 6t111 7q104 6 202 12q47 3 170 8q75 3 105 0l2 -4q26 6 51 -22q5 -4 22 -29q18 -26 31 -51q21 -42 29 -62q12 -30 12 -51q0 -29 -9.5 -42.5t-29.5 -12.5q-30 3 -104 0q-69 -3 -166 -6q-95 -3 -195 -9 q-87 -5 -192 -12q-48 -3 -162 -8q-71 -3 -98 -6q-41 -3 -62 12q-20 14 -30 31q-12 21 -31 43q-24 28 -37 41q-19 19 -31 37t-12 34zM61 887q0 26 17 43q16 16 24 16q11 0 113 4q29 1 92 5.5t82 5.5q121 7 205 12q112 6 203 12q135 9 170 10q74 3 104 0l-2 6q26 6 51 -22 q8 -8 23 -29q18 -26 31 -51q18 -36 28 -61q12 -30 12 -52q0 -30 -9 -43t-29 -12q-30 3 -105 0q-69 -3 -166 -6q-127 -4 -192 -8q-106 -6 -191 -12q-21 -1 -54.5 -4t-59 -4.5t-46.5 -2.5q-71 -3 -98 -6q-40 -3 -61 12q-22 16 -31 31q-12 21 -31 43q-24 28 -37 41 q-16 16 -30 37q-13 20 -13 35z" />
<glyph unicode="&#x3e;" horiz-adv-x="954" d="M0 152q0 26 23 49h-5q28 28 91 67q55 34 120 72q47 28 131 74q113 63 123 69q-86 66 -112 86q-24 18 -65.5 48.5t-53.5 39.5q-24 18 -111 80q-15 11 -44 32t-42 30q-22 16 -22 49q0 11 12 29q15 22 31 41q6 7 41 47q22 25 41 41q21 15 43 18q20 3 32 -6q47 -41 150 -125 q156 -128 160 -131q77 -64 141 -117q66 -54 98 -76q20 -12 35 -22q23 -15 35 -25q18 -14 25 -24q9 -12 6 -21q-3 -18 -21 -33t-39 -30q-4 -3 -12 -9.5t-12 -9.5q-20 -15 -23 -18q-55 -43 -100 -74q-10 -7 -65 -44t-87 -60q-28 -19 -170 -117q-86 -58 -153 -111 q-12 -9 -33 -6q-20 3 -43 19q-19 16 -41 41q-30 34 -41 49q-17 23 -31 47q-12 21 -12 31z" />
<glyph unicode="?" horiz-adv-x="1099" d="M51 1063q-8 32 4 80q17 64 60 129q42 64 92 108q55 49 110 74q61 28 117 31q50 3 129 -12q77 -15 164 -43q91 -30 158 -64q73 -38 108 -78q9 -9 17 -28q10 -23 16 -54q8 -38 10 -65q3 -38 -2 -68l10 6q-3 -91 -43 -149q-41 -60 -94 -101q-46 -36 -112 -75 q-59 -34 -105 -84q-12 -16 -22 -31q-18 -26 -23 -39q-23 -23 -39 -31q-18 -9 -53 -6q-28 4 -72 12q-50 9 -84 43q-13 11 -20 44q-5 27 -2 55q15 92 55 135q43 46 80 68q24 14 74 49q35 25 41 75q9 41 -21 68q-31 28 -74 31q-24 0 -55 -17q-26 -14 -49 -41q-22 -25 -37 -55 q-12 -25 -20 -59q-3 -20 -23 -37q-18 -15 -43 -21q-22 -5 -49 -2q-21 3 -39 17l-139 88q-16 13 -25 47zM293 219q0 52 10 117q4 28 19 104q3 15 12 27t37 12q53 0 123 -6q72 -6 127 -43q25 -17 41 -45q17 -29 14 -57l2 -2q-15 -88 -21 -144q-5 -50 -22 -108q-8 -18 -19 -33 q-9 -12 -32 -12q-107 0 -168 37t-101 86q-22 28 -22 67z" />
<glyph unicode="@" horiz-adv-x="1607" d="M49 664q0 184 62 323q63 141 147 234q83 92 182 147q98 54 166 66q52 9 111 6q49 -3 114 -13q43 -7 105 -22q17 -4 80 -23q113 -37 153 -49q85 -26 168 -84q82 -57 138 -155q58 -101 61 -267q3 -58 -18 -143q-20 -82 -66 -166t-104 -139q-60 -57 -138 -57q-170 9 -266 63 q-98 55 -119 156q-12 -21 -37 -49q-28 -32 -51 -52q-30 -26 -59 -41q-30 -15 -57 -12q-70 9 -105 47q-32 35 -45 84q-12 46 -12 96v84q0 46 22 117q19 62 66 125q41 55 108 94q63 36 146 27q37 -3 78 -12q37 -8 77 -21q43 -14 66 -24q28 -12 41 -29q10 -13 10 -74 q0 -22 -4 -88t-4 -100q0 -80 14 -135q15 -59 49 -68l15 -2q30 24 47 61q21 47 31 86q12 47 18 93t6 86q0 107 -45 178q-49 77 -110 121q-63 46 -138 67q-74 21 -129 21q-115 0 -202 -43q-92 -45 -152 -123q-58 -75 -94 -187q-33 -103 -33 -235q0 -82 35 -160t92 -135 t135 -92t164 -35q45 0 78 10q31 9 47 19q14 8 31 22q13 11 41 14q15 3 34 0q18 -3 45 -18l-12 -8q34 -15 72 -53q44 -44 72 -66q28 -28 16 -55q-13 -28 -39 -43q-86 -58 -156 -72q-78 -16 -145 -16q-52 0 -137 18q-69 15 -172 47q-79 25 -160 58q-75 30 -104 51 q-37 26 -72 61q-37 37 -74 109q-35 68 -59 160q-25 95 -25 215zM739 680q-3 -34 6 -37v-6q3 -3 13 6q10 10 22 25q4 5 12.5 15t12.5 15q12 15 22 25v2q1 10 3.5 27.5t3.5 23.5q2 16 2 45q0 16 -13 19q-11 3 -20 0q-22 -9 -31 -25q-9 -15 -24 -74q-6 -27 -9 -61z" />
<glyph unicode="A" horiz-adv-x="1212" d="M-4 549q0 29 29 29q22 -2 48.5 -2t59.5 2q21 94 66 241q43 140 77 234q40 109 84 202q44 91 84 150q8 11 19 18q8 5 31 2q15 -5 73 -20q42 -11 92 -27q0 26 3 35q3 16 12 25q10 10 31 10q9 0 63 -4q25 -2 80 -10q35 -5 76 -15q34 -8 57 -18q25 -9 35 -23q9 -12 12 -35 q3 -21 6 -100q1 -23 2.5 -53.5t4 -73.5t3.5 -72q4 -82 19 -272q9 -111 31 -321q15 -153 34 -283l12 -84l7 -41q1 -5 1 -9q0 -34 -42 -34q-30 0 -100 4q-39 2 -99 10q-41 5 -84 19q-38 12 -59 33q-15 12 -27 71q-10 47 -20 152q-11 -1 -52 -6t-65 -7q-43 -4 -125 -8 q-7 -86 -7 -166q0 -27 1 -53q0 -22 -8 -33q-9 -12 -31 -12q-43 0 -98 10q-38 7 -94 25q-41 13 -80 37q-32 19 -56 47l-8 -8q-13 16 -16 28q-4 16 -4 35q0 22 4 72q3 38 6 78q-15 27 -31 59t-28 62t-21 57q-8 24 -8 43zM512 596l170 12v-2q-6 76 -14 221q-6 112 -9 215 q0 26 -16 29q-11 3 -20 -12q-36 -114 -62 -225q-30 -132 -49 -238z" />
<glyph unicode="B" horiz-adv-x="1204" d="M68 1233q-7 22 -7 39q0 26 17 39q22 19 67 43q59 32 123 53q78 26 164 43q89 18 184 18q46 0 117 -18q64 -16 139 -43q54 -19 123 -49q55 -24 70 -39q25 -21 41 -55q18 -38 18 -111q0 -68 -28 -135q-27 -63 -74 -117q-44 -49 -107 -88q-62 -38 -124 -55v-15 q75 -11 114 -20q40 -9 99 -29q34 -12 73 -35q30 -18 39 -36q12 -20 17 -43q6 -27 6 -74q0 -113 -49 -211q-48 -96 -132 -168q-82 -70 -194 -111t-240 -41q-133 0 -248 37t-174 111q-18 21 -18 63q0 81 6 189q3 61 16 225q3 35 23 238q7 73 29 225q-12 18 -27 45t-27 51 q-13 26 -22 47q-7 17 -12 31zM471 1110l49 -12q24 -11 35 -21q11 -11 8 -37h-4q-8 -50 -12 -79t-12 -91q33 9 65 31q27 19 55 47q21 22 39 53q15 27 15 56q0 40 -27 61t-76 21q-32 0 -67 -9q-42 -11 -68 -20zM494 334l38 -4q40 0 72 14q37 16 60 39q27 27 41 55q16 32 16 66 q0 36 -31 55q-32 19 -82 19q-29 0 -57 -7q-7 -2 -15 -3.5t-15.5 -2.5t-10.5 -2l-8 -114z" />
<glyph unicode="C" horiz-adv-x="1204" d="M68 578q0 203 38 352q40 159 111 276q71 118 172 185q103 68 227 71h38q106 0 194 -14q106 -18 178 -59q21 -12 47 -25t47 -31q24 -21 35 -45t11 -53q0 -7 -1 -14q-4 -49 -8 -76q-6 -41 -18 -92q-12 -49 -33 -105q-20 -52 -62 -110l-18 -27q-12 -19 -37 -31 q-26 -13 -61 -16h-12q-32 0 -76 12q-75 15 -88 47q-4 10 -4 26q0 28 14 73q15 54 15 97q0 37 -11 66q-25 66 -94 66l6 -16q-29 0 -55 -11q-23 -10 -31 -18q-15 -15 -33 -62q-22 -57 -37 -118q-18 -73 -30 -176q-13 -110 -13 -232q0 -74 17 -123q14 -41 41 -61q24 -18 53 -21 q18 -2 53 -2q32 0 74 25q33 20 92 65q21 17 43 45q27 34 61 58q36 25 68 28h4q32 0 57 -43l60 -153q10 -31 10 -62q0 -13 -2 -26q-6 -41 -37 -80q-23 -30 -72 -82q-38 -41 -86 -70q-53 -32 -116 -49q-67 -18 -160 -18q-126 0 -233 35q-106 35 -179 108q-71 71 -116 195 q-43 119 -43 291z" />
<glyph unicode="D" horiz-adv-x="1269" d="M63 260q10 142 31 371q15 163 53 313v8q1 12 1 24q0 36 -7 68q-10 50 -20 80q-12 39 -27 62q-19 30 -24 37q-16 22 2 49q18 28 34 37q61 40 134 65q86 29 139 41q85 19 123 23q56 6 90 6h57q24 0 64 -4l2 2q92 -6 153 -37q58 -30 117 -57q55 -27 96 -68q42 -42 68 -98 q28 -61 43 -146q14 -80 14 -209q0 -188 -57 -331t-148 -254q-87 -106 -202 -168q-118 -64 -224 -78h-20q-46 -7 -93 -7q-16 0 -32 1q-63 3 -125 18q-58 14 -112 45q-50 28 -89 74q-19 19 -32 68q-10 37 -10 61q0 6 1 12v-8zM494 387q0 -33 6 -45q5 -11 51 -8l-14 2 q20 4 28 6q12 3 21 6q30 9 67 43q41 37 66 98q30 72 47 160q18 94 18 225q0 68 -12 111q-11 41 -35 68q-21 24 -47 37t-49 16q-43 -3 -78 -6q-32 -3 -61 -6q1 0 2.5 -0.5l4.5 -1.5t5 -2q35 -27 41 -68t6 -61v-7v-6q-14 -114 -33 -254q-21 -152 -34 -307z" />
<glyph unicode="E" horiz-adv-x="1124" d="M88 240q8 224 41 448q28 194 72 356q0 5 2 7l-6 6q-11 11 -19 30q-6 14 -18 50q-7 21 -19 53q-4 9 -8.5 25t-5.5 18q-6 11 -2 29q2 10 10 30q5 14 17 29q9 12 18 18q59 49 141 78q95 33 191 47q127 18 221 23q117 6 233 6q58 0 97 -8q43 -9 61 -21q20 -14 23 -45 q2 -17 1.5 -35t-1.5 -38q-2 -32 -13 -76q-9 -36 -18 -58q-3 -13 -25 -32t-37 -19h-165q-101 0 -148 -2q-90 -4 -135 -8q-50 -5 -125 -23h15q36 0 59 -12q16 -13 30 -31q13 -16 13 -36v-7v-6q-2 -12 -6.5 -33.5t-6.5 -33.5q-7 -40 -12 -74q102 17 189 25q27 3 52 3 q62 0 114 -16q20 -6 26 -37q5 -23 5 -47q0 -10 -1 -20q-3 -36 -12 -74q-8 -34 -18 -57q-3 -14 -25 -33q-21 -18 -37 -18l14 -9q-94 0 -186 -6q-87 -6 -168 -28q-31 -209 -31 -211q0 -21 -2 -29t-2 -19q0 -6 11 -10q9 -3 30 0q67 17 123 25q86 12 127 16q35 3 115 8 q35 2 84 2q17 0 41 -6t30 -26q16 -44 19 -68q3 -28 0 -49q-4 -26 -8 -39q-9 -27 -13 -43q-11 -44 -30 -63q-21 -22 -39 -29q-25 -14 -58 -17q-46 -4 -82 -6q-54 -4 -98 -6q-51 -3 -104 -12q-81 -13 -148 -16q-17 -1 -33 -1q-59 0 -108 9q-68 12 -123 39q-53 26 -94 73 q-1 1 -2 3l-2.5 5t-3.5 5q-6 10 -9 20q-5 20 -6 23l-4 12q-2 9 -6 35q-2 14 -2 37z" />
<glyph unicode="F" horiz-adv-x="1107" d="M61 215q20 154 25 203q4 36 29 211q16 110 30 200q26 167 27 170l-20 35q-12 21 -25 47q-11 21 -21 49q-6 16 -16 41q-7 14 -4 31q4 26 8 35q8 19 15 29q10 13 18 16q74 38 166 68q105 34 190 55q100 24 203 39q95 14 205 20q19 1 37 1q30 0 55 -3q46 -6 64 -18t30 -49 q20 -62 23 -76q10 -45 10 -80q0 -42 -8 -61q-3 -15 -31 -27q-27 -12 -43 -12q-171 0 -307 -19q-135 -19 -248 -57l21 -10q9 -2 26 -19q15 -15 27 -33t18 -36q7 -20 4 -31l-18 -105q36 9 98 27q65 19 101 23q49 6 94 6q44 0 80 -19q12 -6 24 -37q14 -35 19 -67q6 -37 6 -74 q0 -38 -8 -57q-3 -14 -25 -33q-21 -18 -37 -18l-2 -11q-88 0 -203 -16q-97 -13 -188 -41q-19 -167 -25 -229q-4 -41 -12.5 -136t-13.5 -149q-3 -43 -49 -43q-50 0 -105 22q-44 18 -94 52q-48 33 -78 63q-41 41 -53 55q-14 23 -17 31q-5 13 -2 37z" />
<glyph unicode="G" horiz-adv-x="1234" d="M53 643q0 195 43 346q44 153 117 264q74 111 176 170q103 59 221 62h22q112 0 210 -27q112 -31 178 -69q41 -23 63 -74q16 -36 16 -72q0 -14 -3 -29q-3 -32 -9 -57q-9 -34 -14 -47l-7 -18q-8 -19 -13 -29q-14 -28 -33 -55q-2 -2 -8.5 -11t-10.5 -16q-14 -21 -32 -31 q-21 -12 -56 -18q-11 -2 -23 -2q-25 0 -56 8q-57 15 -80 47q-10 15 -10 36t10 48q6 15 6 37q0 24 -8 37q-9 14 -29 28q-19 13 -51 13l-13 -23q-17 0 -30 -8q-17 -11 -25 -18q-3 -3 -9 -9.5t-9 -9.5q-3 -4 -7.5 -8t-5.5 -4q-12 -12 -36 -43q-22 -28 -43 -84q-22 -59 -37 -148 q-15 -91 -15 -237q0 -142 54 -199q52 -55 129 -55q39 0 86 41t77 121q1 4 7 22q3 9 -7 19q-4 4 -18 4h-33q-27 0 -41 2q-21 3 -39 12q-25 13 -45 45q-20 33 -32 70q-15 47 -17 67q-3 32 2 35q42 28 129 31q15 1 30 1q76 0 155 -13q91 -14 172 -43q78 -28 96 -62q9 -29 9 -63 q0 -21 -3 -43q-8 -57 -18 -107q-15 -76 -56 -166q-41 -89 -102 -168q-60 -77 -141 -131q-80 -53 -172 -53q-65 0 -125 8q-58 8 -129 25q-59 14 -113 39t-82 57q-71 74 -117 223q-45 145 -45 332z" />
<glyph unicode="H" horiz-adv-x="1390" d="M43 819q0 31 29 31h78q13 109 24 197q8 65 25 176q5 32 13 83l9 52q7 43 17 78q2 12 16 26q13 13 37 13q20 0 71 -7q44 -6 93 -12q59 -7 90 -14q35 -8 61 -19q24 -9 37 -22q11 -11 8 -37q-15 -75 -33 -209q-18 -132 -36 -291l247 17q5 39 14.5 112t10.5 78q9 65 25 166 q4 23 10.5 66t9.5 61q8 45 16 74q2 11 17 26q13 13 37 13q15 0 69 -7q15 -2 46 -6t46 -6q62 -8 91 -14q36 -7 63 -19q23 -10 35 -22q11 -11 8 -37l-20 -6q-20 -117 -37 -242q-28 -202 -41 -338q-18 -188 -33 -383q-14 -186 -14 -381q0 -43 -49 -43q-47 0 -107 13 q-53 11 -104 30q-44 16 -86 43q-35 22 -56 47q-20 26 -20 68q0 73 6 172q3 46 16 209q-73 -8 -116 -10q-41 -2 -127 -6q-15 -226 -17 -260q-6 -129 -6 -252q0 -43 -47 -43q-51 0 -107 12q-46 10 -104 31q-44 16 -86 43q-33 21 -55 47q-21 27 -21 67q0 85 6 205q4 89 23 252 q-32 43 -57 98t-25 80z" />
<glyph unicode="I" horiz-adv-x="669" d="M57 186q0 86 9 203q14 179 20 246q3 37 29 262q14 126 30 242q6 44 17 115.5t12 74.5q11 73 23 109q3 14 12 26q10 13 35 13q19 0 73 -7l93 -12q59 -8 90 -14q39 -8 61 -19q24 -9 37 -22q11 -11 8 -37l2 6q-20 -117 -37 -242q-27 -198 -43 -337q-21 -186 -36 -383 q-15 -200 -15 -381q0 -43 -47 -43q-50 0 -106 12q-49 11 -105 31q-44 16 -86 43q-33 21 -55 47q-21 27 -21 67z" />
<glyph unicode="J" horiz-adv-x="1239" d="M2 326q11 62 66 141q10 14 48.5 70.5t59.5 87.5q8 12 14 18q9 9 27 12q22 4 47 -2q28 -6 74 -24q77 -15 92 -49q8 -17 8 -43.5t-8 -61.5q-10 -41 -10 -67.5t10 -38.5q23 -26 55 -29v-10q46 0 74 22t43 56q18 41 25 73q3 13 9 40t9 40l14 68q0 9 3 12q6 35 26 168 q19 123 25 172q9 72 20 209q13 164 19 280q3 43 47 43q57 0 106 -8q55 -9 105 -24q43 -13 86 -37q35 -20 55 -43q18 -26 18 -59v-9q-10 -123 -18 -215q-7 -93 -18 -215q-21 -279 -70 -450q-49 -173 -123 -267q-75 -97 -174 -133q-96 -35 -227 -51q-20 -2 -41 -2 q-70 0 -146 23q-98 30 -180 79q-81 48 -131 111q-40 51 -40 96q0 9 1 17z" />
<glyph unicode="K" horiz-adv-x="1337" d="M55 829q0 31 31 31q10 -2 37 -2h43q13 109 24 197q8 66 25 172q4 28 12.5 73t10.5 60q8 51 16 78q3 14 12 26q10 13 35 13q20 0 74 -7q15 -2 46 -6t46 -6q59 -8 90 -14q38 -8 64 -19q21 -9 34 -22q12 -12 9 -37l8 -14q-15 -75 -33 -203q-23 -158 -37 -283l96 8 q13 26 39 80t35 72q67 136 80 162q40 80 78 147q14 24 32.5 59t24.5 46q8 14 25 24q15 9 37 0q22 -7 65 -28q27 -13 74 -43q2 -1 72 -50q26 -18 55 -43q24 -17 24 -40q0 -13 -8 -27q-7 -17 -53 -88q-44 -67 -96 -150q-47 -73 -109 -166q-69 -103 -94 -135q24 -57 72 -135 q43 -71 90 -135q42 -59 90 -113q48 -55 69 -71q22 -19 19 -43q-3 -23 -25 -45q-47 -47 -55 -54q-38 -33 -74 -57q-42 -28 -80 -45q-43 -19 -73 -19q-40 0 -92 52q-52 51 -101 131q-45 72 -96 176q-46 94 -74 182l-94 -6q-12 -168 -16 -250q-7 -144 -7 -239q0 -43 -47 -43 q-51 0 -106 12q-49 11 -105 31q-44 16 -86 43q-33 21 -55 47q-20 26 -20 67q0 83 6 197q6 116 18 244q-32 55 -57 118q-25 64 -25 90z" />
<glyph unicode="L" horiz-adv-x="1042" d="M57 236q0 85 6 196t15 234q6 78 22 245q7 71 29 230q11 83 31 190q14 75 35 123q5 11 16 25q9 12 35 12q32 0 71 -8q43 -9 93 -21q42 -10 90 -28q37 -14 61 -31q19 -16 31 -31t12 -37v-6v-6q-14 -91 -24 -154q-21 -134 -31 -208q-26 -194 -31 -240q-10 -84 -26 -248v-10 q0 -49 49 -49h6q92 5 209 16q33 3 85.5 8.5t73.5 7.5l-10 -14h10h11q28 0 43 -24q42 -75 55 -158q12 -80 12 -127q-3 -48 -14 -64q-11 -17 -33 -26q-47 -24 -141 -41q-108 -19 -227 -19q-75 0 -152 9t-150 30q-72 20 -135 56q-63 35 -108 86q-8 8 -8 26q-11 33 -11 56z" />
<glyph unicode="M" horiz-adv-x="1673" d="M51 182q3 86 12 203q0 3 23 242q12 126 27 252q14 119 30 233q12 89 27 186q14 90 20 109q2 12 17 27q12 12 37 12q28 0 71 -6q4 -1 38.5 -6t54.5 -7q59 -7 90 -14q39 -9 61 -18q40 -15 43 -37q15 -26 25 -55q6 -18 28 -68q8 -22 88 -260q43 -129 78 -246q43 93 105 215 q57 111 147 293q7 16 29 53q26 43 39 60q29 38 39 49q18 21 28 31q15 18 43 18q23 0 70 -6q15 -2 46 -6t46 -6q47 -6 90 -15t64 -18t35 -23q11 -11 8 -37l-6 -2q-22 -129 -37 -235q-28 -193 -41 -326q-18 -175 -33 -373q-14 -181 -14 -374q0 -43 -49 -43q-52 0 -105 12 q-44 10 -98 31q-41 16 -80 43q-31 22 -53 47q-21 27 -21 67q0 36 4 158q2 63 10 184v12q0 41 17 99q24 82 29 108v7q-31 -47 -43 -74q-6 -13 -21 -44.5t-22 -47.5q-14 -27 -27 -58q-5 -12 -15.5 -33.5t-15.5 -33.5q-12 -27 -35 -62q-20 -29 -36 -43q-9 -18 -44 -18 q-18 -3 -43 0q-18 2 -49 10q-28 7 -43 12q-7 2 -16.5 6t-11.5 5q-44 12 -58 45q-10 29 -30 71q-12 26 -45 97q-25 48 -39 98q-11 40 -37 104q-6 -65 -6 -124q0 -50 -7 -132q-10 -130 -18 -251q-9 -133 -12 -248q-3 -43 -49 -43q-52 0 -105 12q-44 10 -98 31q-28 11 -82 41 q-35 20 -55 43q-19 27 -19 58v9z" />
<glyph unicode="N" horiz-adv-x="1259" d="M45 246q3 85 12 196l23 230q5 49 29 237q14 110 30 215q6 38 16.5 98t12.5 74q14 84 20 103q2 11 17 26q13 13 37 13q32 0 73 -6q13 -2 40 -6.5t40 -6.5q47 -7 74 -14t55 -19q26 -11 35 -20q13 -13 10 -33q13 -29 17 -57q7 -44 12 -80q4 -26 16 -86q1 -6 19 -80l53 -291 q0 3 19 222q10 122 20 190q9 66 29 147q15 60 37 97l18 24q10 13 35 13q23 0 69 -9q62 -12 93 -20q18 -5 51.5 -14.5t38.5 -10.5q46 -13 63 -20q22 -9 31 -39t6 -55l-20 10q-30 -177 -37 -221q-27 -169 -43 -291q-29 -221 -41 -338q-18 -180 -27 -358q-3 -43 -49 -43 q-51 0 -107 12q-44 9 -104 35q-47 20 -86 45q-33 21 -55 47q-13 17 -19 31q-22 83 -28 110q-11 47 -48 160q-18 53 -30 117t-27 129q-15 -167 -24 -342t-9 -342q0 -43 -47 -43q-105 0 -176 24q-68 23 -110 68q-40 46 -52 98q-12 53 -12 74z" />
<glyph unicode="O" horiz-adv-x="1267" d="M57 588q0 183 41 344q39 154 115 278q73 120 172 187q98 67 209 67l-12 -6q52 0 108 -6q57 -6 109 -18q28 -6 98 -29q43 -14 76 -37q27 -19 69 -61q40 -39 74 -107q33 -64 58 -160q24 -92 24 -215q0 -183 -41 -344q-41 -162 -110 -276q-72 -120 -168 -185 q-98 -67 -209 -67q-54 0 -109 6t-108 18q-38 9 -97 29q-40 14 -73 37q-30 21 -70 61q-37 37 -74 109q-31 60 -57 160q-25 95 -25 215zM463 524q0 -73 10 -131q8 -49 29 -80q19 -28 39 -37q23 -10 47 -10q36 0 49 8q15 9 25 19q15 15 36 59t39 117q20 81 31 176 q12 102 12 232q0 77 -10 135q-9 53 -27 80q-18 28 -38 36q-26 11 -46 11v-6q-30 0 -51 -7q-18 -6 -26 -14q-17 -17 -37 -61q-22 -48 -39 -119q-20 -81 -31 -176q-12 -102 -12 -232z" />
<glyph unicode="P" horiz-adv-x="1146" d="M70 195q0 111 10 258q7 101 22 252q9 87 29 215q12 74 29 141q-2 3 -27 43q-12 20 -27 49q-19 38 -22 45l-14 29v-8q-7 22 -7 38q0 26 17 39q22 18 70 43q71 37 124 56q81 30 162 49q84 20 185 20q7 0 73 -16q62 -15 135 -39q68 -22 140 -49q67 -25 84 -39q9 -9 24 -39 q20 -39 31 -70q17 -47 25 -84q10 -48 10 -79q0 -87 -25 -179q-24 -87 -74 -165q-52 -80 -122 -136q-73 -58 -172 -82q-57 -14 -99 -14q-34 0 -61 10q-22 8 -39 29q-22 26 -31 39l-6 6q-10 10 -12 14q-17 -206 -19 -239q-7 -100 -14 -295q-3 -43 -49 -43q-52 0 -105 12 q-43 10 -94 31q-40 17 -78 43q-31 22 -53 47q-20 26 -20 68zM485 1100h4h5q21 -9 47 -35q18 -18 18 -51q0 -12 -2 -25v-12l-18 -129q-1 -7 -8 -57t-11 -78q44 6 90 28q40 19 80 56q37 34 58 77q22 46 22 97q0 58 -39 106q-40 49 -123 49q-55 0 -123 -26z" />
<glyph unicode="Q" horiz-adv-x="1241" d="M63 688q9 160 56 303q46 138 121 246q72 103 163 166q88 61 185 61l-2 -20q58 0 110 -8q62 -10 115 -21q64 -14 104 -26q52 -16 80 -27q71 -27 127 -164q56 -136 56 -381q0 -226 -68 -409t-166 -293q27 -64 66 -123q46 -70 73 -107q17 -24 17 -55q0 -34 -21 -55 q-27 -27 -55 -49q-44 -34 -74 -50q-43 -22 -80 -36q-41 -15 -73 -15q-39 0 -70 31q-32 32 -55 82q-25 55 -45 119q-24 77 -37 141q-86 8 -178 31q-84 21 -136 49q-36 18 -79 78q-43 59 -72 139q-32 88 -49 184q-14 81 -14 159q0 25 1 50zM471 571q0 -73 10 -131 q8 -47 29 -82q19 -32 39 -43q21 -12 47 -12q36 0 49 8q15 9 25 19q19 19 35 55q17 39 36 109q18 68 33 159q16 98 19 207q1 18 1 35q0 56 -8 98q-10 54 -26 78q-19 28 -43 37q-27 10 -53 10l4 -4q-34 0 -52 -6t-26 -14q-17 -17 -37 -50q-22 -36 -39 -92q-20 -63 -31 -151 q-12 -92 -12 -230z" />
<glyph unicode="R" horiz-adv-x="1187" d="M68 1184q-7 22 -7 39q0 26 17 39q14 12 74 49q41 26 133 67q78 35 166 62q85 26 178 26q37 0 92 -18q45 -15 113 -39q43 -15 104 -43q14 -6 37 -17t31 -14q19 -10 36 -32q18 -25 31 -56q17 -43 23 -67q10 -42 10 -74q0 -177 -53 -307q-52 -127 -189 -193q25 -31 72 -86 q38 -44 74 -80l67 -67q25 -25 49 -45q25 -22 19 -49q-7 -30 -21 -56q-5 -7 -45 -57q-25 -32 -67 -70q-33 -30 -78 -57q-42 -25 -74 -25q-36 0 -84 60q-44 56 -96 145q-41 71 -94 187q-47 102 -76 186q-9 -106 -18 -227q-13 -182 -19 -297q-3 -43 -49 -43q-50 0 -100 12 q-44 11 -93 31q-40 16 -73 43q-28 22 -49 47q-21 27 -21 67q3 123 12 246q3 36 19 227q8 92 22 189q12 83 21 129v2v2q-10 10 -25 31q-8 12 -26 47q-13 26 -25 47q-13 23 -16 35zM449 1077q12 0 18 -2l16 -4q19 -8 49 -35q21 -19 21 -52q0 -11 -2 -23v-7q-3 -24 -10 -66 t-9 -59q-6 -41 -18 -127q38 7 88 35q43 23 78 62q34 37 55 86t21 100q0 58 -41 105q-39 45 -123 45q-32 0 -74 -17q-24 -9 -69 -41z" />
<glyph unicode="S" horiz-adv-x="1103" d="M23 389q-1 12 -1 23q0 46 11 61q13 19 30 25q21 6 48 -4q23 -8 49 -25q14 -9 49 -35q23 -17 41 -28q75 -40 131 -48q68 -10 94 -10q58 0 80 19q12 10 12 35q0 17 -6 42l-8 -10q-9 39 -53 60q-54 26 -101 43q-42 15 -123 49q-64 27 -118 69t-92 111q-37 67 -37 168 q0 117 49 215t127 170q76 70 172 111q93 40 184 40q125 0 207 -24q95 -28 160 -57q56 -23 104 -74q38 -41 38 -92q0 -10 -1 -21q-1 -8 -2 -21.5t-2 -25t-2 -22.5q-3 -36 -12 -80q-9 -41 -27 -92q-16 -44 -49 -105q-1 -1 -2.5 -4.5t-3.5 -7.5l-4 -8q-6 -15 -19 -31 q-18 -23 -26 -29q-14 -12 -37 -18q-20 -6 -49 4q-25 8 -62 18q-78 15 -90 54q-4 15 -4 33q0 30 12 71q15 55 15 93q0 30 -9 50q-20 45 -73 45q-36 0 -68 -14q-29 -13 -61 -41q-27 -24 -45 -59q-19 -36 -19 -74v-11q0 -75 37 -118q41 -47 102 -74q66 -29 136 -49 q72 -21 135 -59q60 -36 104 -99q43 -61 43 -170q0 -104 -33 -174q-37 -78 -88 -121q-55 -46 -125 -67q-77 -23 -143 -23q-87 0 -160 13q-65 12 -121 34q-40 16 -90 48q-14 9 -38 26.5t-31 22.5q-38 27 -62 65q-30 48 -41 74q-16 39 -24 74q-8 33 -8 59z" />
<glyph unicode="T" horiz-adv-x="1200" d="M6 1376q-3 27 0 45q3 20 25 23q49 7 129 10q90 3 202 6q76 2 240 2q127 0 244 -6q16 -2 65 -2q26 0 80 -4q34 -2 74 -6q36 -3 43 -8q15 -9 37 -37q25 -32 41 -68q28 -62 37 -88q14 -38 32 -98q9 -26 -4 -62q-10 -30 -55 -30h-8q-12 0 -49 6t-99 12t-141 12q-93 7 -174 7 q45 -6 66 -27t30 -45q10 -27 10 -49q0 -31 -2 -41q-9 -88 -18 -162t-18 -162q-9 -90 -15 -198q-6 -111 -6 -273q0 -68 -20 -104q-19 -35 -56 -35h-6q-55 3 -100 14q-41 10 -92 31q-27 11 -76 41q-30 18 -51 43q-21 27 -21 67q3 128 12 265q8 123 25 262q4 31 13.5 107.5 t13.5 113.5q14 119 16 143q-76 0 -113 -2q-43 -2 -100 -6l-2 -14q-32 3 -45 8q-22 7 -31 14q-10 7 -24 25q-12 15 -27 33q-6 6 -18 30q-16 32 -25 58q-23 65 -25 73q-11 37 -14 76z" />
<glyph unicode="U" horiz-adv-x="1337" d="M59 367v19q0 71 19 181l4 43v13q5 69 22 247q4 40 25 236q9 86 25 194q10 69 22 123q3 13 23 27q18 12 43 12q40 0 65 -2q37 -3 78 -6q25 -2 80 -10q36 -5 67 -19q4 -2 12.5 -6t12.5 -6q12 -6 21 -18t12 -33t0 -55q-6 -62 -25 -193q-5 -35 -15 -104.5t-15 -104.5 q-16 -111 -27 -203q-12 -99 -12 -167v-11v-14q0 -56 6 -94t18 -56t31 -24q18 -6 41 -6q36 0 61 22t43 56q22 42 29 77q13 61 16 84q0 15 2 19q25 215 29 258q3 30 25 241q2 23 10.5 97.5t11.5 109.5q8 77 23 152q3 14 16 27q12 12 37 12q33 0 82 -6q46 -6 98 -15 q41 -8 92 -18q38 -8 64 -19q23 -10 35 -22q11 -11 8 -37l-10 -16q-6 -95 -29 -316q-16 -157 -53 -415q-8 -83 -25 -164l-4 -33q-3 -18 -6 -27q-58 -233 -201 -340q-134 -100 -364 -100h-13q-56 0 -108 14q-49 13 -105 37q-45 19 -92 45q-46 25 -74 45q-30 21 -61 52t-49 83 t-21 134z" />
<glyph unicode="V" horiz-adv-x="1298" d="M61 1386q-3 24 21 54t61 30q49 0 105 -12q46 -10 104 -31q52 -19 86 -38t56 -48q13 -16 28 -108q18 -108 31 -225q21 -184 31 -287q15 -151 24 -295q39 126 68 252q10 44 30.5 132t30.5 132q6 26 62 256q33 137 63 227q7 26 12 35q6 13 29 13q45 0 105 -13 q56 -12 108 -33q45 -18 94 -45q41 -23 64 -49l-6 -14q5 -6 12 -16t8 -11q10 -13 0 -35q-39 -134 -57 -192q-35 -111 -72 -234q-26 -84 -78 -247q-50 -156 -80 -240q-59 -165 -75 -205q-29 -72 -66 -147q-15 -28 -49 -19q-17 -1 -35 -1q-30 0 -65 3q-29 3 -121 17h-12 q-24 0 -64 12q-8 3 -80 29q-13 5 -76 35q-29 14 -57 34q-41 30 -47 78q-8 57 -14 90q-2 10 -13 70.5t-18 101.5q-5 29 -19.5 111.5t-23.5 134.5q-23 134 -51 311q-26 171 -39 271q-13 99 -15 116z" />
<glyph unicode="W" horiz-adv-x="1566" d="M49 1284v105q0 4 4 24q3 16 13 29q9 13 22 22q15 11 31 11q36 0 104 -11q60 -10 105 -26q50 -18 90 -39q37 -19 61 -43q19 -16 25 -117q6 -102 12 -246q4 -106 4 -180q0 -71 4 -197q18 52 39 129q30 109 41 158q14 61 37 148q18 67 33 102q24 53 49 53q28 0 59 -8 q18 -4 35 -12q18 -9 37 -25t31 -43t12 -67v-56q0 -20 4 -106q3 -65 6 -144q2 -65 13 -165q2 0 2 2q30 102 57 213q9 37 27.5 110.5t27.5 110.5q5 22 24.5 98.5t28.5 116.5q15 68 54 194q7 24 18 35q13 13 35 13q50 0 102 -15q50 -14 101 -39q31 -15 88 -53q35 -23 61 -53 l-10 12q20 -26 20 -61q0 -12 -2 -25q-27 -164 -67 -340q-44 -192 -86 -344q-51 -183 -92 -307q-52 -158 -86 -232q-8 -15 -31 -32q-22 -16 -43 -7q-23 2 -76 13q-14 3 -88 22q-25 7 -86 29q-33 12 -63 31q-27 15 -33 43q-3 12 -19 67q-23 73 -34 178q-19 177 -23 226 q-11 -3 -14 -6q-2 -7 -10.5 -39.5t-14.5 -57.5q-11 -42 -43 -157q-26 -91 -51 -166q-26 -77 -49 -121q-10 -26 -21 -37q-13 -13 -24 -16q-8 -2 -25 -2h-20q-27 3 -56 12q-24 7 -61 22q-17 7 -57 29q-30 17 -50 31q-19 14 -30 35q-12 25 -17 41q-20 74 -45 219 q-27 161 -59 389q-15 102 -21 196q-3 55 -8 179q-2 55 -2 147z" />
<glyph unicode="X" horiz-adv-x="1224" d="M-20 233q3 42 18 66q5 7 23.5 34t31.5 46q41 59 90 129q60 85 105 145q63 84 104 127q-73 124 -129 242q-56 117 -98 233q-9 26 -12 56q-3 28 18 49q22 22 66 43q49 23 96 37q53 15 102 24q60 11 84 11q22 0 43 -37q25 -44 43 -95q24 -68 43 -133q20 -69 39 -151 q23 42 64 112q51 86 65 111q12 20 33.5 53t26.5 41q22 35 49 70q10 14 41 29t53 6q28 -9 59 -31q34 -24 62 -49q35 -32 59 -62q37 -47 49 -67q15 -21 15 -64q0 -40 -17 -67l-22 4q-9 -12 -56 -70q-32 -39 -92 -106q-17 -19 -51.5 -58t-52.5 -59q-30 -34 -96 -104 q81 -132 135 -254q58 -132 102 -248q9 -26 12 -56q3 -28 -18 -49q-28 -28 -57 -49q-52 -38 -82 -53q-64 -33 -88 -43q-46 -19 -76 -19q-21 0 -49 48q-34 59 -56 116q-30 79 -55 160q-32 103 -49 172q-1 -1 -25 -49t-38 -74q-44 -81 -68 -125q-36 -63 -64 -116 q-13 -25 -55 -95q-14 -25 -43 -25q-13 0 -29 5q-62 24 -127 69q-69 48 -114 109q-15 21 -12 61z" />
<glyph unicode="Y" horiz-adv-x="1173" d="M55 1231q-1 7 -1 16q0 22 5 58q6 44 29 67q24 24 57 37q56 22 80 29q36 10 88 20q55 11 80 15q6 2 29 2q7 0 37 -5q18 -3 30 -12q14 -11 17 -28q32 -201 43 -334q10 -127 35 -275q41 115 86 217q63 141 86 189q50 103 73 141q35 58 56 80q3 2 11 10.5t13 14.5 q15 15 35 18q25 6 55 -6q36 -14 60 -33q9 -7 27.5 -21.5t27.5 -21.5q31 -24 49 -37q12 -9 27 -24t18 -37q3 -30 -8 -58q-12 -30 -24 -51q-73 -124 -134 -248q-86 -175 -145 -315q-57 -134 -131 -326q-63 -163 -92 -276q-3 -16 -15 -31q-13 -16 -26 -24q-18 -11 -37 -11 q-22 0 -49 15l-219 96q-20 9 -33 31q-13 23 -16 47t0 49q3 26 6 37q10 32 47 116q33 74 65 148q-12 -1 -23 -1q-43 0 -73 19q-38 24 -68 101q-54 129 -104 295q-47 156 -74 307z" />
<glyph unicode="Z" horiz-adv-x="1204" d="M2 281q3 44 43 81q49 61 123 134q116 116 184 182q87 85 215 199q118 105 215 184q-36 4 -59 4h-66q-47 -2 -99 -1.5t-109 1.5q-116 3 -197 6q-32 4 -43 8q-17 7 -25 15q-9 9 -18 24q-6 11 -25 33q-5 5 -18 31q-15 30 -25 61q-12 37 -24 78q-14 48 -19 78q-3 26 13 45 t36 22q94 11 250 11q94 0 406 -4q33 0 84 -7q36 -5 80 -12q40 -6 63 -14q29 -10 37 -15q17 -10 37 -36q23 -30 43 -68q30 -58 41 -88q20 -54 33 -98q3 -21 -2 -52q-6 -33 -27 -57l-4 -6q-53 -58 -129 -123q-27 -23 -84.5 -70.5t-85.5 -70.5q-84 -70 -193 -168 q-90 -81 -198 -205q-2 -2 -2 -6q27 6 73 14q45 8 72 10q63 5 80 5h94q81 -3 143 -9q58 -6 82 -16q16 -9 31 -37q17 -31 31 -68q24 -64 31 -88q5 -17 15 -49t15 -49q2 -10 6 -31q3 -18 0 -36t-12 -33q-10 -16 -31 -19q-10 -3 -43 4q-28 6 -86 15q-44 7 -135 14q-80 6 -186 6 q-64 0 -101 -2q-18 -1 -106 -6q-17 -1 -51.5 -3t-52.5 -3q-26 -2 -49 -2t-44 2l-26 2q-59 3 -86 43q-6 9 -27.5 40.5t-34.5 51.5q-4 11 -12 25q-8 13 -18 37q-14 33 -17 43q-6 21 -6 43z" />
<glyph unicode="[" horiz-adv-x="940" d="M111 -145q0 86 6 221q3 68 16 293q3 52 23 317q13 174 24 299q10 112 25 238q11 93 22 129q2 12 19 32q15 18 33 33q21 17 36 25q20 10 31 10h88q67 0 98 -2q27 -2 80 -2q26 0 80 -4q51 -3 101 -12q49 -9 67 -21q17 -10 37 -39q28 -40 41 -67q27 -56 35 -78 q15 -40 12 -74q0 -16 -12 -25t-27 -6q-100 11 -168 13q-82 3 -168 6q-15 -120 -30 -273q-1 -11 -13 -130.5t-18 -184.5q-15 -167 -27 -326q-12 -164 -18 -307l6 -20q37 0 55 -2l49 -7q70 -4 76 -4q25 0 43 -12q17 -10 41 -37q25 -28 45 -61q25 -40 37 -74q15 -40 12 -74 q0 -16 -14 -24q-13 -8 -31 -8q-46 0 -75 2q-58 4 -89 6q-78 5 -94 6q-39 2 -88 6q-9 -3 -20 0q-97 20 -187 72q-88 51 -139 96q-15 12 -18 31q-2 12 -2 39z" />
<glyph unicode="\" horiz-adv-x="1153" d="M66 1251q-21 41 12 80q22 31 78 80q53 47 96 66q23 10 37 4q12 -5 24 -17q24 -21 80 -98q52 -71 129 -188q91 -138 154 -242q21 -35 75.5 -123.5t82.5 -136.5q85 -144 139 -246q58 -111 96 -201q6 -10 14 -34q6 -17 -4 -33q-44 -55 -92 -94q-46 -37 -110 -64 q-42 -16 -60 21q-83 154 -196 337q-139 226 -211 338q-86 134 -193 308q-89 144 -147 249z" />
<glyph unicode="]" horiz-adv-x="940" d="M-41 -82q0 16 12 25t27 6q82 -9 166 -12q28 -1 83 -3.5t83 -3.5q14 113 30 275q30 305 31 317q15 164 27 330q12 169 18 309l-16 2q-40 0 -58 2q-31 3 -49 6q-15 1 -40.5 3t-34.5 2q-25 0 -43 12q-13 8 -39 37q-25 28 -45 61q-25 40 -37 74q-16 42 -13 74q0 14 17 24 t31 10q46 0 75 -2q44 -3 90 -6l95 -4q39 -2 86 -6q9 3 22 0q35 -6 98 -14q20 -2 54.5 -7t38.5 -6q36 -5 80 -12q33 -5 63 -22q15 -9 18 -29q2 -12 2 -39q0 -85 -6 -229q-2 -59 -16 -314q-2 -34 -23 -344q-12 -172 -24 -325q-10 -121 -25 -259q-11 -101 -22 -137 q-2 -12 -19 -32q-17 -21 -32 -33q-20 -16 -37 -25q-20 -10 -31 -10h-88q-36 0 -98 4q-27 2 -80 2q-26 0 -80 4q-50 3 -100 12q-46 8 -68 23q-14 9 -37 41q-27 38 -41 68q-20 41 -33 77q-15 40 -12 74z" />
<glyph unicode="^" horiz-adv-x="915" d="M55 1001q7 23 15 37q12 30 53 80q63 77 86 103q63 71 92 102q43 45 68 78q16 25 47 41q32 16 59 16q34 0 60 -16q27 -17 47 -37q6 -8 15 -19.5t22 -29t22 -29.5l78 -102q23 -30 74 -103q31 -44 45 -80q7 -12 14 -36q6 -21 -6 -33q-27 -27 -51 -55q-21 -25 -31 -37 q-12 -16 -25 -25q-13 -10 -32 -18q-20 -9 -33 -2q-12 6 -27 24q-25 32 -86 121q-51 74 -92 123q-30 -36 -94 -123q-19 -27 -50.5 -71t-35.5 -50l-4 -6q-16 -20 -27 -25q-10 -5 -33 5q-25 10 -37 18q-7 4 -32 25q-18 15 -39 36l-56 56q-12 12 -6 32z" />
<glyph unicode="_" horiz-adv-x="847" d="M-59 -313q0 27 16 43t25 16q52 0 147 6q15 1 197 17q56 5 194 14q100 7 139 4v-8q26 6 52 -23q7 -7 16 -28q8 -19 18 -52q14 -48 17 -61q6 -30 6 -51q0 -59 -39 -56q-47 3 -135 0q-57 -2 -184 -10q-121 -8 -179 -14q-85 -9 -122 -12q-41 -3 -62 12q-22 16 -31 31 q-32 55 -51 92q-24 47 -24 80z" />
<glyph unicode="`" horiz-adv-x="591" d="M102 1323q-3 15 13 37q24 30 30 37q12 14 37 39q10 10 35 30q16 13 25 13q33 6 53 -11l2 -12q35 -28 61 -63q6 -8 28 -36.5t34 -45.5q10 -14 30.5 -43t30.5 -43q11 -15 30 -40.5t26 -35.5q9 -3 12 -25t-12 -43q-3 -3 -8 -7.5t-7 -6.5q-4 -4 -12 -8q-6 -3 -18 -6 q-6 -2 -33 -13q-20 -4 -39 -4q-24 0 -51 27q-15 17 -50 49q-11 10 -34.5 32t-32.5 30q-48 44 -74 65q-20 16 -63 59q-10 10 -13 25z" />
<glyph unicode="a" horiz-adv-x="997" d="M10 375q0 126 39 227q41 106 105 182q67 79 143 121q79 43 162 43q25 0 61 -8q50 -11 80 -20q37 -11 74 -27q32 -14 43 -25q13 -13 20 -37q5 -16 8 -55q52 -13 86 -26q16 -6 39 -14.5t27 -10.5q22 -9 31 -25q9 -15 6 -43l-14 -10q-9 -53 -15 -143q-6 -85 -12 -191 q-4 -60 -8 -180q-2 -55 -2 -110q0 -18 -13 -31q-12 -12 -34 -12q-30 0 -76 12q-36 9 -92 31q-39 15 -86 43q-36 21 -58 47q-22 28 -22 67v6v9v2v2q4 12 4 14v12q0 8 -6 8q-5 0 -13 -14q-9 -15 -22 -41q-21 -42 -25 -51q-12 -27 -24 -51q-2 -4 -23 -39q-22 -22 -43 -37 q-20 -14 -49 -14q-16 0 -43 6q-14 3 -57 16q-28 8 -58 25q-29 16 -43 30q-45 51 -67 134q-23 87 -23 178zM369 373q0 -33 20 -33q10 0 25 12q5 4 30 29q21 30 41 68q32 63 41 86l6 63v8l-2 -8q3 11 -4 25q-6 12 -22 12q-23 0 -49 -29q-26 -30 -43 -67q-21 -47 -31 -86 q-12 -47 -12 -80z" />
<glyph unicode="b" horiz-adv-x="1042" d="M63 244q0 8 2.5 36.5t4.5 63t4 70.5q0 4 16 278q7 125 25 326q11 120 35 307l3 9q3 10 5 16q8 20 12 28q7 14 16 23t23 6q95 -8 180 -18q80 -9 115 -56q20 -33 20 -65q0 -80 -12 -191q-9 -80 -31 -229q61 33 135 39q24 2 47 2q46 0 89 -8q55 -10 110 -35q46 -21 62 -43 q24 -39 43 -101q14 -45 14 -100q0 -30 -4 -63l2 -11q-15 -147 -70 -241q-59 -101 -118 -154q-63 -58 -123 -82q-65 -27 -80 -31q-27 -9 -68 -12q-20 -2 -39 -2t-37 2q-39 3 -65 6q-30 3 -35 6q-49 6 -117 31q-58 21 -98 53q-20 15 -45 50q-21 30 -21 78v12zM416 287 q0 -10 10 -13q31 -6 55 9q25 15 47 41q20 23 33 55q14 36 17 59q3 32 18 76v19q0 46 -12 81q-15 44 -37 41q-54 -3 -78 -24q-25 -22 -25 -49q-3 -15 -6 -52q-4 -50 -6 -79q-1 -15 -6 -82q-3 -41 -6 -56l-4 -2v-24z" />
<glyph unicode="c" horiz-adv-x="929" d="M12 412q0 124 35 227q36 105 92 176q59 73 135 117q77 44 160 47q46 3 83 3q49 0 83 -5q54 -7 129 -25q6 -4 47 -20q32 -13 55 -39q25 -28 31 -74q1 -8 1 -17q0 -41 -23 -106q-14 -55 -35 -90q-4 -7 -19 -31.5t-24 -39.5q-20 -17 -43 -27q-20 -9 -37 -12q-52 3 -94 16 q-35 11 -64 37q-9 3 -12 22v7q0 20 12 59q0 31 -6 43q-7 13 -12 16q-7 3 -17 0q-6 -2 -18 -2l-14 -12q-12 0 -21 -12q-11 -11 -28 -76q-17 -64 -17 -156v-28q3 -63 21 -97t34 -37q13 0 31 -2h5q25 0 63 25q1 1 3 2.5l6 4.5t7 5q4 3 31 21q6 4 18.5 12t18.5 12q7 5 18 13.5 t12 9.5q37 13 62 10q30 -3 59 -43q7 -21 19 -49q7 -18 18 -49q7 -30 4 -55q-3 -31 -20 -50q-23 -23 -53 -47q-29 -23 -68 -45q-43 -24 -86 -37q-50 -15 -107 -18q-14 -1 -27 -1q-40 0 -77 7q-27 5 -88 23q-42 12 -68 24q-18 8 -43 23q-10 6 -45 34q-29 24 -57 68 q-29 47 -49 102q-21 59 -21 136z" />
<glyph unicode="d" horiz-adv-x="1001" d="M16 377q0 160 47 272t107 178q66 73 119 97t75 24h5q45 -4 67 -8q8 -2 53 -8v2q7 101 29 246q15 98 41 209q8 40 41 73q32 32 53 29q103 -9 181 -43q81 -35 114 -80q12 -19 19 -39q9 -23 0 -57q-21 -98 -37 -197q-19 -121 -33 -235q-25 -205 -29 -246q-12 -124 -18 -227 q-6 -105 -6 -185q0 -81 8 -112q3 -17 -6 -29q-9 -11 -25 -18q-24 -9 -33 -11q-24 -4 -32 -4q-24 0 -51 12q-19 8 -56 29q-24 13 -51 37q-28 25 -43 37q-10 7 -25 37q-24 47 -30 73q-2 9 -6 23.5t-5 19.5q-3 6 -12 -6q-18 -24 -22 -30q-19 -28 -25 -39q-9 -15 -22 -33 q-43 -48 -80 -92q-34 -40 -68 -43h-4l-20 6q-39 14 -93 53q-52 37 -73 80q0 1 -4.5 9.5t-8.5 15.5q-8 17 -18 49q-7 23 -14 67q-3 21 -3 47q0 16 1 33zM313 459q0 -36 11 -58q8 -17 24 -20q15 -3 33 6q16 8 33 25q5 5 14.5 13.5t13.5 12.5q17 17 25 27l6 225q-37 -9 -67 -39 q-33 -33 -52 -67q-20 -36 -32 -70t-9 -55z" />
<glyph unicode="e" horiz-adv-x="921" d="M20 412q0 124 41 227q39 99 105 174q64 73 141 117t152 47q70 4 88 4q27 0 67 -4q24 -2 58 -10q24 -5 61 -15q6 -3 43 -20q27 -12 49 -43q22 -32 31 -82q3 -16 2 -34q0 -43 -14 -101q-15 -58 -33 -88q-5 -8 -19.5 -31.5t-23.5 -38.5l2 -14q-48 -51 -100 -68t-105 -20 q-11 -1 -23 -1q-34 0 -65 7q-40 9 -49 18v-24q3 -58 25 -101q21 -40 36 -43q13 0 29 -2h5q23 0 61 25l16 12l29 23q5 4 35 24q23 15 30 17q37 13 62 10q30 -3 59 -43q1 -3 19 -51q6 -16 18 -52q6 -27 0 -55q-6 -27 -25 -49q-46 -58 -125 -98q-76 -39 -198 -45q-22 -1 -43 -1 q-84 0 -148 19q-69 21 -112 47q-12 7 -45 37q-34 31 -62 74q-31 48 -51 110q-23 71 -23 142zM424 530q18 -3 32 -3q26 0 42 10q27 17 41 61q1 14 1 25q0 35 -14 43q-18 9 -39 6h-6q-29 -7 -41 -49q-13 -48 -16 -93z" />
<glyph unicode="f" horiz-adv-x="735" d="M-51 807q0 26 16 45q15 18 25 18q17 -2 37 -2t43 2q1 0 102 11q6 34 16 89.5t13 73.5q10 59 22 105v4q15 59 53 121q36 60 99 110q63 51 149 80q91 31 209 31q28 0 45 -10q16 -9 31 -37q28 -52 31 -98q3 -50 12 -99q0 -43 -18 -61t-48 -25q-31 -7 -59 -4q-30 3 -57 0 q-55 -6 -80 -37t-37 -90l-12 -63v-6v-7v-6h-2v-10v-12q18 2 49 2h41l-8 -19q26 6 51 -22q8 -8 16 -27q12 -28 19 -49q11 -34 16 -55q6 -27 6 -49q0 -51 -39 -54q-67 -6 -86 -8q-47 -5 -115 -12q-11 -98 -26 -277q-12 -148 -21 -319q-3 -43 -49 -43q-101 0 -162 49t-96 111 q-7 5 -14 28q-6 21 -6 43q0 87 6 179q4 58 16 186q-8 -2 -24 -2h-21q-40 -3 -61 12q-22 15 -31 31q-27 47 -39 92q-12 47 -12 80z" />
<glyph unicode="g" horiz-adv-x="1028" d="M6 -180q3 34 12 61q15 20 31 27q17 7 31 4q16 -3 31 -12q14 -8 34 -15q5 -3 17.5 -9.5t19.5 -10.5q18 -10 43 -21q8 -3 21 -8t16 -6q18 -7 19 -8q21 -12 43 -12q14 0 38 4q16 3 31 10q12 6 15 6q7 0 22 18q13 16 31 48q15 27 31 59q16 33 22 61v2q4 36 6 48t6 40t9 48 q6 23 12 65q3 31 -4 31q-8 0 -17 -12q-3 -4 -18 -29q-10 -17 -12 -19q-43 -55 -50 -65q-28 -39 -57 -68q-33 -33 -57 -49q-27 -18 -49 -12q-24 3 -62 16q-22 8 -67 35q-33 20 -62 49q-28 28 -37 56q-2 3 -8 32q-6 26 -12 68q-8 53 -10 88q-1 24 -1 49t1 49l-7 -28 q9 141 60 239q52 98 110 154q64 61 117 84q59 26 78 31q27 9 68 12q19 2 39 2t40 -2q39 -3 70 -6t37 -6q30 -3 74 -19q27 -10 75 -33q32 -15 68 -37q40 -24 49 -30q15 -15 23 -27q7 -10 20 -41q8 -19 15 -43t4 -35q1 -26 1 -53q0 -104 -10 -205q-12 -124 -30 -233 q-18 -106 -39 -193q-11 -45 -37 -141q-1 -2 -2 -5l-1.5 -4.5t-0.5 -2.5q-19 -63 -49 -125q-18 -37 -56 -94q-22 -33 -53 -64q-21 -21 -41 -33q-54 -23 -110 -41q-61 -19 -144 -19q-21 0 -43 1q-57 3 -104 18q-38 12 -82 37q-36 20 -64 45q-18 16 -49 47q-7 9 -18 35 q-13 29 -17 47q-4 15 -8 49q-3 24 0 39q-5 24 -2 62zM397 356q6 -15 23 -18t35 12t37 37q6 7 36 47q22 30 29 43q21 48 23 55q16 46 22 66q0 5 4 25l-4 4q0 26 -14 32q-25 6 -51 -8q-27 -15 -52 -43t-45 -67q-21 -41 -30 -86l-11 -37q-9 -45 -2 -62z" />
<glyph unicode="h" horiz-adv-x="1067" d="M47 193q0 76 8 172q6 78 25 237q3 23 14 117.5t17 146.5q15 135 30 252q6 46 17 119.5t12 83.5q11 79 23 115q3 12 16 26q13 13 37 13q21 0 65 -7q37 -6 78 -12q29 -4 74 -16q27 -7 55 -19q24 -9 37 -22q11 -11 8 -37q-9 -44 -18 -105q-15 -100 -19 -137q-9 -76 -18 -162 q-2 -23 -9 -83t-10 -93l3 -4v-4l-3 -4v-18v-19q3 -5 9 -2q4 2 12 10q2 2 12 17q1 2 3 5l3 4.5t2 2.5q41 41 86 96q41 51 74 62q8 4 19 4q18 -4 61 -19q54 -19 72 -26q25 -10 67 -31q35 -18 54 -31q14 -10 32 -28q12 -12 9 -37l-21 -15q-2 -69 -10 -159q-5 -59 -12 -148 q-11 -139 -13 -172q-4 -70 -8 -227q0 -43 -49 -43q-99 0 -186 41q-85 40 -119 86q-21 27 -21 67q3 56 6 117q1 20 11 123q-3 25 0 53q1 6 2 17.5t2 20.5t2 16q3 25 0 43q-3 19 -15 22q-14 6 -38 -12q-27 -20 -43 -39l-19 -19q-6 -6 -14 -18q-12 -135 -21 -258t-12 -215 q-3 -43 -49 -43q-105 0 -189 41t-120 86q-21 27 -21 68z" />
<glyph unicode="i" horiz-adv-x="600" d="M37 201q3 238 29 430q20 145 40 264q3 28 41 43q40 16 62 16q21 0 59 -10q19 -5 68 -22q19 -7 65 -25q20 -8 50 -18q20 -9 43 -41q21 -30 18 -56l-6 -6q-4 -24 -25 -121q-17 -81 -28 -163q-17 -128 -23 -207q-10 -127 -10 -252q0 -43 -45 -43q-53 0 -99 14q-41 12 -92 37 q-24 12 -75 47q-29 20 -52 47q-20 33 -20 66zM139 1257q0 121 51 201q11 18 19 29q9 12 37 12q61 0 121 -14q67 -15 122 -51q19 -13 43 -48q22 -31 19 -57l-16 -4l-13 -104q-5 -38 -22 -101q-6 -21 -15 -33t-32 -12q-105 0 -181 31q-70 29 -112 80q-21 27 -21 71z" />
<glyph unicode="j" horiz-adv-x="622" d="M-469 -168q-3 9 6 18q13 13 21 17q12 6 26 6q17 0 25 -8q21 -10 49 -33t49 -33q59 -24 82 -30q16 -4 41 -9q9 -1 17 -1q28 0 53 8q30 9 51 24q22 16 35 35t16 35h-10q0 10 8 37q9 29 18 77q14 73 19 103q13 83 16 104q-3 10 0 23l4 28v7v6v-2q41 236 56 391 q15 162 30 246q3 28 41 43q40 16 62 16t55 -10q14 -4 61 -23q7 -3 19.5 -7.5t22.5 -8.5t18 -8q30 -13 47 -19q20 -9 43 -41q21 -30 18 -55q-19 -107 -55 -276q-35 -166 -51 -449l-4 -23q-9 -132 -47 -245q-36 -108 -97 -187q-56 -73 -135 -118q-76 -43 -161 -43 q-110 0 -187 18q-75 18 -100 43q-37 37 -55 63q-31 44 -44 74q-21 48 -34 90q-20 65 -29 117zM158 1264q0 120 51 200q15 25 18 29q9 12 37 12q61 0 121 -14q68 -16 123 -51q20 -14 43 -47q21 -30 18 -58l-16 -4q-5 -54 -12 -104q-4 -30 -23 -101q-6 -22 -14 -32 q-10 -13 -33 -13q-104 0 -180 31q-71 29 -113 80q-20 26 -20 72z" />
<glyph unicode="k" horiz-adv-x="1136" d="M41 639q0 11 10 31q9 18 19 18h28q21 0 31 -2q5 38 15.5 113.5t15.5 113.5q14 104 30 215q6 37 16 99t13 84q6 37 23 127q3 15 14 26q13 13 37 13q23 0 67 -9q54 -11 86 -20q17 -5 49 -14.5t35 -10.5q54 -16 60 -18q21 -9 35 -23q11 -11 8 -36l-10 -19q-3 -16 -25 -125 q-19 -94 -31 -166q-4 -23 -14.5 -90.5t-17.5 -107.5q-18 -108 -33 -222l63 -6q8 16 24.5 46t22.5 42q6 13 50 86q9 15 25 39.5t22 34.5q19 31 36 55q8 11 35 21q24 9 41 2q23 -7 49 -21q48 -27 56 -32q9 -6 27.5 -18.5t27.5 -18.5q25 -17 43 -31q17 -10 29 -37q13 -29 4 -43 q-39 -59 -105 -125l-123 -123q10 -17 56 -79q9 -12 19.5 -25t22.5 -27.5t19 -23.5q10 -13 28.5 -36t26.5 -32q31 -38 41 -57q14 -20 14 -38.5t-14 -35.5q-15 -15 -45 -39q-31 -25 -67 -45q-52 -29 -70 -37q-32 -14 -59 -14q-21 0 -49 31q-31 35 -56 80q-32 58 -57 110 q-39 79 -57 119l-111 20q-12 -112 -16 -170q-10 -142 -11 -159q-3 -23 -12 -35t-31 -6q-105 31 -186 75q-84 46 -119 93q-9 15 -16 22t-4 25q1 28 10 133q3 42 16 153q-27 46 -43 84q-18 44 -18 66z" />
<glyph unicode="l" horiz-adv-x="638" d="M57 186q0 83 9 203q14 183 20 252q4 38 29 268q16 141 30 250q6 45 17 118.5t12 78.5q11 73 23 110q3 14 16 27q12 12 37 12q24 0 67 -6q29 -4 91 -12q23 -3 86 -17q51 -11 59 -14q23 -10 35 -22q11 -11 8 -37l-4 -2q-18 -99 -37 -240q-26 -190 -43 -348 q-24 -218 -37 -393q-14 -189 -14 -377q0 -43 -45 -43q-50 0 -103 12q-44 10 -98 31q-28 11 -82 41q-35 20 -55 43q-21 35 -21 65z" />
<glyph unicode="m" horiz-adv-x="1486" d="M37 195q0 96 6 198q4 75 16 193q9 94 21 166q12 71 24 116q3 14 29 37t49 23q28 0 62 -6q20 -3 65 -17q10 -3 31 -9t31 -9q22 -7 51 -19q43 -17 43 -70v-7v-3q0 -20 4 -24t10 2q7 7 13 16q2 2 3.5 5l2.5 5t2 3q57 64 98 90q36 24 64 24q8 0 16 -2q45 -13 117 -43 q58 -24 104 -55l4 -4q4 -4 6 -4q23 -13 31 -13q7 0 12 5q46 52 92 86q44 33 84 36h13q26 -6 61 -18q12 -4 34.5 -12.5t33.5 -12.5q30 -10 65 -28q25 -13 51 -31q21 -15 33 -39q11 -23 8 -49q-4 -107 -8 -156q-8 -90 -12 -137q-6 -70 -12 -156q-12 -171 -15 -213 q-4 -25 -14 -43q-12 -21 -37 -18q-98 12 -188 43q-85 30 -121 61q-16 9 -19 29q-2 12 -2 39l7 254v10v21v39q0 11 4 65q-3 29 -17 33q-14 3 -24 -4q-9 -6 -27 -27q-15 -15 -18 -47q-3 -30 -6 -94l-9 -18q-3 -65 -6 -154q-3 -79 -6 -207q0 -23 -12 -41t-37 -18q-50 0 -100 12 q-44 11 -93 31q-33 13 -75 43q-29 20 -52 47q-20 26 -20 67q4 109 8 160q4 58 16 166q0 21 -4 49q-3 22 -18 25t-25 -4q-7 -4 -26 -27q-15 -15 -21 -55q-11 -119 -16 -205q-6 -111 -12 -258q-3 -43 -50 -43q-52 0 -98 12q-39 10 -86 31q-37 16 -70 43q-28 22 -49 47 q-20 26 -20 68z" />
<glyph unicode="n" horiz-adv-x="1038" d="M37 201q0 98 6 200q5 80 16 195q6 63 23 170q12 74 24 119q2 11 17 26q13 13 37 13q28 0 65 -6q9 -1 36 -6t42 -7q29 -4 74 -16q27 -7 55 -19q24 -9 37 -22q11 -11 8 -37l-14 -82v-2q2 -5 8 -2q4 2 12 10q5 5 13 17q1 2 3 5l3 4.5t2 2.5q38 42 53 61q28 35 49 56 q26 26 45 37q22 13 39 4q39 -13 62 -21q25 -9 67 -27q46 -20 66 -30q29 -15 49 -31q14 -10 33 -29q11 -11 8 -36l-6 -5q-2 -49 -11 -159q-6 -70 -12 -144q-6 -69 -12 -166q-4 -67 -8 -225q0 -43 -49 -43q-100 0 -187 41q-85 40 -119 86q-20 26 -20 68q3 65 6 116q4 82 6 121 q0 33 2 51q4 36 4 52q0 31 -2 41q-3 15 -14 18q-15 6 -39 -12q-27 -20 -43 -39l-35 -41q-8 -122 -10 -205q-1 -40 -10 -254q-3 -43 -49 -43q-105 0 -189 41q-85 42 -121 86q-20 26 -20 68z" />
<glyph unicode="o" horiz-adv-x="952" d="M18 373q0 99 29 209q26 100 80 178q53 76 123 123q71 47 153 47l-6 -6q113 0 195 -21q83 -21 110 -39q27 -16 48 -33q35 -28 61 -63q31 -41 51 -98q23 -64 23 -135q0 -107 -31 -209q-31 -101 -82 -176q-52 -76 -123 -123q-68 -45 -153 -45q-114 0 -193 20q-77 20 -117 37 q-11 7 -43 35q-29 25 -55 65q-29 44 -49 99q-21 58 -21 135zM391 348q0 -62 12 -80q11 -16 29 -20q11 0 23 12q4 4 14 31q11 28 16 65q10 70 13 93q6 53 6 108q0 62 -15 80t-30 18v-2q-12 0 -21 -12q-4 -2 -14 -29q-7 -19 -14 -65q-11 -73 -13 -92q-6 -53 -6 -107z" />
<glyph unicode="p" horiz-adv-x="1052" d="M39 -305q0 82 6 196q9 166 14 238q3 37 9.5 121t9.5 129q9 126 18 231q7 79 19 183q9 77 18 104q3 13 17 27q12 12 36 12q37 0 62 -2q12 -1 37 -3t37 -3q46 -4 71 -8q29 -5 53 -13q23 -10 35 -22q11 -11 8 -37q-3 -15 -6 -49q-3 -37 -6 -80q4 -4 12 2q11 7 19 18 q15 20 18 23l8 8l5 4q9 11 24 31.5t21 28.5q10 13 41 49q15 17 37 32q19 13 36 7q7 1 15 1q26 0 59 -8q38 -9 74 -24q30 -13 61 -37q30 -23 41 -43q6 -12 13 -33q11 -32 16 -65q8 -49 10 -82q1 -23 1 -45t-1 -43l2 -8q0 -116 -26 -193q-27 -81 -70 -135q-42 -54 -94 -88 q-49 -32 -101 -51q-50 -18 -86 -21q-50 -4 -53 -4q-50 3 -82 35q-27 27 -39 43q-6 -97 -14 -307q-6 -150 -6 -265q0 -22 -12 -34t-33 -9q-104 9 -191 43q-90 35 -123 80q-20 33 -20 66zM442 248q36 0 74 24q36 23 68 60q33 38 49 71q19 40 22 62l7 55q0 42 -11 68 q-8 20 -24 26t-33 -2q-22 -11 -35 -24q-40 -34 -67 -92q-28 -61 -37 -129z" />
<glyph unicode="q" horiz-adv-x="978" d="M25 344q-1 23 -1 46.5t1 47.5h2q0 145 53 240q52 93 121 153q70 60 133 84q74 28 86 31q30 10 65 10h70q25 0 57 -4q26 -3 29 -6q26 -3 55 -12q33 -10 60 -25q45 -25 53 -30q40 -25 43 -27q12 -12 22 -27q18 -26 23 -39q11 -26 16 -43q7 -24 5 -32q-11 -53 -17 -103 q-3 -26 -10 -83.5t-10 -84.5q-19 -158 -25 -215q-9 -86 -20 -235q-9 -122 -15 -236q-6 -117 -6 -211q0 -23 -12 -35q-11 -11 -33 -8q-36 4 -94 23q-42 14 -84 37q-35 20 -66 47q-28 25 -47 47q-20 33 -20 65q0 92 6 215q4 75 16 256q-3 3 0 13q3 35 -2 37t-14 -7 q-11 -11 -19 -24q-10 -17 -12 -19q-32 -46 -43 -67q-3 -6 -35 -57q-16 -26 -30 -37q-17 -13 -35 -4q-26 3 -64 18q-24 10 -69 37q-29 18 -62 47q-27 24 -37 47q-1 2 -2.5 6t-4.5 10.5t-5 12.5q-7 17 -14 59q-5 28 -8 82zM340 459q6 -35 18 -47q14 -14 23 -11q26 6 65 48 q8 8 32 33.5t34 37.5l8 35l4 100q0 20 -10 23q-25 6 -53 -6q-29 -13 -53 -37q-25 -25 -43 -55q-20 -33 -23 -60q-2 -10 -2 -31v-30z" />
<glyph unicode="r" horiz-adv-x="843" d="M39 197q0 109 8 200q9 107 21 195q14 107 26 168q14 73 27 119q3 13 16 26t37 13q22 0 66 -7q50 -8 77 -14q34 -7 74 -18q27 -7 55 -19q25 -9 37 -37q12 -27 9 -53l-13 -57q5 0 10 8q2 3 6.5 9t6.5 9l12 19q1 2 3 5l3 4.5t2 2.5q54 60 105 104q45 39 86 39q28 0 65 -16 q34 -15 49 -78l15 -182q0 -41 -19 -57t-47 -19t-59 0q-34 3 -58 -2q-50 -10 -94 -35q-34 -19 -61 -53q-23 -29 -39 -72q-6 -17 -33 -86q-4 -77 -8 -114q-12 -123 -14 -140q-3 -21 -21 -36t-41 -15q-105 0 -178 37q-74 37 -111 84q-20 26 -20 68z" />
<glyph unicode="s" horiz-adv-x="763" d="M-4 649q8 47 37 99q28 51 67 90t93 67q55 28 110 31q21 1 38 1q29 0 48 -3q29 -5 62 -16t53 -21q21 -11 57 -20q16 -10 47 -19q35 -10 60 -33q27 -24 39 -67q3 -13 3 -29q0 -35 -16 -84q-9 -27 -18 -45q-9 -17 -19 -31q-12 -16 -20 -24q-14 -14 -25 -33q-14 -12 -37 -35 q-15 -15 -30 -18q-32 11 -56 24t-55 41q-7 2 -14 23q-2 5 -2 12q0 19 12 53q9 35 -12 50t-43 18q-28 3 -43 -6q-14 -9 -21 -25q-6 -15 -6 -31v-20l-10 -20q-3 -17 -3 -33q0 -36 15 -60q19 -31 60 -51q42 -20 84 -31q51 -13 90 -32q41 -20 77 -56q35 -35 44 -92q3 -21 3 -40 q0 -48 -20 -85q-26 -47 -80 -75q-53 -27 -119 -33q-23 -2 -45 -2q-45 0 -90 8q-52 8 -92 22q-30 10 -59 25q-27 13 -43 27q-7 6 -23.5 18.5t-23.5 17.5q-57 66 -66 127q-6 41 -6 65q0 13 2 21q6 28 12 31t45 -6q14 -10 37 -22q37 -19 49 -23q35 -13 45 -16q22 -6 25 -9 q10 -5 25 -10q11 -4 41 -8q20 -3 38 0t21 18q3 24 -25 43q-33 22 -69 37q-15 6 -45.5 20t-46.5 21q-46 20 -89 56q-42 36 -61 81q-12 29 -12 64q0 25 6 53z" />
<glyph unicode="t" horiz-adv-x="833" d="M-8 864q0 27 16 43q17 17 25 17q18 -2 40.5 -2t49.5 2q32 2 121 10q13 88 24 151q7 42 25 129q4 20 10.5 54.5t9.5 48.5q8 38 15 63q3 14 16 27q12 12 37 12q23 0 61 -6q47 -8 74 -14q14 -3 38 -10t32 -9q41 -11 51 -14q21 -9 35 -23q11 -11 8 -36q-4 -28 -25 -146 q-15 -84 -30 -194q18 2 53 2h43l-6 2q26 6 51 -23q8 -8 16 -26q10 -24 19 -50q11 -34 16 -55q6 -27 6 -49q0 -29 -9.5 -42.5t-29.5 -12.5q-17 2 -39 1.5t-49 -1.5q-68 -4 -118 -6q-30 -230 -41 -330q-22 -208 -29 -330q-3 -43 -49 -43q-47 0 -90 19q-39 17 -72 47 q-34 30 -55 61t-39 66q-9 6 -15 28q-6 21 -6 43q0 95 8 191q8 97 21 223q-25 -5 -29 -6q-8 -2 -22 -2h-13q-31 0 -49 12q-20 14 -30 31q-18 32 -52 80q-24 35 -24 67z" />
<glyph unicode="u" horiz-adv-x="1042" d="M41 178q3 75 10 148q6 58 12 120q10 103 13 142q5 60 8 213q0 10 6 28q5 15 16 37q8 16 23 31q12 12 25 12q102 0 182 -12t115 -59q20 -26 20 -68q-3 -45 -12 -104l-21 -115l2 2l-8 -53q-2 -4 -2 -21l-6 -76q3 -17 12 -20q17 -7 41 14q25 21 43 43q5 8 19 27q3 4 9 12.5 t9 12.5v6q6 49 25 161q15 89 18 193q3 43 47 43h98q59 0 86 -2q40 -3 70 -12t49 -31q19 -27 19 -59v-9q-2 -77 -13 -200q-10 -120 -18 -201q-13 -137 -16 -176q-7 -93 -7 -125q0 -29 -18 -53q-19 -25 -43 -25q-50 0 -100 18q-18 6 -47 18.5t-41 16.5q-25 9 -43 47 q-18 37 -21 62l-6 59v8l-6 27q-3 10 -10 10t-13 -6q-8 -8 -12 -14q-6 -9 -6 -12q-20 -42 -66 -101q-39 -50 -61 -82q-23 -30 -39 -35q-17 -6 -41 -2h-4q-23 5 -68 19q-15 5 -73 28q-39 16 -68 33q-30 18 -47 35l-31 31q-11 11 -8 37z" />
<glyph unicode="v" horiz-adv-x="946" d="M8 879q0 23 10 36q19 22 50 25q8 1 15 1q23 0 50 -7q31 -8 68 -21q19 -7 55 -22q13 -4 25 -14q15 -12 30 -27q21 -21 29 -31q13 -16 16 -35q25 -175 29 -211q10 -90 41 -221q72 212 117 336q49 134 73 215q3 13 19 29t37 16q49 -6 110 -37q63 -32 99 -63q4 -3 26 -25 q16 -16 19 -37q3 -29 -8 -57q-10 -24 -25 -51q-38 -68 -68 -148q-22 -57 -65 -161q-49 -117 -70 -160q-41 -84 -80 -139q-1 -2 -8 -11.5t-12 -15.5q-14 -17 -27 -25q-15 -9 -37 -12t-49 6l-178 27q-62 17 -80 35q-18 12 -31 28t-16 41q-9 53 -27 123t-39 150q-3 11 -19 70.5 t-24 91.5q-21 82 -36 159q-3 15 -9 39q-4 17 -8 51q-2 18 -2 52z" />
<glyph unicode="w" horiz-adv-x="1169" d="M0 846q0 39 2 57q3 28 12 37q15 15 49 12q31 -3 70 -12q29 -7 74 -25q15 -6 57 -24q18 -11 47 -37q32 -29 35 -61q11 -80 11 -155q0 -17 -1 -34v-28q0 -77 13 -168q9 33 27 96t26 92q19 68 41 129q11 24 22 39q8 10 19 14q9 3 22 0q4 -1 29 -6l-12 -18q20 -4 32 -6 q16 -3 37 -13q20 -10 31 -24q11 -13 14 -47q0 -7 13 -74q14 -71 22 -146q38 160 56 277q17 113 40 184q3 13 19 29t37 16q25 -3 59 -12q26 -7 68 -25q38 -17 65 -30q25 -13 51 -31q8 -6 27 -25q16 -16 19 -36q3 -26 -7 -56q-3 -9 -14 -53q-10 -50 -41 -156q-11 -36 -53 -166 q-14 -44 -55 -159q-22 -63 -56 -140q-13 -29 -43 -53q-18 -14 -46 -14q-19 0 -42 6l-67 31q-8 5 -31 14q-18 7 -25 14q-17 4 -57 25q-33 17 -45 59l-25 88q-15 53 -24 117q-29 -60 -43 -125q-15 -71 -49 -149q-9 -25 -19 -41q-10 -17 -18 -17q-7 0 -43 4q-24 3 -37 7 q-4 0 -4 2l-90 30q-1 0 -4 1.5t-9.5 4t-13.5 5.5q-27 9 -33 18q-24 17 -41 37q-19 22 -22 49q-14 82 -19 119q-9 67 -18 141q-1 8 -8 65.5t-11 88.5q-9 80 -12 155q0 7 -4 43t-4 60z" />
<glyph unicode="x" horiz-adv-x="966" d="M6 182q0 16 6 25q37 62 97 143q67 90 98 129q-8 16 -21.5 44.5t-25 51.5l-21.5 43q-16 31 -57 121q-10 20 -10 47q0 31 14 48q15 20 53 45q44 28 80 43q49 20 84 28q20 4 36.5 4t29.5 -4q20 -7 34 -32q18 -33 31 -70q26 -75 31 -92q3 -9 14 -45t17 -56q46 88 84 146 q50 78 69 102q8 11 35 21q24 9 41 2q23 -6 43 -21q27 -19 43 -33q35 -30 41 -36q15 -15 35 -31q7 -5 18 -19q10 -13 15 -26q6 -15 6 -31t-8 -24l8 -23q-62 -86 -95 -129q-8 -10 -42 -55t-52 -68q10 -21 56 -111q15 -29 55 -98q10 -20 10 -45q0 -28 -14 -45q-15 -21 -45 -45 q-42 -34 -64 -47q-45 -28 -67 -37q-32 -14 -58 -14q-16 0 -37 24q-24 28 -43 64q-26 51 -43 90q-39 91 -43 102q-55 -93 -86 -141q-50 -78 -69 -102q-8 -11 -35 -21q-24 -9 -41 -2q-35 13 -88 45q-51 31 -80 57q-7 5 -18 19q-7 10 -15 29q-6 15 -6 30z" />
<glyph unicode="y" horiz-adv-x="1083" d="M-2 770q0 29 2 43q2 16 10 43q5 17 17 33q24 24 55 35q38 13 74 16q54 4 80 4q50 0 73 2h29q13 0 37 -4q19 -3 31 -12t12 -27q3 -91 6 -168q2 -58 10 -141q5 -53 19 -125q11 -59 30 -119q54 141 82 201q62 135 80 170q38 75 68 127q29 50 49 74l24 24q16 16 35 19 q25 6 56 0q27 -6 59 -23q35 -19 53 -33q40 -30 47 -35q12 -9 27 -24t18 -37q3 -27 -6 -57t-24 -51q-41 -61 -93 -160q-44 -85 -98 -205q-47 -106 -98 -229q-36 -88 -92 -234q-29 -76 -76 -215q-33 -96 -55 -178q-3 -16 -15 -31q-13 -16 -26 -24q-18 -11 -37 -11 q-22 0 -49 15l-191 98q-20 9 -33 31q-13 23 -16 47q-3 25 0 49q3 26 6 37q19 53 62 158q45 111 86 200l-4 -2q-25 -2 -62 -2q-25 0 -43 12q-15 10 -33 35q-14 19 -30 60q-58 141 -93 282q-32 131 -61 295q-2 10 -2 37z" />
<glyph unicode="z" horiz-adv-x="948" d="M-16 340q3 15 12 27t51 32q17 8 50.5 26t45.5 24q71 37 109 55q100 49 110 53t46 20t53 23q11 5 10 6q-15 0 -31 2h-14h-8q-94 4 -133 4q-78 0 -109 -2q-6 -1 -12 -1q-28 0 -49 24q-7 7 -21 35q-10 20 -24 55q-4 10 -12.5 30.5t-12.5 30.5q-8 20 -18 50q-10 26 -4 59 q6 35 28 41q30 9 74 12q43 3 102 6q78 4 142 4h200q59 0 111 -8q59 -9 80 -18q17 -10 37 -49q21 -41 39 -90q24 -66 34 -97q11 -35 25 -67v-6q9 -15 6 -33t-18 -27q-34 -19 -82 -37q-115 -43 -119 -45q-8 -3 -56.5 -21.5t-74.5 -27.5q-53 -19 -119 -49q-16 -9 -18 -14 q-2 -3 7 -5l23 -2l5 -2h106q35 0 55 -2q7 -1 19.5 -2t22.5 -2t18 -2q34 -4 49 -8q23 -6 31 -12q15 -9 36 -43q23 -37 39 -74q32 -73 35 -80q7 -20 25 -61q3 -14 -19 -39t-49 -25q-67 0 -149 6q-136 10 -168 11q-114 4 -166 4q-80 0 -144 -9l-18 5q-6 -1 -12 -1q-28 0 -49 23 q-6 6 -27 41q-19 32 -37 72q-5 12 -37 78q-19 39 -24 55q-12 24 -2 47z" />
<glyph unicode="{" horiz-adv-x="782" d="M0 618q3 35 29 48t41 16q34 3 55 12q20 9 37 29q16 20 28 53q25 71 29 86q6 86 19 221q8 89 22 131q28 79 68 134q41 57 61 65l14 6h3q4 0 6 2q42 21 65 29q35 12 84 6q54 -6 82 -20q34 -17 49 -27q15 -9 31 -35q21 -33 29 -57q10 -30 20 -70q9 -37 6 -69q0 -19 -8 -35 q-10 -20 -25 -17q-30 3 -36 19q-6 15 -27 18l-8 -14v-2q-47 9 -68 -21q-25 -36 -37 -63q-8 -18 -14 -64q-4 -32 -8 -88q-1 -15 -6 -88q-3 -40 -13 -67q-10 -37 -18 -62q-9 -28 -25 -53q-18 -29 -36 -47q-24 -24 -58 -43q62 -25 84 -57q25 -36 31 -80q3 -22 0 -41 q-4 -26 -8 -37q-6 -18 -9 -39t0 -49v-60q0 -12 5 -84q3 -37 16 -79q12 -37 37 -43q9 -3 20 0q4 1 12.5 3t12.5 3q8 2 24 2q13 0 21 -8l4 -5l4 3q2 -5 6 -11q21 -35 23 -39q12 -24 24 -51q17 -39 23 -61q9 -35 12 -68q0 -11 -18 -26t-33 -21q-45 -17 -92 -22q-57 -7 -135 2 l-4 -2q-49 9 -84 30q-36 22 -60 49q-25 28 -43 58q-17 28 -37 55q-5 7 -12 29q-2 6 -12 41q-4 13 -8 43q-1 5 -2 12.5t-2 12.5t-1 9q-6 24 -6 56v65v66q0 31 -6 55q-7 28 -8 31q-9 27 -14 37q-7 14 -25 32q-16 16 -37 19q-14 3 -28 12q-16 10 -19 41q-3 33 -27 80 q-23 45 -20 104zM676 1161h2h-2z" />
<glyph unicode="|" horiz-adv-x="679" d="M98 186q0 98 8 207q9 129 21 262q2 28 29 283q14 137 30 266q2 18 29 209q11 79 23 115q2 12 16 26q13 13 37 13q25 0 59 -6q12 -2 34.5 -6.5t33.5 -6.5q28 -5 65 -16q9 -3 26 -7.5t23 -6.5q21 -9 35 -23q11 -11 8 -37h-4q-14 -85 -22 -155q-12 -102 -27 -228t-30 -270 q-17 -166 -25 -289q-12 -194 -16 -283q-7 -161 -7 -256q0 -43 -45 -43q-49 0 -92 21q-41 20 -80 51q-26 21 -63 62q-11 12 -27.5 31.5t-17.5 21.5q-21 35 -21 65z" />
<glyph unicode="}" horiz-adv-x="864" d="M0 -25q0 15 10 35t25 17q31 -3 37 -19q6 -15 28 -18h6l-4 2l4 -12q48 -12 68 20q26 43 37 68q9 21 12 65q5 73 6 88q1 16 3.5 45.5t3.5 42.5q3 44 12 68q8 32 18 61q10 30 25 54q17 27 37 47q23 23 59 43q-57 24 -82 59q-25 36 -31 80q-3 22 0 41q1 6 3.5 18.5t3.5 18.5 t6 41q3 21 0 49v59q0 40 -6 84q-5 36 -19 80q-12 37 -37 43q-9 3 -20 0q-4 -1 -12.5 -3t-12.5 -3q-8 -2 -24 -2q-11 0 -21 10q-2 0 -6 4l-2 -2q-2 4 -4 10q-3 5 -11.5 18t-13.5 21q-7 11 -26 54q-17 39 -23 61q-9 35 -12 68q0 11 18 26t33 21q45 17 92 22q57 7 135 -2 q0 2 4 2q49 -9 84 -30q34 -21 60 -50q27 -30 43 -57q17 -28 37 -55q1 -2 4.5 -11t5.5 -16q2 -6 12 -41q8 -27 10 -43q1 -5 2 -12.5t2 -12t1 -8.5q6 -24 6 -55v-65v-66q0 -31 6 -55q1 -4 10 -31t14 -37q8 -16 25 -33q15 -15 37 -18q15 -4 29 -12q15 -9 18 -39q2 -29 29 -80 q23 -45 20 -105q-3 -33 -26 -45q-19 -10 -41 -14q-35 -3 -56 -12q-20 -8 -39 -31q-18 -21 -30 -55q-25 -71 -29 -86q-9 -131 -18 -219q-8 -84 -19 -129q-29 -82 -67 -134q-41 -56 -62 -65l-12 -4q-6 -3 -30.5 -14t-39.5 -17q-35 -14 -88 -8q-54 6 -82 20q-34 17 -49 27 q-15 9 -31 35q-17 27 -28 59q-14 39 -21 70q-9 37 -6 69zM104 -20z" />
<glyph unicode="~" horiz-adv-x="1005" d="M43 602q0 27 16 49q15 21 25 31q17 17 31 29q21 18 53 34q38 19 72 29q36 11 86 14q37 3 71 -6q18 -5 72 -22q42 -13 76 -21q41 -9 90 -6q37 3 55 12q17 8 35 23q4 3 9.5 7t9 7t6.5 6q11 11 28 11v-15q30 3 51 -18q1 -1 25 -29q31 -36 41 -49q6 -8 20.5 -25t20.5 -26 q20 -26 22 -33q10 -25 0 -35q-6 -6 -18 -22q-35 -41 -100 -74q-66 -34 -129 -37q-53 -3 -99 6q-24 5 -86 23q-57 17 -80 22q-43 10 -81 7q-43 -3 -70 -27t-49 -27q-24 -3 -35 2q-7 3 -25 17q-8 5 -39 28t-49 39t-39 41q-16 19 -16 35z" />
<glyph unicode="&#xa2;" horiz-adv-x="876" d="M14 412q0 118 27 209q27 90 74 159q48 70 110 109q65 41 140 53q4 22 28 145q6 29 19 89q2 12 16 26q12 12 37 12q49 0 86 -12q43 -14 76 -26q23 -10 35 -25q11 -14 8 -41l-58 -192l52 -13q6 -4 47 -20q30 -12 51 -39q20 -25 26 -74q6 -46 -24 -119q-21 -73 -55 -131 t-95 -73q-47 3 -69 14q-26 13 -41 22q-6 6 -17 25q-13 22 -4 68q6 35 -2 49q-9 15 -20 18q-12 3 -29 -4q-15 -6 -24 -12q-11 -7 -29 -54q-20 -51 -17 -163q3 -61 25 -97q20 -34 33 -43q15 -12 41 -6q20 5 55 19q28 11 64 30q5 3 28 15t35 18q43 15 59 17q26 3 50 -37 q19 -30 24 -37q11 -14 19 -39q9 -27 6 -55q-3 -29 -21 -50q-47 -44 -112 -86q-64 -41 -179 -63q-2 -17 -6 -52t-6 -52q-6 -52 -6 -99q0 -43 -45 -43q-70 0 -117 41q-46 40 -80 86q-20 33 -20 66v43q0 17 4 53q-22 11 -27 14q-12 7 -45 37q-29 26 -57 74q-29 51 -49 108 q-21 62 -21 138z" />
<glyph unicode="&#xa3;" horiz-adv-x="1169" d="M-66 317q0 15 17 35q16 19 31 19q35 -2 145 -2q129 0 203 2q-69 24 -105 84q-3 3 -6 22q-4 24 -4 43v47q0 25 2 31l6 61q-10 -2 -26 -2h-21q-40 -3 -61 15q-24 20 -31 30q-21 21 -57 66q-31 39 -31 70q0 26 16 45q15 18 25 18q29 -3 96 4q61 6 135 15q5 25 23 92 q22 78 22 80q0 1 0.5 2.5t1.5 5t2 6.5q10 35 43 92q29 51 74 102q46 52 98 93t127 63q59 15 117 12q54 -3 115 -16q50 -11 102 -31q62 -24 78 -32q34 -15 37 -97q3 -83 -51 -194q-14 -17 -31 -27q-14 -8 -43 -2q-12 2 -27 10q-20 10 -47 17q-31 9 -37 30q-9 30 -14 41 q-9 15 -43 33q-33 17 -80 2q-70 -24 -100 -160q-2 -14 -6 -38q-3 -18 -6 -39q81 9 100 10q47 3 74 0q26 6 51 -23q2 -2 18 -22q10 -13 25 -35q10 -15 24 -43q12 -24 15 -45q3 -28 -8 -39q-10 -10 -29 -14l-123 -13q-90 -10 -180 -18q-14 -109 -17 -150q-2 -31 -8 -97.5 t-8 -86.5q113 3 221 6q101 3 154 6l-4 -14q21 3 33 -6q15 -11 28 -19q19 -13 43 -47q37 -53 49 -75q7 -12 23 -39.5t24 -42.5q27 -52 29 -58q10 -26 4 -43q-6 -18 -28 -24q-29 -9 -121 -15q-65 -4 -209 -8q-120 -3 -252 -6q-165 -4 -248 -8q-57 -3 -100 2q-46 6 -70 16 q-15 9 -49 49q-25 30 -68 91q-29 41 -57 96q-25 48 -25 67z" />
<glyph unicode="&#xa5;" horiz-adv-x="1187" d="M-2 1405q-3 32 18 53q17 17 56 17t88 -9q62 -11 98 -20q17 -4 80 -23q25 -9 59 -55q24 -33 70 -115q31 -56 70 -149q29 -69 61 -160q11 23 33 69.5t33 69.5q63 134 67 142q45 88 68 127q34 57 61 92q10 14 41 29t53 6q52 -20 119 -74q63 -51 107 -141q9 -22 6 -54 q-3 -29 -19 -55q-3 -4 -12 -17t-20.5 -29.5t-24.5 -33.5q-61 -81 -98 -129q-15 -19 -53.5 -68.5l-59.5 -76.5q-87 -109 -100 -125l-8 -80l106 -6q26 6 51 -23q3 -4 9.5 -11t15.5 -16.5t16 -17.5q29 -32 29 -76q0 -27 -12 -30t-27 0l-199 -8q-2 -10 -2 -27v-29l121 -6l-8 -16 q26 6 51 -23q8 -10 41 -43q29 -29 29 -74q0 -27 -13 -30q-12 -3 -26 0h-211l-4 -127q-3 -24 -8 -33q-6 -11 -29 -8q-47 3 -105 16q-44 10 -98 31q-28 11 -82 41q-35 20 -55 43q-21 21 -21 61q-21 3 -36 6q-10 2 -25 7q-30 3 -57 16q-26 13 -35 25q-8 10 -21.5 29t-17.5 24 q-18 24 -18 41q0 27 16 43q15 15 24 12l28 -3q27 -3 46 -5q33 -4 98 -8v28q0 14 3 29l-68 12q-28 2 -57 17q-25 12 -33 26q-13 23 -25 35t-18 21q-8 12 -10 18q-4 12 -4 25q0 27 16 43q15 15 24 12q11 -1 39 -4.5t41 -5.5q79 -10 107 -11v31q0 11 4 31q-12 21 -40.5 71.5 t-45.5 79.5t-50 89.5t-50 89.5q-53 92 -99 180q-25 47 -80 160q-15 27 -18 57z" />
<glyph unicode="&#xa8;" horiz-adv-x="847" d="M57 1305q0 43 17 77q14 28 24 66q3 9 23 29q18 18 39 18q40 0 86 -6q45 -6 86 -33q15 -9 30 -33q16 -25 13 -45l-8 4q-9 -36 -15 -55q-1 -3 -8 -31q-2 -8 -6 -20l-8 -31q-6 -14 -23 -35q-15 -18 -35 -18q-78 0 -125 12q-46 12 -73 49q-17 24 -17 52zM459 1309q0 45 16 77 q16 33 25 66q4 10 22 29q18 18 39 18q39 0 86 -6q45 -6 86 -33q17 -10 31 -33q15 -24 12 -45l-8 4q-11 -46 -14 -55q-5 -15 -9 -31q-2 -8 -6 -20l-8 -31q-7 -17 -22 -35t-35 -18q-78 0 -125 12q-48 12 -74 49q-16 22 -16 52z" />
<glyph unicode="&#xa9;" horiz-adv-x="1474" d="M57 666q0 186 49 323q50 141 123 234t166 147q94 54 176 66q53 6 111 12t117 6q40 0 110 -4q51 -3 92 -12q73 -17 152 -43q76 -25 133 -82q58 -58 92 -162q35 -106 29 -287q-4 -63 -14 -137q-13 -94 -45 -188q-37 -109 -88 -203q-53 -97 -142 -180q-15 -22 -37 -37 q-18 -13 -47 -31l-10 -6l-2 -8q-77 -41 -164 -56q-91 -16 -139 -16q-61 0 -129 12q-59 10 -129 31q-54 16 -111 47q-46 25 -69 55q-38 48 -74 84t-74 97q-34 54 -55 135q-21 79 -21 203zM285 631q0 -176 104 -283q39 -42 135 -63q99 -22 213 -19v-2q9 0 45 4l54 6 q10 1 49 11q24 6 39 12v2q58 34 104 107t76 155q32 88 49 160q18 77 21 117q9 140 -25 219q-35 82 -94 123q-61 43 -137 55q-85 13 -150 16q-238 9 -360 -137q-123 -147 -123 -483zM410 676q0 86 22 166q20 72 60 135q37 58 86 92t104 37q68 3 115 -6q18 -3 49.5 -10 l40.5 -9q3 -1 15.5 -7t21.5 -11q20 -10 45 -35q21 -21 30 -55q9 -33 -10 -84q-11 -49 -20 -72q-12 -30 -27 -57q-6 -10 -20 -15q-15 -6 -31 -6h-31q-18 0 -24 2q-42 9 -52 31q-8 19 4 55l-14 -8q3 26 -14 29q-18 3 -39 -12q-1 0 -5 -5t-7 -8q-12 -11 -19 -24 q-10 -17 -16 -37q-6 -21 -6 -53q3 -41 12 -56t37 -18q23 -3 61 4q29 5 62 16q24 9 41 9q14 0 28 -17q14 -16 21 -31q2 -5 8 -14l8 -12q9 -34 -18 -68q-10 -23 -27 -43q-21 -24 -43 -41q-25 -19 -57 -30q-35 -12 -74 -15q-138 -3 -227 68q-90 72 -90 215z" />
<glyph unicode="&#xab;" horiz-adv-x="1132" d="M43 492q-3 15 6 36q9 22 25 50l6 8l-6 12q61 106 114 188q59 91 123 172q17 20 41 29q26 10 49 -2q14 -6 37 -22q26 -18 47 -37q16 -14 45 -43q27 -27 35 -37q10 -17 13 -43q3 -27 -19 -58q-12 -18 -74 -100q-10 -13 -92 -127q47 -74 99 -147q59 -83 86 -119 q21 -30 18 -57q-3 -28 -12 -43q-14 -18 -39 -37q-13 -10 -60 -43q-29 -20 -59 -37l-43 -25q-12 -6 -25 -6q-12 0 -24 6q-14 7 -23 13q-6 4 -12 10q-69 75 -125 178q-47 86 -113 215q-8 17 -12 35q-1 5 -3 15.5t-3 15.5zM528 504q-3 14 7 37q11 25 24 49l6 8l4 -12 q39 76 49 98q8 17 23.5 47t20.5 41q12 25 47 84q23 38 59 84q17 20 41 29q26 10 49 -2q12 -5 39 -25q15 -11 49 -41q32 -28 49 -45q29 -29 37 -39q9 -15 12 -43q3 -27 -18 -57q-45 -60 -86 -111q-44 -54 -98 -129q44 -59 92 -110q39 -41 88 -105q21 -30 18 -61 q-3 -30 -12 -45q-12 -15 -33 -33q-7 -6 -21.5 -18.5t-21.5 -18.5q-16 -14 -43 -33q-16 -11 -37 -24q-12 -6 -30 -6q-19 0 -37 6q-26 9 -35 14q-14 8 -25 23q-42 72 -59 102q-44 80 -47 86q-7 14 -21.5 42.5t-21.5 43.5q-7 14 -23.5 46.5t-25.5 51.5q-8 17 -12 35 q-1 5 -3.5 15.5t-3.5 15.5z" />
<glyph unicode="&#xad;" d="M43 672q0 27 16 43t25 16q52 0 147 6q15 1 197 17q54 5 195 14q84 6 139 2v-6q26 6 51 -23q7 -7 16 -28q12 -29 19 -51q11 -36 16 -62q6 -30 6 -51q0 -29 -9.5 -42.5t-29.5 -12.5q-47 3 -135 0q-23 -1 -184 -11q-119 -8 -178 -14q-82 -9 -123 -12q-40 -3 -61 12 q-22 15 -31 31q-32 55 -51 92q-25 48 -25 80z" />
<glyph unicode="&#xae;" horiz-adv-x="1638" d="M57 670q0 184 56 323q57 143 137 234q84 96 180 147q103 54 182 66q52 6 111 12t117 6q40 0 110 -4q51 -3 92 -12q68 -16 172 -49q94 -30 177 -97q79 -64 135 -176q55 -110 49 -293q-3 -48 -21 -131q-19 -89 -57 -174q-45 -101 -100 -186q-62 -95 -148 -172v-2 q-32 -40 -88 -66l-14 -8l-10 -4q-56 -24 -105 -37q-56 -15 -108 -24q-62 -11 -99 -13q-62 -4 -73 -4q-62 0 -127 12q-53 10 -123 35q-39 14 -107 47q-43 21 -76 50q-49 44 -96 90q-48 48 -84 104q-38 59 -59 139q-23 87 -23 187zM315 635q0 -175 105 -283q25 -25 57 -43 q54 -30 82 -41q49 -19 100 -30q55 -12 113 -9l-6 4q5 0 12 1t17 2t16 2q45 5 53 6q18 2 49 10q24 6 39 12v2q95 54 152 135q55 78 92 166q33 78 49 158q16 81 19 115q9 142 -33 219q-43 79 -115 123q-70 43 -155 55q-84 12 -160 18q-80 7 -158 -26q-83 -35 -156 -111 q-72 -75 -122 -196t-50 -289zM496 459q-3 9 0 18q6 35 18 109q9 56 18 108q1 7 19 99q3 13 14 79l-39 117l-12 -2q-9 26 4 39q10 10 37 25q23 13 66 30q37 15 84 27t88 12q51 0 98 -12q39 -10 80 -35q31 -19 55 -53q23 -33 23 -72q0 -69 -33 -131q-34 -64 -86 -104 q10 -30 24 -58q5 -11 15 -29.5t14 -25.5q5 -10 25 -45q12 -21 22 -31q13 -13 10 -24q-3 -12 -12 -27q-5 -7 -24 -20q-18 -12 -39 -21q-12 -5 -43 -14q-21 -6 -37 -6t-31 24q-18 29 -29 60q-13 38 -24 77q-5 17 -14.5 49t-10.5 35q-28 -3 -43 -6q-12 -2 -26 -2 q-10 -46 -15 -94q-4 -38 -8 -117q-3 -18 -25 -18h-94q-42 0 -63 24q-3 6 -6 15zM729 784q42 3 78 31q35 27 35 80q0 15 -13 31t-36 16q-13 0 -25 -6q-2 -1 -27 -16q16 -16 13 -43l-4 6q-3 -26 -9 -49q-2 -8 -6 -25t-6 -25z" />
<glyph unicode="&#xb4;" horiz-adv-x="571" d="M66 1133q3 21 12 24q7 10 25.5 35t29.5 41q10 14 31 42.5t31 43.5q17 24 61 84q29 40 61 65h2q20 17 54 11q8 0 24 -13q25 -20 35 -30q25 -25 37 -39q21 -24 31 -37q15 -21 12 -37t-12 -25q-29 -29 -64 -57q-42 -34 -74 -63q-9 -8 -32.5 -30t-34.5 -32q-31 -28 -49 -49 q-27 -27 -51 -27q-19 0 -39 4q-27 11 -33 13q-14 3 -19 6q-4 2 -12 10l-14 17q-15 21 -12 43z" />
<glyph unicode="&#xb8;" horiz-adv-x="530" d="M4 -539q-6 6 10 25l66 113q16 16 18 16q4 0 25 -12q13 -7 55 -33q34 -21 51 -21q35 0 60 25q24 24 24 57q0 34 -22 47q-6 3 -12.5 7t-10.5 6.5t-6 3.5q-18 3 -39 -12q-20 -16 -30 -19q-13 -3 -31 6q-19 11 -43 35t-43 35q-19 10 -19 22q0 14 9 35l2 -6q8 20 23.5 55.5 t19.5 44.5q23 55 63 103h211q-6 -6 -20 -27q-11 -17 -25 -41l-21 -43q-7 -17 -16 -30q229 -12 229 -220q0 -63 -24 -116q-22 -48 -62 -88q-37 -37 -86 -58q-47 -20 -98 -20q-84 0 -139 24t-98 64q-6 6 -13 13.5t-8 8.5z" />
<glyph unicode="&#xbb;" horiz-adv-x="1132" d="M31 186q-3 30 18 60q36 49 86 110q44 54 98 129q-47 64 -92 111q-43 45 -88 104q-21 30 -18 62t12 47q12 15 33 33q7 6 21.5 18.5t21.5 18.5q9 8 43 32q24 17 37 25q12 6 30 6q19 0 37 -6q26 -9 35 -14q17 -10 25 -21q8 -14 21 -35t22 -36.5t16 -28.5q44 -80 47 -86 q7 -15 21.5 -43.5t21.5 -42.5q7 -15 23.5 -48l25.5 -51q11 -22 13 -32q1 -5 3 -15.5t3 -15.5q3 -15 -6 -39q-8 -22 -25 -49l-4 -8h-6q-35 -68 -49 -99q-8 -18 -23.5 -49.5t-19.5 -38.5q-7 -15 -47 -82q-20 -33 -60 -84q-15 -18 -41 -28t-49 2q-15 6 -39 24t-49 43 q-33 33 -49 47q-25 22 -37 37q-9 15 -12 43zM487 778q3 26 13 43q11 14 41 37q22 17 59 43q29 20 59 37l43 25q12 6 25 6t25 -6q10 -5 22 -13q6 -4 12 -10q74 -80 127 -178q82 -151 115 -215q9 -18 12 -33q1 -5 3.5 -15.5t3.5 -15.5q3 -13 -7 -39t-24 -49l-4 -8l-8 -16 q-64 -111 -113 -187q-59 -91 -123 -172q-15 -18 -41 -28t-49 2q-17 7 -37 24q-30 26 -45 37q-16 12 -45 41q-17 17 -33 37q-9 15 -12 43q-3 29 18 59q17 24 74 99q9 13 92 127q-67 102 -98 145q-12 17 -42.5 60t-43.5 61q-22 32 -19 59z" />
<glyph unicode="&#x2c6;" horiz-adv-x="813" d="M63 1130q3 22 13 25q51 61 114 121q68 64 123 129q8 8 31 18q24 10 45 13q32 4 49 4q23 0 39 -13l-12 -4q19 -19 59 -51q41 -33 78 -67q40 -37 74 -74q36 -39 53 -72q1 -2 4.5 -10.5t5.5 -15.5q6 -18 -10 -41q-19 -22 -37 -25q-22 -4 -59 -20q-25 -5 -39 -5q-24 0 -51 27 l-58 72q-8 10 -73 98q-12 -18 -37 -49q-13 -17 -43 -51q-7 -8 -21 -23t-20 -22q-12 -14 -29 -31q-27 -27 -51 -27q-19 0 -39 4q-47 21 -59 23q-19 3 -37 24q-16 22 -13 43z" />
<glyph unicode="&#x2da;" horiz-adv-x="612" d="M61 1169q0 130 64 197q65 68 162 68l-8 2q44 0 98 -13q44 -11 86 -41q38 -27 59 -71q23 -48 23 -103q0 -129 -64 -196q-65 -68 -162 -68q-51 0 -98 12q-39 10 -82 41q-34 25 -57 72q-21 43 -21 100zM211 1184q0 -84 88 -84q34 0 59 28t25 74q0 34 -27 55q-29 22 -63 25 h-4q-28 3 -53 -25t-25 -73z" />
<glyph unicode="&#x2dc;" horiz-adv-x="843" d="M57 1229q0 23 15 41q20 24 24 28q5 7 15.5 21.5t15.5 21.5q17 24 37 41q23 20 51 31q27 11 72 14q40 3 67 -12q23 -13 49 -35q9 -8 43 -32q22 -16 50 -13q12 2 30 17q15 12 31 28l31 31q18 18 30 23l5 -9q27 3 45 -18q7 -7 22 -25q27 -33 35 -43q5 -7 17.5 -22t17.5 -23 q15 -21 18 -30q10 -23 0 -29q-9 -6 -18 -18q-18 -29 -39 -50q-27 -27 -51 -43q-23 -15 -56 -30q-29 -13 -55 -13q-41 -3 -80 11q-35 12 -57 26q-40 25 -43 27q-20 13 -41 10q-18 -3 -33 -12q-7 -5 -26 -23l-23 -22q-10 -10 -18 -13q-23 -3 -31 2q-12 8 -19 15q-15 9 -36 24 q-27 19 -43 33q-22 18 -37 37q-15 18 -15 33z" />
<glyph unicode="&#x401;" horiz-adv-x="1124" d="M72 248q8 224 41 448q30 205 71 357q0 4 2 6l-6 6q-8 8 -18 31q-12 28 -19 49q-15 45 -18 53q-4 9 -8.5 25t-5.5 18q-6 11 -2 29q2 10 10 30q7 16 16 29q10 13 19 19q57 47 141 77q100 35 190 48q116 17 222 22q117 6 233 6q57 0 96 -8q46 -10 62 -20q19 -13 22 -46 q3 -34 0 -73q-3 -38 -12 -76q-8 -34 -18 -57q-3 -14 -25 -33t-37 -19h-166q-100 0 -147 -2q-90 -4 -135 -8q-56 -5 -125 -22q44 3 73 -13q21 -18 31 -30q12 -15 12 -37v-6v-7q-2 -12 -6 -34l-6 -33q-7 -40 -12 -74q103 17 188 25q93 9 166 -13q21 -6 27 -36q7 -34 4 -68 q-3 -36 -12 -74q-7 -29 -19 -57q-3 -15 -24 -33t-37 -18l14 -8q-79 0 -186 -7q-87 -6 -168 -28q-31 -209 -31 -211q0 -21 -2 -29t-2 -18q0 -8 10 -11q9 -3 31 0q67 17 123 25q86 12 127 16q62 6 114 9q35 2 84 2q13 0 41 -7q25 -6 31 -26q15 -40 18 -68t0 -49q-4 -26 -8 -39 q-5 -15 -12 -43q-11 -43 -31 -63q-21 -22 -39 -29q-23 -13 -57 -16q-46 -4 -82 -6q-12 -1 -45.5 -3.5t-52.5 -3.5q-53 -3 -105 -12q-82 -13 -147 -16q-78 -3 -141 8q-68 12 -123 39q-53 26 -95 74l-8 12q-5 7 -8 20q-5 20 -6 23l-4 12q-2 9 -6 35q-2 14 -2 37zM289 1739 q0 46 16 78q17 34 25 65q4 10 22 29q18 18 39 18q39 0 86 -6q45 -6 86 -33q18 -11 31 -32q15 -24 12 -46l-8 5q-12 -50 -14 -56q-6 -18 -9 -30t-6 -21l-8 -31q-6 -15 -22 -34t-35 -19q-78 0 -125 12t-74 50q-16 22 -16 51zM707 1735q0 45 16 77q16 33 25 66q4 10 22 29 q18 18 39 18q39 0 86 -6q45 -6 86 -33q17 -10 31 -33q15 -24 12 -45l-8 4q-9 -36 -15 -55q-1 -3 -8 -31q-2 -8 -6 -20l-8 -31q-6 -14 -23 -35q-15 -18 -34 -18q-78 0 -125 12q-48 12 -74 49q-16 22 -16 52z" />
<glyph unicode="&#x402;" horiz-adv-x="1380" d="M-70 1333q-3 27 15 45q20 20 41 23q40 6 129 12q87 6 200 12q130 7 238 7q107 0 244 -7q26 -3 69 -6q33 -2 90 -10q36 -5 80 -12q36 -6 47 -13q21 -13 41 -30q32 -28 54 -56q33 -42 51 -75q24 -43 39 -93q3 -12 6 -30q3 -20 -2 -33q-6 -15 -19 -25q-11 -8 -36 -8 q-3 0 -9.5 0.5t-20 1.5t-26.5 2q-51 3 -112 6q-5 0 -62.5 3t-91.5 4q-57 2 -178 2q29 -10 41 -25q13 -16 16 -35t0 -41q-2 -14 -2 -43l-10 -155q34 17 49 22q18 6 35 6q20 0 28 -2t31 -2t56 -8q50 -12 79 -20q17 -5 45 -13.5t37 -11.5q35 -10 68 -25q47 -21 86 -75 q40 -55 37 -160q-3 -82 -37 -143q-34 -62 -78 -105q-42 -42 -84 -67q-43 -25 -53 -33q-31 -16 -39 -19q-40 -17 -74 -30q-53 -20 -76 -27q-38 -12 -49 -12q-32 4 -41 8q-11 5 -8 51q3 40 6 90t6 90q0 25 2 37q3 20 21 29q16 8 37 22t35 31q15 18 24 45t6 68q-3 28 -18 43 t-33 24q-29 16 -55 13q-19 -2 -68 -13q-7 -55 -14 -155q-6 -82 -12 -156q-3 -36 -13 -129q-4 -40 -10 -74q-3 -13 -16 -30q-13 -16 -51 -13q-2 0 -58 10q-15 3 -63 17q-28 8 -62 22q-35 14 -49 21q-28 13 -43 33q-14 20 -24 43q-10 24 -13 41q-3 18 0 30q6 89 15 162 q8 67 18 160q3 24 11 92t12 111q19 189 28 288q0 13 2 19q-14 1 -40 3t-40 3q-39 3 -73 0l-9 -14q-49 0 -86 12q-30 10 -61 29q-22 14 -39 34q-10 12 -20 27q-41 51 -62 88q-30 51 -35 92z" />
<glyph unicode="&#x403;" horiz-adv-x="952" d="M51 180q3 118 12 248q5 68 23 246q9 84 25 213q11 89 18 151q-28 34 -49 76q-26 51 -29 94q-3 25 4 45t25 29q64 33 96 47q69 30 129 47q81 23 160 37q92 16 188 19q12 0 62 4t78 4h73q30 0 54 -4q35 -6 59 -21q25 -16 22 -67q0 -27 -2 -50q-3 -30 -12 -69 q-9 -37 -24 -64q-14 -26 -39 -26h-25h-43q-51 0 -90 -2q-102 -5 -166 -7q-25 -3 -82 -12q-40 -6 -100 -22h10h10q36 -6 54 -21t24 -37q5 -19 2 -49q-1 -9 -6 -59l-18 -12q-9 -91 -21 -166q-9 -60 -24 -164q-12 -85 -21 -197q-7 -87 -14 -264q-3 -61 -13 -107q-9 -39 -49 -36 q-91 3 -166 43q-78 41 -114 86q-21 27 -21 67zM375 1604q3 21 12 24q7 10 25.5 35t29.5 41q10 15 31 43.5t31 42.5q17 24 61 84q28 38 62 65h2q20 17 53 11q9 0 25 -13q20 -16 34 -30q25 -25 37 -39q21 -25 31 -37q15 -21 12 -37t-12 -25q-29 -29 -64 -57t-73 -63 q-40 -37 -68 -62q-31 -28 -49 -49q-27 -27 -51 -27q-14 0 -39 5q-21 9 -33 12t-18 6t-13 10l-14 17q-15 21 -12 43z" />
<glyph unicode="&#x404;" horiz-adv-x="1183" d="M66 584q0 203 38 352q40 159 111 276q71 118 172 185q103 68 227 71q129 3 232 -14q106 -18 178 -59q21 -12 47 -25t47 -31q24 -21 35 -45q13 -29 10 -67q-4 -49 -8 -76q-6 -41 -18 -92q-12 -49 -33 -105q-20 -52 -62 -110q-2 -3 -14 -27q-9 -17 -29 -31q-20 -13 -51 -16 q-34 -3 -86 12q-75 15 -88 47q-12 29 10 99q16 52 13 98q-3 45 -19 86q-15 37 -43 62q-27 24 -61 24q-33 0 -56 -10q-19 -8 -30 -19q-20 -20 -58 -104q-35 -76 -63 -215q70 4 98 4q56 0 74 -2l-4 -12q26 6 51 -23q6 -6 16 -29q12 -29 19 -51q11 -38 16 -61q6 -30 6 -51 q0 -59 -38 -56q-40 3 -113 0q-105 -4 -156 -8v-39q0 -77 25 -125q23 -45 55 -67q30 -21 66 -27q34 -6 59 -6q32 0 74 25q33 20 92 65q18 15 43 49q27 37 61 64q38 30 68 35q35 6 61 -39l60 -154q14 -44 8 -88q-6 -41 -37 -80q-23 -30 -72 -82q-36 -38 -86 -69 q-56 -34 -116 -50q-67 -18 -160 -18q-127 0 -234 35q-104 34 -178 108q-71 71 -116 195q-43 119 -43 291z" />
<glyph unicode="&#x405;" horiz-adv-x="1103" d="M23 389q-3 65 10 84t30 25q21 6 48 -4q23 -8 49 -25q14 -9 49 -35q23 -17 41 -28q75 -40 131 -48q68 -10 94 -10q58 0 80 19q21 18 6 77l-8 -10q-9 39 -53 60q-54 26 -101 43q-42 15 -123 49q-64 27 -118 69t-92 111q-37 67 -37 168q0 117 49 215t127 170q76 70 172 111 q93 40 184 40q125 0 207 -24q95 -28 160 -57q56 -23 104 -74q46 -49 37 -113q-1 -8 -2 -21.5t-2 -25t-2 -22.5q-3 -36 -12 -80q-9 -41 -27 -92q-16 -44 -49 -105q-1 -1 -2.5 -4.5t-3.5 -7.5l-4 -8q-6 -15 -19 -31q-18 -23 -26 -29q-14 -12 -37 -18q-20 -6 -49 4 q-25 8 -62 18q-78 15 -90 54t8 104q27 97 6 143q-20 45 -73 45q-36 0 -68 -14q-29 -13 -61 -41q-27 -24 -45 -59q-19 -36 -19 -74q-3 -83 37 -129q41 -47 102 -74q66 -29 136 -49q72 -21 135 -59q60 -36 104 -99q43 -61 43 -170q0 -104 -33 -174q-37 -78 -88 -121 q-55 -46 -125 -67q-77 -23 -143 -23q-87 0 -160 13q-65 12 -121 34q-40 16 -90 48q-14 9 -38 26.5t-31 22.5q-38 27 -62 65q-30 48 -41 74q-16 39 -24 74q-8 33 -8 59z" />
<glyph unicode="&#x406;" horiz-adv-x="669" d="M57 186q0 86 9 203q14 179 20 246q3 37 29 262q14 126 30 242q6 44 17 115.5t12 74.5q11 73 23 109q3 14 12 26q10 13 35 13q19 0 73 -7l93 -12q59 -8 90 -14q39 -8 61 -19q24 -9 37 -22q11 -11 8 -37l2 6q-20 -117 -37 -242q-27 -198 -43 -337q-21 -186 -36 -383 q-15 -200 -15 -381q0 -43 -47 -43q-50 0 -106 12q-49 11 -105 31q-44 16 -86 43q-33 21 -55 47q-21 27 -21 67z" />
<glyph unicode="&#x407;" horiz-adv-x="669" d="M41 195q0 98 8 202q9 117 21 246q8 86 28 262q9 79 31 242q6 44 17 115.5t12 74.5q12 79 22 109q3 13 13 27q9 12 34 12q27 0 74 -6q16 -2 46 -6.5t46 -6.5q59 -8 90 -14q44 -9 62 -18q22 -8 37 -23q11 -11 8 -37l2 6q-21 -122 -37 -241q-27 -193 -43 -338 q-24 -212 -37 -383q-14 -186 -14 -381q0 -43 -47 -43q-52 0 -107 12q-46 10 -104 31q-44 16 -86 43q-35 22 -56 47q-20 26 -20 68zM63 1718q0 44 17 78q14 28 24 66q2 8 23 28q19 19 39 19q40 0 86 -6q45 -6 86 -33q17 -10 31 -33q15 -24 12 -45l-8 4q-9 -36 -15 -55 q-1 -3 -8 -31q-2 -8 -6 -20l-8 -31q-6 -14 -23 -35q-15 -18 -34 -18q-79 0 -125 12q-48 12 -74 49q-17 24 -17 51zM481 1714q0 44 17 78q14 28 24 66q2 8 23 28q19 19 39 19q32 0 86 -7q47 -6 86 -32q15 -9 30 -33q16 -25 13 -45l-8 4q-9 -36 -15 -55q-1 -3 -8 -31 q-2 -8 -6 -20l-8 -31q-6 -14 -23 -35q-15 -18 -35 -18q-78 0 -125 12q-46 12 -73 49q-17 24 -17 51z" />
<glyph unicode="&#x408;" horiz-adv-x="1239" d="M2 326q11 62 66 141q10 14 48.5 70.5t59.5 87.5q8 12 14 18q9 9 27 12q22 4 47 -2q28 -6 74 -24q77 -15 92 -49t0 -105q-21 -82 0 -106q23 -26 55 -29l-2 -4q46 0 74 22t43 56q18 41 25 73q3 14 9 40t9 40l64 391v3q3 35 11 108t11 107q16 163 23 294q3 43 47 43 q57 0 106 -8q55 -9 105 -24q43 -13 86 -37q35 -20 55 -43q21 -30 18 -68q-10 -123 -18 -215q-7 -93 -18 -215q-21 -279 -70 -450q-49 -173 -123 -267q-75 -97 -174 -133q-96 -35 -227 -51q-88 -9 -187 21q-98 30 -180 79q-81 48 -131 111q-48 60 -39 113z" />
<glyph unicode="&#x409;" horiz-adv-x="1781" d="M-39 182q0 14 27 49q46 59 67 86q35 46 76 132q39 83 68 178q35 116 53 213q26 139 35 233q-15 40 -21 55q-8 20 -24 66q-9 25 -21 66q-9 29 -12 55q-3 29 18 59q22 31 43 37q65 23 146 29q108 8 202 10h48q42 0 67 -2q37 -3 78 -6t78 -6h10q41 0 68 -2q41 -3 84 -9 q15 -2 82 -12q43 -6 61 -14q18 -4 23 -8q10 -7 16 -19q7 -15 10 -33q3 -20 0 -57l2 -27q-3 -21 -10.5 -76t-11.5 -89q-18 -138 -25 -209q33 11 62 16q38 7 79 4q204 -15 310 -110q105 -95 90 -261q-10 -94 -45 -172q-38 -82 -99 -153q-63 -72 -143 -123q-82 -52 -180 -76 q-113 -29 -199 -29h-10q-35 -3 -66 0q-29 3 -59 13l-33 8l-2 2q-37 14 -69 33l-50 30q-15 9 -36 43t-21 56q0 102 8 203q9 114 21 237q8 82 28 246q8 68 31 227q-62 6 -145 6q-35 0 -58 2q-34 3 -61 0q28 -9 49 -36q22 -28 25 -56q0 -1 -23 -190q-12 -99 -33 -207 q-20 -104 -51 -227q-26 -103 -78 -258q-22 -61 -57 -93t-70 -32q-108 0 -188 41q-85 43 -133 86q-31 25 -31 71zM1149 348q73 15 123 62q49 46 49 129q0 55 -25 94q-23 36 -59 39q-34 0 -61 -6l-2 2q-9 -76 -15 -156q-8 -103 -10 -164z" />
<glyph unicode="&#x40a;" horiz-adv-x="1816" d="M43 819q0 31 29 31h78q13 109 24 197q8 65 25 176q5 32 13 83l9 52q7 43 17 78q2 12 16 26q13 13 37 13q20 0 71 -7q44 -6 93 -12q59 -7 90 -14q35 -8 61 -19q24 -9 37 -22q11 -11 8 -37q-15 -75 -33 -209q-18 -132 -36 -291l247 17q5 39 14.5 112t10.5 78q9 65 25 166 q4 23 10.5 66t9.5 61q8 45 16 74q2 11 17 26q13 13 37 13q15 0 69 -7q15 -2 46 -6t46 -6q62 -8 91 -14q36 -7 63 -19q23 -10 35 -22q11 -11 8 -37l-31 -25q-13 -77 -30 -184q-18 -116 -33 -254q40 17 72 25q37 9 84 6q104 -6 176 -43q73 -37 116 -92q46 -58 60 -125 q14 -68 2 -144q-16 -93 -51 -172q-38 -86 -93 -159t-129 -129q-73 -55 -161 -82q-48 -11 -82 -13q-42 -3 -82 0q-2 -2 -12 -2q-47 0 -107 13q-53 11 -104 30q-44 16 -86 43q-35 22 -56 47q-20 26 -20 68q0 73 6 172q3 46 16 209q-73 -8 -116 -10q-41 -2 -127 -6 q-15 -226 -17 -260q-6 -129 -6 -252q0 -43 -47 -43q-51 0 -107 12q-46 10 -104 31q-44 16 -86 43q-33 21 -55 47q-21 27 -21 67q0 85 6 205q4 89 23 252q-32 43 -57 98t-25 80zM1180 344q63 26 108 84q43 55 43 131q0 57 -24 92q-24 34 -60 37l-2 -6h-18q-13 0 -19 -2 q-12 -108 -16 -166q-2 -27 -12 -170z" />
<glyph unicode="&#x40b;" horiz-adv-x="1458" d="M-80 1319q-3 26 10 45t35 22q120 18 129 19q120 16 203 25q114 12 240 18t243 0q16 -2 62 -2h73q28 0 68 -4q34 -3 41 -8q17 -10 41 -37q26 -29 49 -68q24 -41 45 -90q26 -60 37 -98q1 -4 6 -29q3 -16 0 -29q-4 -14 -14 -22q-11 -8 -37 -8q-3 0 -10 0.5t-20.5 1.5 t-24.5 2q-44 3 -111 6q-64 3 -154 6q-57 2 -180 2l33 -18q31 -17 53 -52q26 -40 31 -79q1 -5 10 -74q6 -41 -4 -103q81 38 117 48q52 15 92 12q17 0 64 -12q10 -3 92 -29q34 -11 84 -31q35 -14 39 -18q7 -4 21.5 -12.5t21.5 -12.5q23 -13 41 -37q20 -26 28 -69q9 -46 6 -123 q-3 -83 -6 -135q-4 -62 -8 -90q-2 -12 -12 -70q-3 -19 -19 -76q-3 -15 -16 -31q-11 -14 -37 -14q-85 -3 -158 31q-79 37 -114 63q-18 13 -33 35q-11 17 -8 43q18 119 24 191q6 76 4 110q-3 39 -16 55q-14 17 -37 23q-53 15 -94 -2q-47 -19 -84 -51q-24 -213 -31 -303 q-9 -125 -20 -166q-3 -14 -23 -31q-17 -14 -43 -14q-28 0 -55 8q-48 14 -62 20q-28 11 -59 25q-27 12 -47 22q-25 11 -45 31q-17 17 -27 41q-8 20 -12 41q-3 19 0 31q9 126 10 160q2 37 10 153q2 28 8 94t9 103q7 87 24 284v2q-63 -3 -141 -16q-79 -14 -123 -16h-24 q-27 -9 -43 -6t-25 12q-10 10 -16 22q-7 14 -13 23q-4 13 -18 35q-18 29 -31 61q-18 44 -30 80q-16 48 -19 80zM748 543q2 2 2 6z" />
<glyph unicode="&#x40c;" horiz-adv-x="1337" d="M57 829q0 31 31 31q10 -2 37 -2h43q0 2 25 197q13 100 24 172q4 28 12.5 73t10.5 60q8 51 16 78q3 14 12 26q10 13 35 13q20 0 74 -7q15 -2 46 -6t46 -6q59 -8 90 -14q38 -8 64 -19q21 -9 34 -22q12 -12 9 -37l8 -14q-15 -75 -33 -203q-23 -158 -37 -283l96 8 q13 26 39 80t35 72q67 136 80 162q40 80 78 147q13 24 32 59t25 46q8 14 25 24q15 9 37 0q22 -7 65 -28q27 -13 74 -43q2 -1 72 -50q26 -18 55 -43q37 -27 16 -67q-7 -17 -53 -88q-44 -67 -96 -150q-47 -73 -109 -166q-69 -103 -94 -135q24 -57 72 -135q43 -71 90 -135 q42 -59 90 -113q46 -52 70 -71q21 -18 18 -43q-3 -23 -25 -45q-47 -47 -55 -54q-38 -33 -74 -57q-42 -28 -80 -45q-43 -19 -73 -19q-40 0 -92 52q-52 51 -101 131q-45 72 -96 176q-46 94 -74 182l-94 -6q-12 -168 -16 -250q-6 -123 -6 -239q0 -43 -48 -43q-51 0 -106 12 q-49 11 -105 31q-44 16 -86 43q-33 21 -55 47q-20 26 -20 67q0 83 6 197q6 116 18 244q-32 55 -57 118q-25 64 -25 90zM662 1604q3 21 12 24q7 10 25.5 35t29.5 41q10 15 31 43.5t31 42.5q17 24 61 84q29 40 61 65h2q20 17 54 11q8 0 24 -13q25 -20 35 -30q25 -25 37 -39 q21 -25 31 -37q15 -21 12 -37t-12 -25q-29 -29 -64 -57q-42 -34 -74 -63q-9 -8 -32.5 -30t-34.5 -32q-31 -28 -49 -49q-27 -27 -51 -27q-14 0 -39 5q-21 9 -33 12q-14 4 -19 6q-4 2 -12 10l-14 17q-15 21 -12 43z" />
<glyph unicode="&#x40e;" horiz-adv-x="1153" d="M53 1233q-3 23 4 74q6 44 29 67q24 24 57 37q56 22 80 29q36 10 88 20q55 11 80 15q6 2 29 2q13 0 37 -4q16 -3 30 -13q14 -11 17 -28q32 -201 43 -334q10 -127 35 -275q41 115 86 217q63 141 86 189q50 103 73 141q35 58 56 80q3 3 11 11.5t13 13.5q15 15 35 18 q25 6 55 -6q36 -14 60 -33q9 -7 27.5 -21.5t27.5 -21.5q31 -25 49 -37q12 -9 27 -24t18 -37q3 -30 -8 -58q-12 -30 -24 -51q-73 -124 -134 -248q-86 -175 -145 -315q-57 -134 -131 -326q-63 -163 -92 -276q-3 -16 -15 -31q-13 -16 -26 -24q-18 -11 -37 -11q-22 0 -49 15 l-219 96q-20 9 -33 31q-14 25 -17 47q-3 24 0 49q2 18 7 37q11 35 47 117q51 115 65 147q-59 -6 -96 18q-38 24 -68 101q-54 129 -104 295q-47 156 -74 307zM356 1890q3 12 13 25q9 12 28 31l33 26l-2 2q24 18 49 2q24 -15 49 -43q16 -18 49 -51q24 -24 50 -24q40 0 90 20 q57 23 84 39q48 28 84 61t65 33q16 0 31 -18q14 -16 27 -43q7 -13 20 -49q4 -9 9.5 -23t6.5 -16q25 -54 13 -90t-60 -72q-61 -48 -133 -72q-74 -24 -149 -24q-120 0 -203 59q-84 59 -133 158q-13 26 -19 41q-6 14 -2 28z" />
<glyph unicode="&#x40f;" horiz-adv-x="1247" d="M61 166q4 41 29 219q22 161 37 287q18 155 33 332q14 164 14 356q0 23 12 41q13 19 37 22q103 15 183 -12q79 -27 114 -74q15 -25 23 -43q12 -27 12 -49q0 -82 -6 -196q-1 -20 -17 -238q-6 -82 -22 -246q-3 -33 -25 -229h47q36 0 54 2h41h55q41 0 59 2q36 4 50 6 q-3 1 -9.5 3t-9.5 3q-12 4 -16 6q-22 8 -37 23q-11 11 -8 37q35 345 43 424q26 267 37 534q3 23 18 41q16 19 37 19q106 0 190 -37q86 -37 123 -84q21 -27 21 -68q-2 -104 -13 -266q-7 -104 -22 -260q-7 -76 -25 -221q-15 -124 -18 -150v-4q18 -57 28 -104q15 -74 17 -99 q3 -29 -14 -55q-19 -28 -37 -37q-62 -32 -119 -43q-68 -13 -168 -16l-16 -230q-3 -22 -19 -41q-15 -18 -37 -18q-106 0 -190 37q-85 38 -123 84q-21 27 -21 67l9 105q-15 0 -19 2h-4q-23 0 -63 6q-13 2 -39.5 6t-40.5 6t-76 17q-34 8 -57 18q-21 9 -37 31t-13 92z" />
<glyph unicode="&#x410;" horiz-adv-x="1212" d="M-4 549q0 29 29 29q43 -3 108 0q21 94 66 241q43 140 77 234q40 109 84 202q44 91 84 150q8 11 19 18q8 5 31 2q15 -5 73 -20q42 -11 92 -27q0 26 3 35q3 16 12 25q10 10 31 10q9 0 63 -4q25 -2 80 -10q35 -5 76 -15q34 -8 57 -18q25 -9 35 -23q9 -12 12 -35 q3 -21 6 -100q1 -23 2.5 -53.5t4 -73.5t3.5 -72q4 -82 19 -272q9 -111 31 -321q15 -153 34 -283l12 -84l7 -41q6 -43 -41 -43q-30 0 -100 4q-39 2 -99 10q-41 5 -84 19q-38 12 -59 33q-15 12 -27 71q-10 47 -20 152q-11 -1 -52 -6t-65 -7q-43 -4 -125 -8q-9 -114 -6 -219 q0 -22 -8 -33q-9 -12 -31 -12q-43 0 -98 10q-38 7 -94 25q-41 13 -80 37q-32 19 -56 47l-8 -8q-13 16 -16 28q-4 16 -4 35q0 22 4 72q3 38 6 78q-15 27 -31 59t-28 62t-21 57q-8 24 -8 43zM512 596l170 12v-2q-6 76 -14 221q-6 112 -9 215q0 26 -16 29q-11 3 -20 -12 q-36 -114 -62 -225q-30 -132 -49 -238z" />
<glyph unicode="&#x411;" horiz-adv-x="1093" d="M61 233q3 98 13 238q7 89 22 227q8 75 29 201q5 32 13.5 81.5t11.5 66.5q-37 53 -52 79q-29 50 -37 86q-6 27 13 56q18 28 37 37q67 35 225 79q145 40 350 43q7 0 16.5 1t23 2t22.5 2q50 4 77 4h74q29 0 53 -4q37 -6 60 -21q24 -15 30 -68q3 -18 -4 -59q-5 -32 -22 -74 q-14 -34 -37 -61q-23 -26 -49 -23h-19h-32q-45 0 -82 -2q-57 -3 -162 -6q-31 -3 -86 -12q-30 -5 -103 -19h3q44 -9 67 -28q21 -18 12 -70l-26 -110q-19 -109 -19 -111q25 28 68 49q45 22 117 19q183 -9 286 -80q101 -70 86 -219q-9 -90 -30 -172q-20 -79 -66 -150 q-44 -69 -110 -117q-67 -49 -166 -73q-106 -25 -197 -25q-99 0 -158 20l-2 3q-70 14 -135 47q-59 30 -86 71q-8 14 -18 43q-11 33 -11 49zM436 330q79 15 139 61q62 47 62 135q0 30 -8 43q-10 17 -21 25q-12 9 -24 12q-8 2 -23 2q-35 0 -59 -12q-27 -14 -41 -33z" />
<glyph unicode="&#x412;" horiz-adv-x="1204" d="M68 1233q-18 56 10 78q22 19 67 43q59 32 123 53q78 26 164 43q89 18 184 18q46 0 117 -18q64 -16 139 -43q54 -19 123 -49q55 -24 70 -39q25 -21 41 -55q18 -38 18 -111q0 -68 -28 -135q-27 -63 -74 -117q-44 -49 -107 -88q-62 -38 -124 -55v-15q75 -11 114 -20 q40 -9 99 -29q34 -12 73 -35q30 -18 39 -36q12 -20 17 -43q6 -27 6 -74q0 -113 -49 -211q-48 -96 -132 -168q-82 -70 -194 -111t-240 -41q-133 0 -248 37t-174 111q-18 21 -18 63q0 81 6 189q3 61 16 225q3 35 23 238q7 73 29 225q-12 18 -27 45t-27 51q-13 26 -22 47 q-7 17 -12 31zM471 1110l49 -12q24 -11 35 -21q11 -11 8 -37h-4q-8 -50 -12 -79t-12 -91q33 9 65 31q27 19 55 47q21 22 39 53q15 27 15 56q0 40 -27 61t-76 21q-32 0 -67 -9q-42 -11 -68 -20zM494 334l38 -4q40 0 72 14q37 16 60 39q27 27 41 55q16 32 16 66q0 36 -31 55 q-32 19 -82 19q-29 0 -57 -7q-7 -2 -15 -3.5t-15.5 -2.5t-10.5 -2l-8 -114z" />
<glyph unicode="&#x413;" horiz-adv-x="952" d="M49 180q3 118 12 248q5 68 23 246q9 84 25 213q11 89 18 151q-28 34 -49 76q-26 51 -29 94q-3 25 4 45t25 29q64 33 96 47q69 30 129 47q81 23 160 37q92 16 188 19q12 0 62 4t78 4h73q30 0 54 -4q35 -6 59 -21q25 -16 22 -67q0 -27 -2 -50q-3 -30 -12 -69 q-9 -37 -24 -64q-14 -26 -39 -26h-25h-43q-51 0 -90 -2q-102 -5 -166 -7q-25 -3 -82 -12q-40 -6 -100 -22h10h10q35 -6 53 -21q19 -16 25 -37q5 -19 2 -49q-1 -9 -6 -59l-18 -12q-9 -91 -21 -166q-19 -120 -25 -164q-10 -68 -20 -197q-7 -87 -14 -264q-3 -61 -13 -107 q-9 -39 -49 -36q-91 3 -166 43q-78 41 -114 86q-21 27 -21 67z" />
<glyph unicode="&#x414;" horiz-adv-x="1310" d="M-74 -47q0 15 2 31q3 27 6 57q1 10 3.5 33.5t3.5 36.5q3 35 6 67q0 3 4 43q2 24 10 62q5 28 16 59q9 28 19 31q9 3 12 6l6 6q4 4 13 4h30h6q4 1 12.5 3t12.5 3q12 3 25 13q17 10 28 24q14 18 17 37h2q42 108 84 270q43 164 67 402q0 10 2 12q3 41 6 84q3 42 0 76 q-3 29 9 59q12 31 34 37q26 9 50 12q28 4 45 4h59q53 0 92 2h76h102q68 0 99 -2q46 -3 67 -6q33 -2 95 -10q48 -6 69 -14q4 -1 12.5 -3t12.5 -3q12 -3 22 -13q13 -13 17 -26q7 -21 4 -56q-2 -19 -25 -168q-22 -146 -31 -217q-16 -128 -30 -254q-15 -138 -27 -278h90 q33 0 53 -4q33 -6 54 -23q19 -16 16 -47l-14 -84q-11 -89 -37 -239q-23 -133 -31 -252q-3 -45 -51 -45q-53 0 -96 12q-34 9 -76 35q-36 22 -59 45q-25 25 -43 49q-23 30 -23 67l16 113h-315q-23 -3 -80 4q-53 6 -98 6q-33 0 -43 -16q-9 -15 -15 -61l-22 -160 q-12 -85 -96 -82h-19q-36 3 -80 35q-9 7 -104 84q-33 29 -55 71q-22 43 -17 68zM469 391q43 -3 98 -6q39 -2 97 -2q14 133 20 184q4 31 12.5 95.5t12.5 95.5q12 94 24 186q2 17 11 79t12 93h-43q-21 0 -49 4h-7q-14 -68 -30 -159t-39 -209q-21 -108 -51 -207 q-29 -97 -68 -154z" />
<glyph unicode="&#x415;" horiz-adv-x="1124" d="M88 240q8 224 41 448q28 194 72 356q0 5 2 7l-6 6q-11 11 -19 30q-6 14 -18 50q-7 21 -19 53q-4 9 -8.5 25t-5.5 18q-6 11 -2 29q2 10 10 30q5 14 17 29q9 12 18 18q59 49 141 78q95 33 191 47q127 18 221 23q117 6 233 6q58 0 97 -8q43 -9 61 -21q20 -14 23 -45 q3 -34 0 -73q-2 -32 -13 -76q-9 -36 -18 -58q-3 -13 -25 -32t-37 -19h-165q-101 0 -148 -2q-90 -4 -135 -8q-50 -5 -125 -23q47 3 74 -12q16 -13 30 -31q13 -16 13 -36v-7v-6q-2 -12 -6.5 -33.5t-6.5 -33.5q-7 -40 -12 -74q102 17 189 25q93 9 166 -13q20 -6 26 -37 q7 -33 4 -67q-3 -36 -12 -74q-8 -34 -18 -57q-3 -14 -25 -33q-21 -18 -37 -18l14 -9q-94 0 -186 -6q-87 -6 -168 -28q-31 -209 -31 -211q0 -21 -2 -29t-2 -19q0 -6 11 -10q9 -3 30 0q67 17 123 25q86 12 127 16q35 3 115 8q35 2 84 2q17 0 41 -6t30 -26q16 -44 19 -68 q3 -28 0 -49q-4 -26 -8 -39q-9 -27 -13 -43q-11 -44 -30 -63q-21 -22 -39 -29q-25 -14 -58 -17q-46 -4 -82 -6q-54 -4 -98 -6q-51 -3 -104 -12q-81 -13 -148 -16q-78 -3 -141 8q-68 12 -123 39q-53 26 -94 73q-1 1 -2 3l-2.5 5t-3.5 5q-6 10 -9 20q-5 20 -6 23l-4 12 q-2 9 -6 35q-2 14 -2 37z" />
<glyph unicode="&#x416;" horiz-adv-x="1753" d="M-4 250q0 19 16 45q4 6 54 74q10 13 31.5 41.5t33.5 44.5q10 14 21.5 29.5t25.5 36t23 32.5q38 53 67 104q10 17 13 31q4 20 4 23q0 10 -4 30q-35 47 -62 115q-22 54 -51 133t-43 121t-29 78q-10 23 2 47q2 4 23 39q14 19 47 39q38 23 70 37q30 14 84 32q52 18 84 25 q26 6 40 -2q16 -9 25 -25q24 -46 37 -100q25 -100 31 -131q7 -32 34 -143q16 -66 43 -138h72q2 21 19 170q10 90 18 146q9 64 18 114q10 54 15 72q3 15 12 27t35 12q28 0 65 -6q9 -2 74 -17q38 -9 72 -18q33 -9 55 -18q21 -9 35 -23q11 -11 8 -37l-2 -10q-16 -95 -25 -178 q-13 -110 -24 -230h51q12 0 47 5q1 3 66 135q8 16 31 64.5t36 74.5q12 24 34.5 66.5t31.5 60.5q11 21 29 54l24 44q16 28 64 25q36 -3 79 -25q34 -17 74 -49q39 -30 60 -57q24 -30 34 -53q8 -19 19 -48q9 -25 0 -47q-7 -15 -37 -61q-20 -29 -64 -88q-14 -18 -39 -54t-36 -51 q-12 -16 -74 -100q-15 -27 -29 -41q-12 -12 -12 -41q0 -2 0.5 -4.5t1.5 -7t2 -8.5q3 -17 12 -31q28 -49 68 -105q18 -26 72 -98q8 -10 65 -82q24 -30 53 -55q22 -19 19 -43q-3 -23 -25 -45q-24 -24 -51 -55q-33 -38 -63 -64q-45 -39 -70 -53q-41 -23 -70 -23q-23 0 -67 47 q-38 40 -92 121q-49 74 -99 162q-40 71 -82 172l-92 -6q-12 -208 -12 -430q0 -10 -6 -25q-2 -5 -17 -30q-11 -17 -20 -27q-12 -12 -25 -12q-90 0 -155 36q-67 38 -105 84q-4 4 -14 27q-7 15 -14 45q-3 12 -13 47q-6 21 -6 31q0 37 4 127q3 60 6 145q-7 1 -21.5 3t-21.5 3 l-41 5q-29 -90 -67 -172q-47 -103 -82 -162q-46 -78 -82 -119q-41 -47 -72 -47q-32 0 -69 18q-26 13 -70 43q-23 16 -63 56q-11 11 -28.5 29t-23.5 24q-20 20 -20 43z" />
<glyph unicode="&#x417;" horiz-adv-x="1112" d="M-4 346q-3 32 8 43q13 13 31 19q24 7 41 4q13 -2 35 -11l30 -12q18 -7 35 -10q83 -14 152 -19q68 -5 135 5q71 12 117 36q47 24 47 86q0 37 -25 56q-26 20 -61 28q-30 8 -58 13q-39 6 -51 4q-21 -3 -49 0t-55 43q-26 43 -35 65q-14 35 -25 72q-9 28 6 43t37 18 q38 5 103 19q47 10 102 35q47 21 78 49t31 61q0 27 -41 45q-40 18 -90 15q-93 -9 -160 -27q-64 -17 -109 -37q-15 -9 -37 -6q-19 3 -36 23q-11 11 -25 36q-19 33 -31 62q-10 23 -26 63q-17 42 -17 43q-21 59 13 86q21 17 67 37q60 25 121 41q92 23 160 35q88 15 184 18 q77 3 145 -18q59 -18 123 -53q49 -27 97 -62q17 -13 55 -43q25 -21 41 -55q17 -36 8 -111q-9 -63 -39 -122q-31 -60 -76 -105q-47 -47 -100 -80q-52 -33 -113 -45v-14q87 -6 148 -27q60 -20 98 -51q38 -30 55 -63q19 -36 19 -68q0 -119 -43 -209q-44 -93 -121 -158 q-76 -64 -180 -98q-107 -35 -226 -35l-12 -16q-6 -2 -24 -2h-27q-70 4 -104 8q-43 6 -82 18q-36 12 -68 37q-34 27 -59 62q-27 35 -43 61q-26 43 -37 68q-20 46 -25 61q-9 27 -12 39z" />
<glyph unicode="&#x418;" horiz-adv-x="1290" d="M59 231q0 61 11 197q4 48 22 229q10 100 31 240q6 40 18 113.5t17 107.5q4 25 28 174q11 67 23 103q3 13 16 26t37 13q21 0 68 -7q58 -9 84 -14q36 -7 80 -18q33 -8 59 -19q24 -9 37 -22q11 -11 8 -37q-3 -20 -17.5 -102.5t-23.5 -139.5q-31 -194 -47 -332q53 87 102 193 q71 154 93 205q45 101 83 174q42 79 74 104q5 5 17 13q9 6 24 6q25 0 66 -6q37 -6 80 -15q27 -6 77 -18q31 -7 58 -19q23 -10 35 -22q11 -11 8 -37l-2 -10q-23 -134 -37 -230q-27 -180 -43 -313q-24 -200 -37 -358q-14 -175 -14 -369q0 -21 -17 -35q-15 -12 -41 -12 q-50 0 -100 12q-41 10 -92 31q-40 17 -78 43q-27 18 -51 47q-21 27 -21 68q0 59 11 202q9 120 24 244q-2 -5 -67 -154q-11 -26 -33.5 -79t-34.5 -80q-42 -98 -68 -150q-44 -90 -67 -127q-3 -17 -17 -31q-12 -12 -34 -12q-47 0 -105 10q-43 7 -94 25q-40 14 -78 37 q-30 18 -51 43q-8 13 -14 51q-7 44 -7 57z" />
<glyph unicode="&#x419;" horiz-adv-x="1290" d="M59 231q0 61 11 197q4 48 22 229q10 100 31 240q6 40 18 113.5t17 107.5q4 25 28 174q11 67 23 103q3 13 16 26t37 13q21 0 68 -7q58 -9 84 -14q36 -7 80 -18q33 -8 59 -19q24 -9 37 -22q11 -11 8 -37q-3 -20 -17.5 -102.5t-23.5 -139.5q-31 -194 -47 -332q53 87 102 193 q71 154 93 205q45 101 83 174q42 79 74 104q5 5 17 13q9 6 24 6q25 0 66 -6q37 -6 80 -15q27 -6 77 -18q31 -7 58 -19q23 -10 35 -22q11 -11 8 -37l-2 -10q-23 -134 -37 -230q-27 -180 -43 -313q-24 -200 -37 -358q-14 -175 -14 -369q0 -21 -17 -35q-15 -12 -41 -12 q-50 0 -100 12q-41 10 -92 31q-40 17 -78 43q-27 18 -51 47q-21 27 -21 68q0 59 11 202q9 120 24 244q-2 -5 -67 -154q-11 -26 -33.5 -79t-34.5 -80q-42 -98 -68 -150q-44 -90 -67 -127q-3 -17 -17 -31q-12 -12 -34 -12q-47 0 -105 10q-43 7 -94 25q-40 14 -78 37 q-30 18 -51 43q-8 13 -14 51q-7 44 -7 57zM395 1880q3 12 13 25q6 8 28 30l33 27l-2 2q24 18 49 2q24 -15 49 -43q16 -18 49 -51q25 -25 50 -25q38 0 90 21q57 23 84 39q48 28 84 61t65 33q15 0 31 -19q11 -13 26 -43q11 -21 21 -49q4 -9 9.5 -23t6.5 -16q25 -54 13 -90 q-11 -35 -60 -71q-61 -48 -133 -72q-77 -25 -149 -25q-118 0 -203 60q-84 60 -133 157q-13 26 -19 41q-6 14 -2 29z" />
<glyph unicode="&#x41a;" horiz-adv-x="1337" d="M55 829q0 31 31 31q10 -2 37 -2h43q13 109 24 197q8 66 25 172q4 28 12.5 73t10.5 60q8 51 16 78q3 14 12 26q10 13 35 13q20 0 74 -7q15 -2 46 -6t46 -6q59 -8 90 -14q38 -8 64 -19q21 -9 34 -22q12 -12 9 -37l8 -14q-15 -75 -33 -203q-23 -158 -37 -283l96 8 q13 26 39 80t35 72q67 136 80 162q40 80 78 147q14 24 32.5 59t24.5 46q8 14 25 24q15 9 37 0q22 -7 65 -28q27 -13 74 -43q2 -1 72 -50q26 -18 55 -43q37 -27 16 -67q-7 -17 -53 -88q-44 -67 -96 -150q-47 -73 -109 -166q-69 -103 -94 -135q24 -57 72 -135q43 -71 90 -135 q42 -59 90 -113q48 -55 69 -71q22 -19 19 -43q-3 -23 -25 -45q-47 -47 -55 -54q-38 -33 -74 -57q-42 -28 -80 -45q-43 -19 -73 -19q-40 0 -92 52q-52 51 -101 131q-45 72 -96 176q-46 94 -74 182l-94 -6q-12 -168 -16 -250q-7 -144 -7 -239q0 -43 -47 -43q-51 0 -106 12 q-49 11 -105 31q-44 16 -86 43q-33 21 -55 47q-20 26 -20 67q0 83 6 197q6 116 18 244q-32 55 -57 118q-25 64 -25 90z" />
<glyph unicode="&#x41b;" horiz-adv-x="1306" d="M-39 182q0 14 27 49q46 59 67 86q35 46 76 132q39 83 68 178q35 116 53 213q26 139 35 233q-15 40 -21 55q-8 20 -24 66q-9 25 -21 66q-9 29 -12 55q-3 29 18 59q22 31 43 37q65 23 146 29q108 8 202 10h48q42 0 67 -2q37 -3 78 -6t78 -6h10q41 0 68 -2q41 -3 84 -9 q15 -2 82 -12q43 -6 61 -14q18 -4 23 -8q10 -7 16 -19q7 -15 10 -33q3 -20 0 -57l-8 -25q-9 -93 -27 -221q-14 -104 -32 -286q-21 -222 -29 -336q-12 -179 -12 -367q0 -21 -13 -41q-13 -19 -39 -22q-52 -6 -98 0q-50 6 -84 20q-25 10 -67 31q-32 16 -50 28q-15 9 -36 43 t-21 56q0 102 8 203q9 114 21 237q8 82 28 246q8 68 31 227q-62 6 -145 6q-35 0 -58 2q-34 3 -61 0q28 -9 49 -36q22 -28 25 -56q0 -1 -23 -190q-12 -99 -33 -207q-20 -104 -51 -227q-26 -103 -78 -258q-22 -61 -57 -93t-70 -32q-108 0 -188 41q-85 43 -133 86 q-31 25 -31 71z" />
<glyph unicode="&#x41c;" horiz-adv-x="1673" d="M51 182q3 86 12 203q0 3 23 242q12 126 27 252q14 119 30 233q12 89 27 186q14 90 20 109q2 12 17 27q12 12 37 12q28 0 71 -6q4 -1 38.5 -6t54.5 -7q59 -7 90 -14q39 -9 61 -18q40 -15 43 -37q15 -26 25 -55q6 -18 28 -68q8 -22 88 -260q43 -129 78 -246q43 93 105 215 q57 111 147 293q7 16 29 53q26 43 39 60q29 38 39 49q18 21 28 31q15 18 43 18q23 0 70 -6q15 -2 46 -6t46 -6q47 -6 90 -15t64 -18t35 -23q11 -11 8 -37l-6 -2q-22 -129 -37 -235q-28 -193 -41 -326q-18 -175 -33 -373q-14 -181 -14 -374q0 -43 -49 -43q-52 0 -105 12 q-44 10 -98 31q-41 16 -80 43q-31 22 -53 47q-21 27 -21 67q0 36 4 158q2 63 10 184q-3 44 17 111q24 82 29 108v7q-31 -47 -43 -74q-6 -13 -21 -44.5t-22 -47.5q-14 -27 -27 -58q-5 -12 -15.5 -33.5t-15.5 -33.5q-12 -27 -35 -62q-20 -29 -36 -43q-9 -18 -44 -18 q-18 -3 -43 0q-18 2 -49 10q-28 7 -43 12q-7 2 -16.5 6t-11.5 5q-44 12 -58 45q-10 29 -30 71q-12 26 -45 97q-25 48 -39 98q-11 40 -37 104q-6 -65 -6 -124q0 -50 -7 -132q-10 -130 -18 -251q-9 -133 -12 -248q-3 -43 -49 -43q-52 0 -105 12q-44 10 -98 31q-28 11 -82 41 q-35 20 -55 43q-22 31 -19 67z" />
<glyph unicode="&#x41d;" horiz-adv-x="1390" d="M43 819q0 31 29 31h78q13 109 24 197q8 65 25 176q5 32 13 83l9 52q7 43 17 78q2 12 16 26q13 13 37 13q20 0 71 -7q44 -6 93 -12q59 -7 90 -14q35 -8 61 -19q24 -9 37 -22q11 -11 8 -37q-15 -75 -33 -209q-18 -132 -36 -291l247 17q5 39 14.5 112t10.5 78q9 65 25 166 q4 23 10.5 66t9.5 61q8 45 16 74q2 11 17 26q13 13 37 13q15 0 69 -7q15 -2 46 -6t46 -6q62 -8 91 -14q36 -7 63 -19q23 -10 35 -22q11 -11 8 -37l-20 -6q-20 -117 -37 -242q-28 -202 -41 -338q-18 -188 -33 -383q-14 -186 -14 -381q0 -43 -49 -43q-47 0 -107 13 q-53 11 -104 30q-44 16 -86 43q-35 22 -56 47q-20 26 -20 68q0 73 6 172q3 46 16 209q-73 -8 -116 -10q-41 -2 -127 -6q-15 -226 -17 -260q-6 -129 -6 -252q0 -43 -47 -43q-51 0 -107 12q-46 10 -104 31q-44 16 -86 43q-33 21 -55 47q-21 27 -21 67q0 85 6 205q4 89 23 252 q-32 43 -57 98t-25 80z" />
<glyph unicode="&#x41e;" horiz-adv-x="1267" d="M57 588q0 183 41 344q39 154 115 278q73 120 172 187q98 67 209 67l-12 -6q52 0 108 -6q57 -6 109 -18q28 -6 98 -29q43 -14 76 -37q27 -19 69 -61q40 -39 74 -107q33 -64 58 -160q24 -92 24 -215q0 -183 -41 -344q-41 -162 -110 -276q-72 -120 -168 -185 q-98 -67 -209 -67q-54 0 -109 6t-108 18q-38 9 -97 29q-40 14 -73 37q-30 21 -70 61q-37 37 -74 109q-31 60 -57 160q-25 95 -25 215zM463 524q0 -73 10 -131q8 -49 29 -80q19 -28 39 -37q23 -10 47 -10q36 0 49 8q15 9 25 19q15 15 36 59t39 117q20 81 31 176 q12 102 12 232q0 77 -10 135q-9 53 -27 80q-18 28 -38 36q-26 11 -46 11v-6q-30 0 -51 -7q-18 -6 -26 -14q-17 -17 -37 -61q-22 -48 -39 -119q-20 -81 -31 -176q-12 -102 -12 -232z" />
<glyph unicode="&#x41f;" horiz-adv-x="1247" d="M55 160q2 104 13 266q7 110 22 262q7 76 25 221q11 91 18 152v4q-16 48 -27 104q-14 66 -16 99q-3 29 14 55q18 28 37 37q42 22 80 33q41 12 92 18q66 8 123 10q72 3 172 6q9 0 103 -4t139 -6h4q25 0 66 -6l39 -6t40 -6q41 -6 78 -15q36 -9 58 -18q20 -9 36 -31t13 -92 l-10 -10q-3 -34 -29 -217q-22 -161 -37 -287q-18 -155 -33 -332q-14 -164 -14 -356q0 -21 -12 -39q-11 -17 -37 -20q-103 -15 -183 12q-79 27 -114 74q-15 25 -23 43q-12 27 -12 49q0 82 6 196q4 69 16 238q3 41 23 246q5 49 25 231h-48h-53q-23 -2 -98 -2q-59 0 -111 -10 l39 -10q22 -8 37 -23q11 -11 8 -37q-35 -345 -43 -424q-26 -267 -37 -534q-3 -23 -18 -41q-16 -19 -37 -19q-106 0 -190 37q-85 38 -123 84q-21 27 -21 68z" />
<glyph unicode="&#x420;" horiz-adv-x="1146" d="M70 195q0 111 10 258q7 101 22 252q9 87 29 215q12 74 29 141q-2 3 -27 43q-12 20 -27 49q-19 38 -22 45l-14 29v-8q-18 55 10 77q22 18 70 43q71 37 124 56q81 30 162 49q84 20 185 20q7 0 73 -16q62 -15 135 -39q68 -22 140 -49q67 -25 84 -39q9 -9 24 -39 q20 -39 31 -70q17 -47 25 -84q10 -48 10 -79q0 -87 -25 -179q-24 -87 -74 -165q-52 -80 -122 -136q-73 -58 -172 -82q-57 -14 -99 -14q-34 0 -61 10q-22 8 -39 29q-22 26 -31 39l-6 6q-10 10 -12 14q-17 -206 -19 -239q-7 -100 -14 -295q-3 -43 -49 -43q-52 0 -105 12 q-43 10 -94 31q-40 17 -78 43q-31 22 -53 47q-20 26 -20 68zM485 1100h4h5q21 -9 47 -35q25 -25 16 -76v-12l-18 -129q-1 -7 -8 -57t-11 -78q44 6 90 28q40 19 80 56q37 34 58 77q22 46 22 97q0 58 -39 106q-40 49 -123 49q-55 0 -123 -26z" />
<glyph unicode="&#x421;" horiz-adv-x="1183" d="M68 578q0 203 38 352q40 159 111 276q71 118 172 185q103 68 227 71q129 3 232 -14q106 -18 178 -59q21 -12 47 -25t47 -31q24 -21 35 -45q13 -29 10 -67q-4 -49 -8 -76q-6 -41 -18 -92q-12 -49 -33 -105q-20 -52 -62 -110l-18 -27q-12 -19 -37 -31q-26 -13 -61 -16 q-36 -3 -88 12q-75 15 -88 47q-12 29 10 99q27 100 4 163q-25 66 -94 66l6 -16q-29 0 -55 -11q-23 -10 -31 -18q-15 -15 -33 -62q-22 -57 -37 -118q-18 -73 -30 -176q-13 -110 -13 -232q0 -74 17 -123q14 -41 41 -61q24 -18 53 -21q18 -2 53 -2q32 0 74 25q33 20 92 65 q21 17 43 45q27 34 61 58q36 25 68 28q34 3 61 -43l60 -153q14 -44 8 -88q-6 -41 -37 -80q-23 -30 -72 -82q-38 -41 -86 -70q-53 -32 -116 -49q-67 -18 -160 -18q-126 0 -233 35q-106 35 -179 108q-71 71 -116 195q-43 119 -43 291z" />
<glyph unicode="&#x422;" horiz-adv-x="1200" d="M6 1376q-3 27 0 45q3 20 25 23q49 7 129 10q90 3 202 6q76 2 240 2q127 0 244 -6q16 -2 65 -2q26 0 80 -4q34 -2 74 -6q36 -3 43 -8q15 -9 37 -37q25 -32 41 -68q28 -62 37 -88q14 -38 32 -98q9 -26 -4 -62q-11 -33 -63 -30q-12 0 -49 6t-99 12t-141 12q-93 7 -174 7 q45 -6 66 -27t30 -45q10 -27 10 -49q0 -31 -2 -41q-9 -88 -18 -162t-18 -162q-9 -90 -15 -198q-6 -111 -6 -273q0 -68 -20 -104q-21 -38 -62 -35q-55 3 -100 14q-41 10 -92 31q-27 11 -76 41q-30 18 -51 43q-21 27 -21 67q3 128 12 265q8 123 25 262q4 31 13.5 107.5 t13.5 113.5q14 119 16 143q-76 0 -113 -2q-43 -2 -100 -6l-2 -14q-32 3 -45 8q-22 7 -31 14q-10 7 -24 25q-12 15 -27 33q-6 6 -18 30q-16 32 -25 58q-23 65 -25 73q-11 37 -14 76z" />
<glyph unicode="&#x423;" horiz-adv-x="1173" d="M55 1231q-3 23 4 74q6 44 29 67q24 24 57 37q56 22 80 29q36 10 88 20q55 11 80 15q6 2 29 2q7 0 37 -5q18 -3 30 -12q14 -11 17 -28q32 -201 43 -334q10 -127 35 -275q41 115 86 217q63 141 86 189q50 103 73 141q35 58 56 80q3 2 11 10.5t13 14.5q15 15 35 18 q25 6 55 -6q36 -14 60 -33q9 -7 27.5 -21.5t27.5 -21.5q31 -24 49 -37q12 -9 27 -24t18 -37q3 -30 -8 -58q-12 -30 -24 -51q-73 -124 -134 -248q-86 -175 -145 -315q-57 -134 -131 -326q-63 -163 -92 -276q-3 -16 -15 -31q-13 -16 -26 -24q-18 -11 -37 -11q-22 0 -49 15 l-219 96q-20 9 -33 31q-13 23 -16 47t0 49q3 26 6 37q10 32 47 116q33 74 65 148q-59 -6 -96 18q-38 24 -68 101q-54 129 -104 295q-47 156 -74 307z" />
<glyph unicode="&#x424;" horiz-adv-x="1531" d="M39 598q-3 74 6 133t27 111q17 50 45 98q26 45 61 92q25 36 64 72q36 33 84 63q50 31 86 41q43 12 77 0q30 -10 68 -37q27 -19 61 -49q6 36 19 104.5t18 98.5q14 81 25 117q3 14 12 26q10 13 35 13q27 0 68 -6q30 -4 79 -19q35 -10 78 -31q38 -18 56 -39q12 -12 20 -18 q15 -11 23 -22q10 -14 16 -31q5 -16 2 -43l-39 -172q41 20 92 28q57 9 119 -14q3 -1 51 -22q31 -14 80 -50q37 -27 74 -71q35 -41 35 -86q3 -92 -23 -211q-24 -111 -94 -205q-23 -33 -64 -68t-81 -57q-51 -28 -82 -35q-42 -9 -64 2q-9 4 -34.5 16t-41.5 19q-35 15 -73 41 q-9 -89 -21 -174q-8 -54 -20 -172q-3 -21 -27 -45q-25 -25 -45 -19q-98 28 -174 78q-70 46 -107 92q-20 26 -20 68q0 24 4 90q2 33 6 103q-50 -33 -98 -48q-59 -18 -127 9q-8 2 -53 22q-36 16 -84 49q-37 25 -80 72q-36 39 -39 86zM406 649q0 -27 4 -55q3 -22 16 -35 q11 -11 37 -14q24 -3 67 6l-4 -2q3 30 23 188q17 135 26 189q-63 -49 -118 -129q-51 -74 -51 -148zM938 524q67 54 115 129q49 76 49 152q0 39 -2 55q-3 24 -15 39q-13 16 -32 19q-16 2 -58 -11l-4 -2q-11 -62 -26 -184q-12 -98 -27 -197z" />
<glyph unicode="&#x425;" horiz-adv-x="1224" d="M-20 233q3 42 18 66q5 7 23.5 34t31.5 46q41 59 90 129q60 85 105 145q63 84 104 127q-73 124 -129 242q-56 117 -98 233q-9 26 -12 56q-3 28 18 49q22 22 66 43q49 23 96 37q53 15 102 24q60 11 84 11q22 0 43 -37q25 -44 43 -95q24 -68 43 -133q20 -69 39 -151 q23 42 64 112q51 86 65 111q12 20 33.5 53t26.5 41q22 35 49 70q10 14 41 29t53 6q28 -9 59 -31q34 -24 62 -49q35 -32 59 -62q37 -47 49 -67q15 -21 15 -64q0 -40 -17 -67l-22 4q-9 -12 -56 -70q-32 -39 -92 -106q-17 -19 -51.5 -58t-52.5 -59q-30 -34 -96 -104 q81 -132 135 -254q58 -132 102 -248q9 -26 12 -56q3 -28 -18 -49q-28 -28 -57 -49q-52 -38 -82 -53q-64 -33 -88 -43q-46 -19 -76 -19q-21 0 -49 48q-34 59 -56 116q-30 79 -55 160q-32 103 -49 172q-1 -1 -25 -49t-38 -74q-44 -81 -68 -125q-36 -63 -64 -116 q-13 -25 -55 -95q-20 -36 -72 -20q-62 24 -127 69q-69 48 -114 109q-15 21 -12 61z" />
<glyph unicode="&#x426;" horiz-adv-x="1296" d="M51 211l19 195q5 58 22 221q4 38 12.5 113.5t12.5 113.5q12 117 24 209q4 34 12 89.5t11 76.5q9 71 18 98q1 1 5 7.5t6 11.5q4 8 16 24q11 15 22 23q13 10 25 10q41 0 70 -2q56 -4 86 -8q38 -5 82 -15q43 -9 61 -20q23 -17 31 -27q9 -12 6 -37q-3 -22 -13.5 -83.5 t-15.5 -98.5q-23 -155 -31 -219q-16 -125 -30 -248q-17 -153 -25 -270l221 -15q5 111 23 295q10 98 35 287q14 105 41 244q17 90 37 166q3 13 18 28q17 17 39 17q11 0 65 -4q12 -1 80 -11q40 -6 78 -12q39 -6 57 -14q21 -9 35 -23q11 -11 8 -37q-17 -98 -28 -170 q-21 -142 -31 -225q-23 -187 -31 -264q-15 -141 -24 -285q24 0 30 2q37 6 62 -22q11 -11 22 -43q4 -10 14 -36.5t15 -41.5q23 -67 29 -90q13 -49 18 -80v-6v-6q4 -16 4 -17l-18 -14q6 -76 -12 -131q-7 -21 -22 -65t-21 -60q-3 -9 -6 -18.5t-7 -21t-6 -17.5q-12 -36 -18 -50 q-8 -19 -21 -32q-12 -12 -30 -9q-85 14 -150 44q-56 26 -94 73q-9 15 -12 31q-3 15 0 37q2 54 10 117q7 57 14 84q-105 9 -219 18q-101 8 -221 8h-31q-4 -2 -18 -2q-38 0 -76 6q-33 3 -41 6q-69 17 -135 54q-63 36 -88 67q-24 30 -21 74z" />
<glyph unicode="&#x427;" horiz-adv-x="1208" d="M63 793q2 31 17 172q7 64 22 165q7 49 25 148q9 52 25 113q3 13 16 30q14 17 37 17q32 0 65 -8q34 -8 74 -21q38 -12 72 -27q33 -14 55 -30q24 -17 35 -31t8 -43q-41 -233 -61 -375q-18 -125 22 -155q17 -10 41 -7q22 3 53 13q32 11 56 24q25 14 49 31q0 -4 2 -6 q4 33 12 98t12 98q7 55 25 181q4 29 10.5 76.5t9.5 66.5q6 43 17 86q3 16 16 29q12 12 37 12q24 0 62 -10q24 -6 67 -25q15 -7 64 -31q30 -15 51 -24q59 -27 74 -64t12 -63l-2 -19q-2 -15 -15.5 -93.5t-21.5 -129.5q-27 -167 -43 -289q-28 -211 -43 -335q-21 -177 -33 -367 q-3 -45 -51 -45q-52 0 -96 12q-34 9 -76 35q-36 22 -59 45q-25 25 -43 49q-23 30 -23 68q0 82 6 184q1 12 17 213q-50 -35 -74 -49q-48 -28 -80 -45q-43 -22 -74 -33q-34 -12 -55 -12t-51 12q-10 4 -31 12.5t-31 12.5q-37 15 -53 24l-27 15q-30 26 -45 37q-25 19 -43 49 q-19 32 -28 80q-10 54 -7 129z" />
<glyph unicode="&#x428;" horiz-adv-x="1685" d="M68 199q0 79 6 190q6 113 18 232q12 120 27 243q9 75 31 228q2 17 28 180q10 63 19 104q3 14 12 25q9 12 31 12q11 0 65 -4q25 -2 84 -10q43 -6 84 -15q51 -11 59 -14q21 -9 31 -22q9 -12 6 -35v-29q-8 -55 -24 -166q-21 -142 -31 -227q-25 -213 -31 -266 q-15 -139 -24 -283q61 -9 133 -12q9 137 24 299q9 100 35 311q15 123 37 262q14 91 29 152q3 12 12 24q10 13 31 13q7 0 17 -1t24.5 -2t25.5 -2q23 -2 88 -10q56 -7 84 -14q50 -12 56 -14q21 -9 35 -23q11 -11 8 -35q-13 -69 -27 -168q-21 -147 -31 -233q-19 -159 -28 -273 q-12 -144 -21 -288h21h57q37 0 55 2q5 121 25 299q6 57 37 313q15 124 37 264q16 103 28 152q3 10 13 24q10 13 30 13q10 0 68 -4q13 -1 86 -11q55 -8 84 -14q45 -10 57 -14q20 -9 31 -23q9 -12 6 -35q-15 -78 -33 -221q-24 -186 -37 -313q-18 -172 -30 -357 q-13 -200 -13 -352q0 -33 -26 -39q-21 -6 -154 -12q-132 -6 -418 -6q-81 0 -245 4q-111 3 -234 16q-104 11 -196 37q-86 24 -136 68l-18 18q-18 24 -18 62z" />
<glyph unicode="&#x429;" horiz-adv-x="1800" d="M57 203q0 80 9 194q14 175 20 240q13 132 27 256q15 129 30 240q14 106 27 190q13 86 20 107q3 10 23 24q18 12 41 12q96 0 158 -18t102 -33q21 -9 43 -31q21 -21 18 -43v-12q-8 -55 -24 -166q-21 -142 -31 -229q-26 -220 -31 -272q-10 -92 -26 -289q23 -2 72 -2h73 q7 102 25 295q5 57 31 303q15 140 30 254q14 102 25 145q3 26 29 49t45 23t61 -10q29 -7 74 -25q11 -4 23 -9.5t26 -12t22 -9.5q20 -9 54 -20q23 -10 41 -31q19 -22 16 -43q-15 -76 -25 -160q-13 -108 -24 -217q-22 -218 -25 -254q-8 -96 -20 -272h69q24 0 64 4 q6 140 18 293q4 55 25 299q9 106 29 250q15 105 24 141q3 11 17 29q12 15 34 18q43 6 88 0q31 -4 89 -16q22 -5 75 -23q10 -4 20.5 -7t20.5 -6.5t13 -4.5q20 -9 36 -31t13 -43q-2 -40 -13 -156q0 -3 -7.5 -83.5t-12.5 -127.5q-22 -218 -25 -247q-8 -91 -20 -267q42 -4 67 -8 q39 -7 56 -14q24 -10 41 -64q19 -58 30 -118q15 -79 19 -119q6 -60 4 -72q-3 -44 -12 -74q-7 -22 -23 -55q-7 -13 -29 -49q-14 -23 -30 -59q-17 -39 -49 -105q-20 -42 -62 -39q-83 8 -147 29q-54 17 -92 65q-10 17 -13 31q-2 10 -2 37q0 59 10 121q8 49 25 102 q-114 -4 -203 -4h-264q-75 0 -227 4q-91 2 -215 17q-101 12 -187 30q-80 17 -143 49q-31 11 -51 37q-19 25 -19 62z" />
<glyph unicode="&#x42a;" horiz-adv-x="1306" d="M2 1225q-8 22 10 63q17 39 49 55q30 12 56 25q14 7 49 21q37 15 86 28q82 22 170 43h6h6q13 8 27 8q58 0 121 -14q61 -14 108 -31q49 -16 72 -45q25 -31 16 -82l-76 -409q36 16 76 24q47 10 101 7q202 -15 309 -105q105 -88 90 -254q-10 -94 -45 -172q-40 -87 -98 -154 q-60 -68 -144 -122q-82 -52 -180 -76q-110 -28 -205 -31q-99 -3 -160 19q-66 17 -135 49q-66 31 -92 67q-7 12 -14 43q-6 27 -6 49q3 77 12 179q4 49 22 208q3 30 29 220q6 41 31 209q-3 15 -12 12q-3 -1 -9.5 -3t-9.5 -3q-17 -6 -51 -29q-40 -27 -55 -35q-47 -12 -62 6 t-37 54q-9 15 -24 67q-29 100 -31 109zM635 360q86 9 153 60q66 51 66 147q0 56 -25 95q-22 35 -59 38l-6 -4q-30 3 -49 -2q-31 -9 -43 -14q-2 -19 -9 -73.5t-10 -84.5q-9 -80 -18 -162z" />
<glyph unicode="&#x42b;" horiz-adv-x="1847" d="M63 242q2 61 13 202q4 55 22 246q4 43 29 258q9 76 31 240q23 169 26 190q11 73 19 109q3 14 12 26q10 13 35 13q40 0 67 -2q41 -3 84 -6q18 -1 84 -11q15 -2 35.5 -5.5t26.5 -4.5q43 -8 67 -29q22 -19 13 -69l-9 -13q-1 -6 -12.5 -80.5t-19.5 -125.5q-26 -157 -43 -289 q42 28 92 45t117 14q104 -6 176 -43q73 -37 116 -92q46 -58 60 -125t2 -143q-16 -93 -51 -172q-40 -91 -92 -160q-55 -73 -129 -129q-72 -55 -162 -82q-86 -22 -170 -16q-82 6 -152 22q-80 12 -153 60q-72 47 -105 92q-8 12 -18 37q-11 26 -11 43zM469 342q91 15 160 78 q67 61 67 160q0 58 -24 92t-60 37q-28 3 -55 -9q-29 -13 -49 -30h-2q-3 -22 -9.5 -77t-9.5 -85q-3 -27 -9 -82.5t-9 -83.5zM1178 252q3 73 16 197q9 87 31 231q6 40 18.5 120t18.5 120q17 113 36 221q3 18 35 174q14 70 25 102q6 15 18 27q13 13 37 10q4 0 30.5 -3t45.5 -5 q23 -3 100 -16q53 -9 99 -21q52 -13 65 -20q48 -20 39 -62l-14 -10q-24 -98 -52 -232q-36 -173 -61 -319q-33 -195 -55 -367q-27 -218 -35 -370q-3 -22 -19 -35t-36 -10q-52 3 -105 24q-42 17 -94 49q-31 20 -78 60q-32 28 -49 55q-9 15 -12 37q-4 28 -4 43z" />
<glyph unicode="&#x42c;" horiz-adv-x="1159" d="M57 227q2 54 17 205q12 124 30 250q19 137 39 262q8 48 22 130t19 114t35 190q7 36 23 109q3 14 12 26q10 13 35 13q40 0 67 -2q13 -1 39.5 -3t40.5 -3q17 -1 78 -11q13 -2 31.5 -5.5t25.5 -4.5q44 -9 68 -29q21 -18 12 -69l-8 -2q-18 -112 -33 -209q-21 -132 -45 -291 q32 16 72 25q41 9 96 6q202 -15 309 -111q106 -95 91 -260q-9 -91 -46 -172q-40 -87 -98 -154q-61 -70 -143 -122t-180 -76q-113 -28 -209 -31q-102 -3 -160 18q-57 15 -125 50q-59 30 -86 65q-8 14 -18 43q-11 33 -11 49zM492 362q86 9 153 60q64 49 64 145q0 56 -25 95 q-22 35 -59 38q-31 3 -50 -2q-31 -9 -43 -14l-4 -4q-3 -26 -18 -158q-3 -26 -9 -80t-9 -80z" />
<glyph unicode="&#x42d;" horiz-adv-x="1103" d="M2 424q10 32 31 35q15 3 39 -6q25 -9 47 -25q43 -40 86 -61q44 -21 80 -27q38 -6 65 -6h41q114 0 166 67q53 68 68 197h-17h-55h-57q-36 0 -50 2q-23 3 -30 8q-17 10 -35 37q-21 32 -35 66q-18 44 -27 71q-12 34 -12 56q0 30 29 30l303 11q-6 67 -25 120q-18 48 -43 80 q-25 31 -55 43q-32 13 -57 13l-19 -15q-33 0 -61 -4q-19 -3 -37 -10q-16 -6 -35 -19t-55 -30q-36 -16 -68 -13q-34 3 -49 54q-27 76 -37 110q-15 52 -18 80q-9 53 0 80q9 28 53 43q33 11 60 25q18 9 55 20q23 7 74 14t108 7q112 3 191 -33q107 -49 147 -70q2 -1 17 -9.5 t24 -14.5q1 -1 21.5 -13.5t31.5 -19.5q26 -17 53 -41t41 -43q47 -66 62 -174q15 -111 6 -236q-35 -411 -172 -618q-138 -209 -412 -209q-56 0 -118 12q-54 10 -113 41q-50 26 -92 74q-41 47 -62 117q-6 22 -22 47q-16 26 -25 65q-15 41 -6 72z" />
<glyph unicode="&#x42e;" horiz-adv-x="1751" d="M55 797q0 28 29 28h35q27 0 41 2q13 106 24 191q8 65 25 170q5 29 12.5 73.5t9.5 57.5q7 43 17 78q3 12 12 24q10 13 31 13q16 0 67 -7q29 -4 91 -12q33 -4 86 -16q42 -9 59 -15q27 -10 37 -20q11 -11 8 -37q-15 -75 -33 -203q-24 -170 -37 -278q50 4 72 4t68 4 q14 115 47 238q28 105 78 190q46 79 110 125q62 45 148 45l-15 -4q53 0 109 -6q18 -2 106 -17q49 -8 94 -24q42 -14 74 -37q33 -23 68 -61t71 -105q35 -65 56 -154q22 -93 22 -208q0 -188 -39 -338q-42 -161 -110 -271q-68 -111 -164 -178q-92 -65 -201 -65q-85 0 -184 22 q-95 21 -154 62q-57 40 -98 163q-40 121 -43 312q-13 -1 -37.5 -3t-36.5 -3q-11 -1 -37 -3.5t-41 -3.5q-12 -170 -16 -249q-6 -123 -6 -240q0 -41 -45 -41q-47 0 -100 12q-46 11 -99 31q-28 11 -82 41q-37 21 -53 43q-20 26 -20 63q0 83 6 197t18 240q-34 53 -55 96 q-25 52 -25 74zM1010 532q0 -134 30 -192q29 -57 72 -57q28 0 43 12q17 13 19 20q12 15 30 62t33 117t27 170q12 99 12 215q0 81 -8 125q-8 46 -25 79q-16 31 -33 43q-20 13 -39 13l-6 -15q-29 0 -41 -12q-14 -14 -20 -18q-32 -32 -57 -123q-24 -88 -33 -236q25 -40 30 -47 q14 -20 21 -37q21 -48 -25 -63l-30 -8v-48z" />
<glyph unicode="&#x42f;" horiz-adv-x="1284" d="M-2 236q0 23 16 49q16 27 60 67q18 16 80 70q43 38 86 80q45 45 73 94l9 16q-41 38 -82 99q-36 54 -58 114q-21 59 -30 117q-10 63 -7 111q15 187 140 288q122 98 321 125q60 10 111 7q46 -3 104 -13q47 -9 92 -24q43 -15 72 -31q66 -17 127 -49q57 -29 86 -66 q12 -19 19 -39q9 -24 6 -45q-3 -29 -11 -93t-12 -99l-26 -221q-15 -114 -27 -228q-5 -51 -25 -213q-4 -31 -11.5 -90t-10.5 -86q-1 -11 -17 -117q-3 -15 -14 -26q-13 -13 -37 -13t-61 13q-41 14 -68 26q-29 13 -63 33q-45 27 -52 31q-40 21 -61 80q-20 56 -14 110l2 -12 q2 25 10 84q9 62 14 92l-114 17q-16 -29 -46 -87t-44 -85q-47 -88 -93 -162q-47 -74 -86 -119q-41 -47 -63 -47q-32 0 -74 22q-24 13 -76 54q-30 24 -69 63q-13 13 -31.5 31t-24.5 24q-20 20 -20 48zM520 985q0 -9 4 -49q3 -26 17 -62q13 -33 32 -57q22 -28 56 -43 q40 -16 73 -24q45 -11 70 -13l-6 6q7 66 18 166q16 152 19 185q-56 26 -121 26q-64 0 -113 -30t-49 -105z" />
<glyph unicode="&#x430;" horiz-adv-x="997" d="M10 375q0 126 39 227q41 106 105 182q67 79 143 121q79 43 162 43q25 0 61 -8q50 -11 80 -20q37 -11 74 -27q32 -14 43 -25q13 -13 20 -37q5 -16 8 -55q52 -13 86 -26q16 -6 39 -14.5t27 -10.5q22 -9 31 -25q9 -15 6 -43l-14 -10q-9 -53 -15 -143q-6 -85 -12 -191 q-4 -60 -8 -180q-2 -55 -2 -110q0 -18 -13 -31q-12 -12 -34 -12q-30 0 -76 12q-36 9 -92 31q-39 15 -86 43q-36 21 -58 47q-22 28 -22 67v6v9v2v2q4 12 4 14v12q0 8 -6 8q-5 0 -13 -14q-9 -15 -22 -41q-21 -42 -25 -51q-12 -27 -24 -51q-2 -4 -23 -39q-22 -22 -43 -37 q-20 -14 -49 -14q-16 0 -43 6q-14 3 -57 16q-28 8 -58 25q-29 16 -43 30q-45 51 -67 134q-23 87 -23 178zM369 373q0 -33 20 -33q10 0 25 12q5 4 30 29q21 30 41 68q32 63 41 86l6 63v8l-2 -8q3 11 -4 25q-6 12 -22 12q-23 0 -49 -29q-26 -30 -43 -67q-21 -47 -31 -86 q-12 -47 -12 -80z" />
<glyph unicode="&#x431;" horiz-adv-x="1003" d="M14 492v2q-9 71 0 157q8 78 31 174q17 71 53 174q30 86 68 154q33 59 92 100q60 42 129 68q82 32 148 47q27 6 147 37q64 16 129 43q57 23 88 65q22 29 41 35t31 0q13 -6 22 -22q12 -20 17 -37q9 -24 6 -74q-3 -48 -12 -104q-7 -43 -29 -111q-15 -48 -47 -88 q-46 -58 -107 -88q-64 -31 -125 -51q-64 -21 -129 -39q-71 -20 -121 -51q-38 -20 -57 -62q-18 -41 -24 -67q4 0 6 2l-17 -2q52 40 111 49q62 10 110 4q54 -6 97 -21q46 -16 65 -24q27 -13 66 -27q34 -12 61 -33q29 -22 43 -61q16 -44 11 -106q-18 -247 -136 -383t-297 -148 q-99 -9 -170 23q-68 30 -133 71q-29 18 -53 49q-33 42 -53 86q-27 58 -43 117q-19 68 -19 142zM340 506q8 -49 10 -64q1 -7 6 -47q3 -24 13 -47l4 -12q3 -8 10 -19t18 -16q13 -6 29 0q10 3 31 55q22 55 22 136q0 62 -24 71q-27 10 -56 10l7 -8q-4 0 -25 -6q-26 -7 -39 -14 q-12 -6 -6 -39z" />
<glyph unicode="&#x432;" horiz-adv-x="1056" d="M27 823l2 -4q-12 35 6 53q25 21 67 43q52 27 111 46q70 23 141 34q83 13 160 13q40 0 107 -15q56 -13 135 -37q61 -19 121 -43q52 -21 61 -30q16 -16 29 -37q16 -26 16 -68q0 -52 -22 -94q-21 -40 -60 -68q-40 -29 -82 -45t-92 -26v-15q95 -14 172 -41q66 -24 86 -53 q14 -20 14 -67q0 -77 -43 -144t-116 -116t-172 -76t-211 -27q-131 0 -221 33q-98 36 -142 80l-12 14q-21 27 -21 68q0 9 1 22t2 33t2 35q4 87 8 127q4 45 12 139q5 59 16 123q-10 20 -22 41q-18 32 -23 43q-11 24 -18 37q-6 10 -12 22zM412 723l34 -10q22 -8 37 -23 q12 -12 9 -37v2q-1 -5 -3.5 -15t-3.5 -15q-3 -15 -6 -33q57 9 86 41t29 65q0 22 -19 31q-20 10 -47 10q-50 0 -116 -16zM459 291q4 -2 26 -2q45 0 86 30q39 29 39 76q0 22 -18 31q-16 8 -47 8q-19 0 -43 -4q-30 -5 -35 -6l-6 -131z" />
<glyph unicode="&#x433;" horiz-adv-x="786" d="M37 199q0 165 24 282q13 64 48 201q-36 51 -52 109q-9 25 0 43q8 17 25 30q56 36 137 60q101 30 227 41q32 4 64 4h80q51 0 76 -2q37 -3 55 -6q33 -6 59 -25t23 -72q0 -26 -2 -49q-2 -26 -13 -67q-9 -34 -24 -58t-39 -18t-80 12q-61 7 -102 4q-68 -5 -82 -6 q-42 -3 -72 -23l39 -30q23 -17 35 -37q11 -20 8 -45h-2q-3 -20 -16 -93.5t-21 -121.5q-21 -126 -33 -285q-3 -43 -49 -43q-103 0 -180 41q-76 40 -113 86q-20 26 -20 68z" />
<glyph unicode="&#x434;" horiz-adv-x="1044" d="M-82 -84l47 301q-3 23 6 41t25 18l86 7q32 52 49 94q25 64 37 104q18 64 25 101q9 50 12 84l2 32q3 36 12 80q8 39 8 64q3 32 19 61q16 28 30 31q32 4 46 6q16 2 53 6q20 2 84 2q23 0 141 -4q20 -3 66 -6q39 -3 77 -6q67 -4 99 -8q52 -6 76 -15t36 -24q13 -16 4 -43 q-2 -14 -6.5 -49t-7.5 -56q-9 -65 -18 -141q-2 -21 -9 -74t-10 -82q-5 -48 -14 -153q77 -3 92 0q21 -3 31 -19q9 -15 6 -37q-2 -4 -2 -20q0 -21 -2 -31l-25 -16q-15 -122 -24 -227q-9 -113 -15 -173q-6 -43 -49 -43q-21 0 -67 11q-35 8 -74 24q-35 14 -68 37q-30 21 -49 43 q-9 15 -18 49q-8 31 -8 52q0 12 2 24q3 15 6 43h-346h-11l-14 -49q-4 -13 -8 -47q-3 -25 -6 -58q-2 -18 -13 -81q-9 -44 -49 -41q-36 0 -73 12q-27 9 -70 31q-28 15 -62 41q-27 21 -45 36q-10 8 -14 29q-3 18 0 39zM381 285h137q3 77 12 164q3 33 10 93t9 83l-55 -2 q-13 -121 -45 -195q-37 -84 -68 -143z" />
<glyph unicode="&#x435;" horiz-adv-x="921" d="M20 412q0 124 41 227q39 99 105 174q64 73 141 117t152 47q70 4 88 4q27 0 67 -4q24 -2 58 -10q24 -5 61 -15q6 -3 43 -20q27 -12 49 -43q22 -32 31 -82q9 -53 -12 -135q-15 -58 -33 -88q-5 -8 -19.5 -31.5t-23.5 -38.5l2 -14q-48 -51 -100 -68t-105 -20q-48 -3 -88 6 t-49 18v-24q3 -58 25 -101q21 -40 36 -43q13 0 29 -2q24 -3 66 25l16 12l29 23q5 4 35 24q23 15 30 17q37 13 62 10q30 -3 59 -43q1 -3 19 -51q6 -16 18 -52q6 -27 0 -55q-6 -27 -25 -49q-46 -58 -125 -98q-76 -39 -198 -45q-111 -6 -191 18q-69 21 -112 47q-12 7 -45 37 q-34 31 -62 74q-31 48 -51 110q-23 71 -23 142zM424 530q49 -9 74 7q27 17 41 61q6 58 -13 68q-18 9 -39 6h-6q-29 -7 -41 -49q-13 -48 -16 -93z" />
<glyph unicode="&#x436;" horiz-adv-x="1492" d="M18 197q-3 14 13 36q28 45 71 97q46 56 84 116q-7 14 -22 42.5t-21 39.5q-39 75 -45 88q-31 64 -37 78q-15 35 -18 49q-9 18 -6 43q3 26 31 48q9 7 47 30q10 6 30.5 20t32.5 21q46 28 64 37q11 6 27.5 14t21.5 11q21 9 43 0t31 -25q28 -42 49 -127q17 -70 53 -172h31h37 q9 91 18 168t18 111q3 14 17 28q13 13 37 13q10 0 57 -7q40 -6 84 -12q32 -4 84 -16q42 -9 59 -15q27 -9 37 -41q9 -31 6 -59l-6 -22q-6 -26 -12 -74q-4 -34 -8 -105h55q6 16 41 93q6 14 43 90q7 15 20 41l19 38q17 36 33 58q9 15 30 24t43 0q21 -11 52 -24q23 -10 67 -33 q33 -17 66 -37q30 -18 45 -33q16 -16 22 -34t6 -37q0 -18 -6 -33q-7 -17 -12 -25q-3 -6 -14 -21.5t-15 -21.5q-1 -2 -17 -24.5t-24 -36.5q-8 -13 -24.5 -38t-22.5 -34q-5 -7 -49 -71q51 -94 86 -150q44 -71 78 -117q15 -21 12 -36q-3 -16 -18 -37q-18 -22 -51 -43 q-41 -26 -80 -45q-53 -26 -86 -37q-43 -15 -70 -15q-24 0 -49 31q-27 34 -49 82q-24 52 -45 117q-7 22 -21.5 65t-21.5 64h-25q-16 0 -26 2q-3 -88 -3 -164v-117q0 -23 -14 -43q-15 -21 -43 -24q-34 -3 -86 10q-36 9 -98 35q-45 19 -88 51q-39 29 -58 61q-18 30 -18 66v67 q0 22 4 84h-43q-16 -55 -39 -122q-21 -62 -45 -111q-25 -51 -51 -80q-28 -31 -57 -31q-21 0 -64 17q-27 11 -70 37q-18 11 -63 47q-28 22 -45 43q-16 23 -19 37z" />
<glyph unicode="&#x437;" horiz-adv-x="980" d="M25 309q-3 17 6 29q10 13 30 4q15 -8 50 -18q29 -9 65 -15q47 -8 68 -10q46 -4 51 -4h57q24 0 64 4q29 3 49 16q18 12 12 33q-6 19 -24 31q-17 11 -45 8l-72 -10q-8 0 -14 2q-16 6 -25 22q-18 36 -23 56q-8 31 -10 51q-6 33 6 51t37 21q63 2 129 10q51 6 51 28 q0 10 -14 21q-15 12 -43 12q-30 0 -68 -6q-44 -7 -73 -14q-23 -6 -68 -19q-11 -3 -29.5 -7.5t-23.5 -6.5q-31 -9 -43 6q-4 5 -12.5 15.5t-12.5 15.5q-4 3 -14 35q-10 29 -18 61q-1 5 -8 28.5t-9 35.5q-2 10 -4.5 24.5t-3.5 18.5l4 -13q-3 16 0 35t12 25q57 29 144 55 q92 27 237 18q48 -3 115 -24q56 -17 135 -49q44 -18 123 -56q53 -26 70 -36q11 -7 26 -29q13 -20 13 -62q0 -53 -25 -92q-24 -37 -61 -61q-47 -30 -76 -43q-43 -19 -68 -33v-6q0 -3 35 -6q33 -3 74 -21q38 -17 73 -55t35 -104q0 -56 -37 -111q-38 -56 -100 -98t-158 -70 q-92 -27 -204 -27q-58 0 -117 9q-56 9 -94 30q-64 56 -113 136q-46 75 -61 159z" />
<glyph unicode="&#x438;" horiz-adv-x="1087" d="M35 176q2 73 10 170q2 26 6 77.5t6 76.5q1 16 17 155q9 79 18 174q0 11 6 29q3 9 17 37q9 18 22 31q12 12 25 12q108 0 188 -12q79 -12 117 -62q20 -26 20 -69q-3 -53 -12 -111l-18 -117l2 8l-10 -61q-3 -6 -3 -16l-6 -74q3 -23 17 -27q16 -7 41 15t43 43q4 5 11.5 13.5 t10.5 12.5l21 25v6q10 82 24 158q17 89 25 190q3 24 18 47q16 25 37 25q112 0 189 -6q75 -6 116 -41q28 -22 25 -68q-3 -99 -12 -211q-9 -111 -21 -213q-12 -103 -18 -184q-6 -83 0 -129q3 -26 -13 -55q-15 -27 -49 -27q-51 0 -106 18q-16 5 -33 11.5t-34.5 13.5t-26.5 10 q-28 9 -46 49q-17 38 -20 64q-3 58 -12 102q-3 10 -11 6q-6 -3 -12 -12l-12 -18q-6 -9 -6 -13q-26 -51 -70 -104q-48 -58 -65 -86q-22 -28 -43 -37t-43 -6h-7q-32 6 -71 18q-9 3 -80 29q-24 9 -74 35q-29 15 -49 35q-8 8 -19 18.5t-14 13.5q-11 11 -8 39z" />
<glyph unicode="&#x439;" horiz-adv-x="1087" d="M35 176q2 73 10 170q2 26 6 77.5t6 76.5q1 16 17 155q9 79 18 174q0 11 6 29q3 9 17 37q9 18 22 31q12 12 25 12q108 0 188 -12q79 -12 117 -62q20 -26 20 -69q-3 -53 -12 -111l-18 -117l2 8l-10 -61q-3 -6 -3 -16l-6 -74q3 -23 17 -27q16 -7 41 15t43 43q4 5 11.5 13.5 t10.5 12.5l21 25v6q10 82 24 158q17 89 25 190q3 24 18 47q16 25 37 25q112 0 189 -6q75 -6 116 -41q28 -22 25 -68q-3 -99 -12 -211q-9 -111 -21 -213q-12 -103 -18 -184q-6 -83 0 -129q3 -26 -13 -55q-15 -27 -49 -27q-51 0 -106 18q-16 5 -33 11.5t-34.5 13.5t-26.5 10 q-28 9 -46 49q-17 38 -20 64q-3 58 -12 102q-3 10 -11 6q-6 -3 -12 -12l-12 -18q-6 -9 -6 -13q-26 -51 -70 -104q-48 -58 -65 -86q-22 -28 -43 -37t-43 -6h-7q-32 6 -71 18q-9 3 -80 29q-24 9 -74 35q-29 15 -49 35q-8 8 -19 18.5t-14 13.5q-11 11 -8 39zM231 1391 q3 10 13 24q9 12 28 31l33 27l-2 2q24 18 49 2q24 -15 49 -43q16 -18 50 -52q24 -24 49 -24q40 0 90 20q57 23 84 39q45 26 84 62q35 32 65 32q16 0 31 -18q14 -16 27 -43q7 -13 20 -49q3 -9 9.5 -22.5t7.5 -16.5q24 -52 12 -90q-12 -36 -60 -72q-61 -48 -133 -72 q-73 -24 -149 -24q-120 0 -203 59q-84 59 -133 158q-13 26 -19 41q-6 14 -2 29z" />
<glyph unicode="&#x43a;" horiz-adv-x="1081" d="M14 563q0 25 23 25h31q22 0 36 2q6 68 23 196q9 65 23 129q3 16 16 29q12 12 37 12q17 0 57 -6q67 -10 82 -12q32 -4 84 -16q42 -9 59 -15q25 -9 39 -22q11 -11 8 -41l-16 -17q-7 -28 -14 -96q-7 -67 -15 -139l78 6q17 38 45 92q4 9 21.5 41t25.5 49q7 15 21 41.5 t20 38.5q13 27 35 58q8 14 25 24q15 9 37 0q30 -15 53 -27q31 -16 70 -38q28 -16 67 -43q33 -23 47 -37q31 -31 10 -68l-36 -45q-8 -9 -27 -32t-29 -36q-14 -17 -63 -75q-50 -59 -62 -74q49 -80 109 -156q57 -72 90 -98q19 -16 16 -31q-3 -16 -18 -37q-15 -18 -43 -43 q-38 -33 -57 -47q-35 -24 -64 -37q-32 -14 -61 -14q-25 0 -62 29q-31 24 -67 73q-30 40 -68 105q-31 52 -61 121l-72 -6q-3 -51 -8 -162q-2 -49 -2 -115q0 -43 -51 -43q-28 0 -74 12q-36 9 -92 31q-27 11 -86 41q-37 19 -58 47q-18 24 -18 66q0 49 2 80q3 47 6 102 q-32 55 -49 100q-23 61 -23 78z" />
<glyph unicode="&#x43b;" horiz-adv-x="1067" d="M-43 170q0 14 39 70q23 38 61 108q39 74 60 129q27 73 35 121q9 56 -9 86q-2 2 -2 12q-7 29 -14 80q-6 44 -6 64q0 34 12 61q12 28 29 31q7 1 29.5 4.5t39.5 5.5q59 8 111 10q64 3 143 0q90 -3 168 -14q20 -4 43 -4q20 0 56 -4q77 -4 114 -8q61 -6 88 -15q23 -10 37 -24 q16 -16 13 -43l-5 -15q-6 -59 -12 -166q-7 -132 -12 -223q-4 -74 -8 -221q-2 -70 -2 -160q0 -19 -17 -43q-14 -20 -41 -20q-24 0 -76 10q-36 7 -92 25q-44 14 -86 36q-36 19 -57 43q-22 28 -25 68q-2 27 -2 92q0 33 4 111q1 18 3.5 57.5t3.5 61.5q2 39 10 118q-27 2 -80 2 h-80h4h4q22 -10 37 -43q15 -34 12 -61q-17 -128 -49 -240q-34 -119 -69 -215q-21 -49 -68 -49q-37 0 -86 6q-40 5 -96 23q-39 12 -86 37q-40 21 -56 43q-2 4 -7 12.5t-7 11.5q-6 9 -6 29z" />
<glyph unicode="&#x43c;" horiz-adv-x="1384" d="M49 229q-3 59 0 154q3 97 12 195q5 57 23 184q13 95 20 125q3 14 25 39q21 24 47 24q35 0 60 -2q21 -2 77 -10q30 -4 78 -16q38 -9 60 -25q19 -11 36 -31t37 -65q8 -18 60 -129q40 -85 84 -160q10 15 32.5 52t36.5 57q14 21 38 58t32 50q9 14 31.5 47.5t33.5 50.5 q26 40 56 74q41 47 71 53q28 6 56 2q16 -2 53 -6q10 -1 30.5 -3t30.5 -3q44 -4 60 -8q29 -6 43 -12q23 -10 37 -27q15 -18 12 -45l-2 -16q-4 -67 -14 -156q-12 -109 -21 -223q-13 -170 -16 -230q-6 -111 0 -172q3 -22 -15 -43t-43 -18q-34 3 -75 14q-39 10 -93 31 q-27 11 -86 41q-36 19 -57 43q-22 28 -25 67q-3 50 3 121q6 65 34 176q-8 -16 -27 -52.5t-30 -57.5q-9 -18 -47 -86l-6 -10q-4 -4 -4 -7q-13 -12 -37 -30q-21 -15 -37 -15q-37 -3 -76 13q-45 18 -59 22q-20 6 -33 25q-6 9 -20 37q-1 2 -37 61q-23 38 -45 86q-1 1 -3.5 3 t-3.5 3l-6 6q2 -43 2 -131q0 -86 -2 -125t-2 -106v-76q0 -22 -18 -37q-17 -14 -45 -14q-31 0 -74 12q-27 7 -88 35q-42 19 -86 45q-37 22 -55 47q-9 15 -15 45q-2 9 -3.5 18t-2.5 18t-2 13z" />
<glyph unicode="&#x43d;" horiz-adv-x="1089" d="M37 545q0 24 20 24h64q8 90 22 197q9 65 23 129q3 16 16 29q12 12 37 12q18 0 55 -6q63 -10 76 -12q14 -2 76 -17q46 -11 55 -14q21 -9 35 -23q13 -13 10 -41l-16 -6q-11 -41 -16 -96q-7 -67 -15 -139q37 3 72 6q32 3 61 6q5 58 23 180q10 69 22 119q3 15 17 29 q12 12 39 12q15 0 53 -6q10 -2 35.5 -6.5t40.5 -6.5q24 -4 76 -16q46 -11 55 -14q21 -9 35 -23q13 -13 10 -41q-14 -62 -25 -162q-9 -84 -20 -233q-9 -126 -15 -233q-6 -111 -6 -166q0 -43 -49 -43q-31 0 -74 12q-33 9 -86 31q-33 14 -79 43q-35 22 -56 47q-24 30 -24 65 q0 52 6 135q-8 -1 -18 -2t-22.5 -2t-19.5 -2q-27 -3 -65 -6q-3 -89 -6 -162q-2 -49 -2 -112q0 -43 -51 -43q-30 0 -74 12q-33 9 -86 31q-36 15 -80 43q-36 23 -53 47q-21 27 -21 67q0 51 2 84q3 44 6 109q-28 45 -45 92q-18 49 -18 72z" />
<glyph unicode="&#x43e;" horiz-adv-x="952" d="M18 373q0 99 29 209q26 100 80 178q53 76 123 123q71 47 153 47l-6 -6q113 0 195 -21q83 -21 110 -39q27 -16 48 -33q35 -28 61 -63q31 -41 51 -98q23 -64 23 -135q0 -107 -31 -209q-31 -101 -82 -176q-52 -76 -123 -123q-68 -45 -153 -45q-114 0 -193 20q-77 20 -117 37 q-11 7 -43 35q-29 25 -55 65q-29 44 -49 99q-21 58 -21 135zM391 348q0 -62 12 -80q11 -16 29 -20q11 0 23 12q4 4 14 31q11 28 16 65q10 70 13 93q6 53 6 108q0 62 -15 80t-30 18v-2q-12 0 -21 -12q-4 -2 -14 -29q-7 -19 -14 -65q-11 -73 -13 -92q-6 -53 -6 -107z" />
<glyph unicode="&#x43f;" horiz-adv-x="1038" d="M37 199q0 98 6 200q5 80 16 195q6 63 23 170q12 74 24 119q2 11 17 26q13 13 37 13q21 0 65 -7q37 -6 78 -12q29 -4 74 -16q27 -7 55 -19q24 -9 37 -22q11 -11 8 -37l-8 -41v-6q-2 -2 -2 -6l-4 -27v-2q2 -5 8 -2q4 2 12 10q5 5 13 17q1 2 3 5l3 4.5t2 2.5q38 42 53 61 q28 35 49 56q26 26 45 37q22 13 39 4q39 -13 62 -21q25 -9 67 -27q46 -20 66 -30q29 -15 49 -31q14 -10 33 -29q11 -11 8 -36l-6 -7q-2 -49 -11 -159q-6 -70 -12 -144q-6 -69 -12 -166q-4 -67 -8 -225q0 -43 -49 -43q-100 0 -187 41q-85 40 -119 86q-20 26 -20 68 q3 65 6 116q4 82 6 121q0 33 2 51q4 36 4 52q0 31 -2 41q-3 15 -14 18q-15 6 -39 -12q-27 -20 -43 -39l-35 -41q-8 -122 -10 -205q-1 -40 -10 -254q-3 -43 -49 -43q-105 0 -189 41q-85 42 -121 86q-20 26 -20 68z" />
<glyph unicode="&#x440;" horiz-adv-x="1032" d="M18 -305q0 63 7 196q9 166 14 238q6 82 18 250q4 56 19 231q9 111 18 183q9 73 19 104q3 14 16 27q12 12 37 12q36 0 61 -2q13 -1 37 -3t37 -3q48 -4 72 -8q29 -5 53 -13q23 -10 35 -22q11 -11 8 -37q-3 -15 -6 -49q-3 -37 -6 -80q4 -4 12 2q9 6 18 18q12 16 19 23l12 12 q9 11 24 31.5t21 28.5q10 13 41 49q15 17 37 32q19 13 37 7q31 3 74 -7q36 -8 73 -24q33 -14 62 -37q30 -23 41 -43q3 -6 12 -33q11 -32 16 -65q10 -60 11 -82q3 -45 0 -88v-8q0 -113 -27 -193q-27 -81 -70 -135q-42 -54 -94 -88q-50 -33 -100 -51t-86 -21q-50 -4 -51 -4 q-50 3 -82 35q-27 27 -39 43q-9 -154 -15 -307q-6 -150 -6 -265q0 -22 -12 -34t-33 -9q-103 9 -190 43q-90 35 -123 80q-21 35 -21 66zM420 248q37 0 74 24q33 21 67 60q33 38 49 71q21 43 23 62l6 55q0 45 -10 68q-8 19 -25 26q-16 6 -33 -2q-20 -10 -34 -24 q-42 -36 -68 -92q-28 -61 -37 -129z" />
<glyph unicode="&#x441;" horiz-adv-x="929" d="M12 412q0 124 35 227q36 105 92 176q59 73 135 117q77 44 160 47q107 6 166 -2q54 -7 129 -25q6 -4 47 -20q32 -13 55 -39q25 -28 31 -74q6 -44 -22 -123q-14 -55 -35 -90q-4 -7 -19 -31.5t-24 -39.5q-20 -17 -43 -27q-20 -9 -37 -12q-52 3 -94 16q-35 11 -64 37 q-9 3 -12 22t12 66q0 31 -6 43q-7 13 -12 16q-7 3 -17 0q-6 -2 -18 -2l-14 -12q-12 0 -21 -12q-11 -11 -28 -76q-20 -74 -17 -184q3 -63 21 -97t34 -37q13 0 31 -2q26 -3 68 25q1 1 3 2.5l6 4.5t7 5q4 3 31 21q6 4 18.5 12t18.5 12q7 5 18 13.5t12 9.5q37 13 62 10 q30 -3 59 -43q7 -21 19 -49q7 -18 18 -49q7 -30 4 -55q-3 -31 -20 -50q-23 -23 -53 -47q-29 -23 -68 -45q-43 -24 -86 -37q-50 -15 -107 -18q-55 -3 -104 6q-27 5 -88 23q-42 12 -68 24q-18 8 -43 23q-10 6 -45 34q-29 24 -57 68q-29 47 -49 102q-21 59 -21 136z" />
<glyph unicode="&#x442;" horiz-adv-x="870" d="M-4 856q-9 24 0 45t31 27q47 12 141 18q10 1 201 17q24 3 82 0q56 -3 122 -9q57 -5 119 -12q40 -4 74 -10q31 -8 49 -19q17 -10 29 -61q3 -8 6 -31q3 -21 6 -45q1 -8 3 -24.5t3 -24.5q3 -24 6 -45q3 -39 -12 -51q-14 -11 -33 -8q-16 5 -43 10q-37 7 -80 12q-78 10 -94 12 q-8 1 -40 5.5t-48 5.5l57 -45q23 -17 35 -37q11 -20 8 -45q-10 -59 -36 -215q-21 -126 -33 -285q-3 -43 -49 -43q-52 0 -99 12q-38 10 -82 31q-27 13 -63 37q-27 18 -45 33q-15 12 -18 30t-3 39q0 159 25 287q14 73 47 211l-69 -6q-37 -3 -62 -6l-14 -11q-36 4 -37 4 q-9 0 -12 3q-4 4 -7 10q-5 9 -18 28q-6 6 -12 27q-1 2 -6 19t-7 26l-12 47q-2 9 -5.5 21.5t-4.5 15.5z" />
<glyph unicode="&#x443;" horiz-adv-x="1083" d="M-2 770q0 29 2 43q2 16 10 43q5 17 17 33q24 24 55 35q38 13 74 16q54 4 80 4q50 0 73 2h29q13 0 37 -4q19 -3 31 -12t12 -27q3 -91 6 -168q2 -58 10 -141q5 -53 19 -125q11 -59 30 -119q54 141 82 201q62 135 80 170q38 75 68 127q29 50 49 74l24 24q16 16 35 19 q25 6 56 0q27 -6 59 -23q35 -19 53 -33q40 -30 47 -35q12 -9 27 -24t18 -37q3 -27 -6 -57t-24 -51q-41 -61 -93 -160q-44 -85 -98 -205q-47 -106 -98 -229q-36 -88 -92 -234q-29 -76 -76 -215q-33 -96 -55 -178q-3 -16 -15 -31q-13 -16 -26 -24q-18 -11 -37 -11 q-22 0 -49 15l-191 98q-20 9 -33 31q-13 23 -16 47q-3 25 0 49q3 26 6 37q19 53 62 158q45 111 86 200l-4 -2q-25 -2 -62 -2q-25 0 -43 12q-15 10 -33 35q-14 19 -30 60q-58 141 -93 282q-32 131 -61 295q-2 10 -2 37z" />
<glyph unicode="&#x444;" horiz-adv-x="1415" d="M-4 268q0 116 37 240q40 133 88 227q55 107 106 166q56 65 95 62q23 -3 55 -19q36 -18 61 -33q33 -20 56 -37q9 -7 21 -15.5t15 -10.5q6 42 25 176q7 52 25 150q4 25 12 64t10 52q7 37 16 74q2 12 17 27q12 12 37 12q38 0 67 -2q72 -5 88 -6q45 -3 86 -9q43 -6 60 -12 q23 -10 35 -22q11 -11 8 -37q-1 -3 -1.5 -9t-1.5 -12.5t-2.5 -17t-2.5 -19.5q-2 -13 -8 -48t-9 -58t-10.5 -72.5t-11.5 -74.5q-15 -106 -27 -179q30 27 49 35q9 9 25 12q2 2 10 2q53 10 90 5q44 -6 90 -33q50 -28 68 -37q32 -16 53 -37q24 -24 35 -55q13 -37 10 -92 q0 -136 -33 -248q-38 -128 -82 -207q-51 -91 -104 -141q-55 -52 -102 -49q-67 3 -125 28q-47 20 -80 41q-21 -179 -33 -321q-11 -138 -8 -236q0 -23 -14 -43q-15 -21 -56 -18q-44 3 -94 22q-39 15 -86 43q-33 19 -70 53q-27 24 -49 50q-7 12 -14 36q-6 21 -6 41q0 84 8 191 q6 86 25 264q-3 -3 -9.5 -9t-9.5 -9q-4 -3 -8 -8l-4 -5q-53 -41 -92 -61q-45 -23 -68 -31q-2 -2 -10 -6q-4 -2 -12 -2q-18 6 -58 18q-30 9 -76 43q-58 46 -82 95t-18 118zM332 266q6 -39 22 -39q30 0 62 29q33 30 47 55l4 4q7 71 22 191l25 188q-33 -13 -55 -45 q-33 -47 -45 -69q-26 -46 -37 -74q-17 -42 -19 -57q-9 -51 -24 -91q-8 -49 -2 -92zM864 227q26 26 51 62q29 41 43 71q23 47 31 68q15 38 17 49q1 6 3 18.5t3 18.5t3 18.5t3 18.5q9 55 0 98t-25 43q-22 0 -45 -20q-25 -22 -37 -43z" />
<glyph unicode="&#x445;" horiz-adv-x="966" d="M6 182q0 16 6 25q37 62 97 143q67 90 98 129q-8 16 -21.5 44.5t-25 51.5l-21.5 43q-16 31 -57 121q-10 20 -10 47q0 31 14 48q15 20 53 45q44 28 80 43q49 20 84 28q41 9 66 0q20 -7 34 -32q18 -33 31 -70q26 -75 31 -92q3 -9 14 -45t17 -56q46 88 84 146q50 78 69 102 q8 11 35 21q24 9 41 2q23 -6 43 -21q27 -19 43 -33q35 -30 41 -36q15 -15 35 -31q7 -5 18 -19q10 -13 15 -26q6 -15 6 -31t-8 -24l8 -23q-62 -86 -95 -129q-8 -10 -42 -55t-52 -68q10 -21 56 -111q15 -29 55 -98q10 -20 10 -45q0 -28 -14 -45q-15 -21 -45 -45 q-42 -34 -64 -47q-45 -28 -67 -37q-32 -14 -58 -14q-16 0 -37 24q-24 28 -43 64q-26 51 -43 90q-39 91 -43 102q-55 -93 -86 -141q-50 -78 -69 -102q-8 -11 -35 -21q-24 -9 -41 -2q-35 13 -88 45q-51 31 -80 57q-7 5 -18 19q-7 10 -15 29q-6 15 -6 30z" />
<glyph unicode="&#x446;" horiz-adv-x="1214" d="M35 172q3 92 12 186q4 42 23 187q10 73 28 178q12 70 31 158q3 21 16 37q12 15 39 12q109 -9 185 -27q68 -16 112 -37q16 -10 19 -30q2 -14 2 -43q-3 -53 -15 -117q-16 -86 -22 -129l2 4l-10 -64q-2 -2 -2 -12l-6 -72q3 -22 16 -28q16 -7 41 18q19 19 43 47q5 5 13.5 15 t12.5 14q14 14 23 29l45 348q3 21 16 47q13 25 35 25q112 0 191 -21q77 -20 116 -39q12 -6 21 -27t6 -43q-3 -13 -9.5 -48.5t-10.5 -57.5q-12 -59 -21 -127q-6 -43 -14 -129q-6 -64 -6 -117h47q17 0 49 4q42 3 65 -14q25 -19 37 -37q12 -17 23 -43q12 -30 18 -57 q7 -30 4 -58q-3 -34 -20 -53l-21 -28q-57 -70 -114 -136q-82 -95 -140 -190q-10 -15 -28 -33q-15 -15 -37 -12q-36 9 -86 39q-49 30 -74 61q-21 30 -18 70q3 35 22 82q17 40 43 78q16 27 35 38q15 9 12 19q-3 9 -20 0q-18 -9 -39 -12q-14 -3 -31 4q-4 2 -12.5 5.5t-11.5 4.5 q-26 10 -29 43q-3 30 -6 57l-6 86q-4 4 -4 19q-3 27 -13 30q-9 3 -18 -6q-16 -16 -19 -20q-2 -3 -5 -7t-4.5 -6.5t-2.5 -3.5q-6 -10 -18.5 -30t-16.5 -27q-18 -30 -36 -57q-30 -45 -35 -53q-14 -22 -29 -41q-20 -32 -43 -39q-19 -5 -49 -2h-6h-6h-13l-24 6q-24 6 -29 8 q-49 13 -108 47q-52 30 -74 55l-33 33q-11 11 -8 39z" />
<glyph unicode="&#x447;" horiz-adv-x="974" d="M43 543q-3 49 0 67q3 103 18 174q9 45 35 136q2 11 17 26q12 12 37 12q15 0 73 -10q51 -9 92 -24q23 -10 35 -19t27 -18q22 -16 31 -43q9 -28 6 -56q-8 -61 -15 -106q-2 -14 -8 -66v-24q0 -13 6 -25q6 -11 19 -18q14 -7 41 -4q15 0 30 6q23 9 31 14q9 62 31 203 q15 94 24 141q3 14 23 31q17 14 45 14q16 0 43 -6q39 -9 55 -14q9 -3 28 -9.5t28 -9.5q27 -9 45 -18q13 -7 24 -20q18 -23 25 -33q11 -17 18 -37t4 -33l-8 -10q-13 -67 -24 -162q-11 -88 -27 -199q-17 -114 -27 -192q-11 -87 -18 -148q-6 -43 -49 -43q-27 0 -66 17 q-22 9 -67 37q-33 20 -62 49q-35 35 -47 49q-9 15 -18 49q-9 35 -9 51v45q0 9 5 54q-54 -30 -82 -41q-49 -19 -76 -19t-68 13q-31 10 -73 30q-36 17 -68 43q-31 25 -47 47q-34 49 -37 99z" />
<glyph unicode="&#x448;" horiz-adv-x="1478" d="M39 211q0 58 6 160q6 100 18 209q7 61 25 200q9 72 23 133q3 16 16 29q12 12 37 12q18 0 55 -6q44 -7 80 -12q26 -4 82 -16q36 -8 57 -15q27 -10 37 -20q12 -12 6 -37q-6 -36 -12 -92q-6 -58 -12 -129q-1 -10 -6 -64.5t-7 -85.5q-8 -108 -10 -153l74 -5q3 77 12 164 q3 33 10 93t9 83q9 85 18 156t18 105q3 14 17 28q13 13 37 13q9 0 53 -7t80 -12q26 -4 82 -16q38 -8 61 -15q27 -10 37 -20q11 -11 8 -37q-2 -9 -14 -94q-7 -46 -14 -135q-1 -17 -6 -70.5t-7 -83.5q-8 -107 -10 -156h78q3 75 12 166q3 36 10 99.5t9 78.5q10 97 18 158 q9 71 18 105q3 15 13 28t30 13q11 0 58 -7q67 -10 82 -12q32 -4 84 -16q38 -8 61 -15q26 -11 35 -20q11 -11 8 -37l-6 -14q-7 -39 -20 -162q-12 -116 -21 -229q-5 -70 -14 -232q-6 -111 -6 -164q0 -39 -35 -45q-15 -3 -49 -6q-36 -3 -95 -6q-63 -3 -155 -6q-63 -2 -228 -2 q-122 0 -233 6q-121 7 -203 20q-90 15 -164 43q-71 27 -114 70l-13 14q-20 26 -20 68z" />
<glyph unicode="&#x449;" horiz-adv-x="1521" d="M45 346q0 107 6 221q5 99 19 213q12 100 30 140q5 12 23 30q15 15 41 15h41q39 0 59 -2l66 -11q34 -6 61 -18q14 -7 25 -21q16 -20 22 -32q8 -16 15 -37q6 -17 2 -31q-8 -42 -13 -80q-6 -54 -12 -110q-6 -61 -12 -129q-4 -42 -8 -134h47h51q2 45 10 152q7 93 12 154 q2 31 13 133q6 56 12 92q6 29 29 49q21 18 61 18q65 0 123 -18q53 -16 98 -33q14 -3 23 -16t16 -29q4 -11 8 -33q3 -18 0 -30q-6 -29 -12 -80q-8 -65 -10 -107q-3 -58 -6 -123l-6 -129h92q2 43 10 146q4 57 16 151l19 140q9 65 18 108q3 16 25 35q21 18 43 18q29 0 49 -2 q40 -4 63 -6q28 -2 66 -10t53 -14q35 -15 56 -64t18 -104q-6 -60 -21 -174l-30 -222h4h4q43 6 66 -8q25 -15 40 -43q17 -31 25 -61q9 -35 12 -68v-12v-12l6 -35v-8v-4l3 -2q3 -8 6 -31q3 -22 -6 -49l2 -15q-13 -51 -43 -129q-23 -60 -80 -174q-9 -20 -31 -33q-20 -11 -43 -8 q-14 2 -47 6q-11 1 -60 11q-26 5 -55 16q-24 9 -37 25q-11 18 -16 39q-7 27 -4 45q3 34 12 96q8 56 25 108q-99 -11 -172 -16q-91 -6 -191 -6q-188 0 -338 12q-138 11 -248 41q-32 7 -73 25q-33 14 -49 37q-11 18 -11 30q0 9 -4 37q-8 55 -8 170z" />
<glyph unicode="&#x44a;" horiz-adv-x="1081" d="M-43 762q-6 21 10 53q15 31 43 43q55 24 129 62q63 32 135 61q3 1 23 6q12 3 22 -4q22 -3 56 -12q7 -2 32 -9t39 -10q40 -10 70 -20q12 -4 29 -10.5t22 -8.5q21 -9 37 -41q15 -30 12 -59h-22q-1 -9 -4.5 -34t-5.5 -42q-1 -9 -6 -46t-7 -58q89 21 164 12q71 -9 129 -37 q56 -27 92 -63q35 -35 52 -66q3 -12 6 -39q4 -36 4 -49q0 -84 -41 -155q-39 -69 -105 -119q-64 -49 -149 -76t-174 -27h-39q-13 0 -37 4q-17 0 -27 2q-5 1 -15 3.5t-15 3.5l-27 6q-2 2 -8 2l-25 8q-56 17 -110 45q-52 27 -74 55q-21 30 -18 66q3 39 6 82q1 21 10 106t14 121 q3 21 9.5 62t9.5 61l-29 -20q-23 -10 -37 -21q-17 -14 -37 -25q-39 -9 -59 5q-19 13 -35 41q-11 19 -22 55q-8 28 -27 86zM537 303q2 -2 16 -2q7 0 35 4q47 9 78 31q30 21 30 67q0 37 -20 60q-21 24 -49 24v-6q-31 0 -43 -2q-30 -5 -35 -6q-1 -15 -3 -43.5t-3 -42.5 q-3 -43 -6 -84z" />
<glyph unicode="&#x44b;" horiz-adv-x="1419" d="M43 229q6 55 18 160q3 28 12 98.5t13 108.5q6 50 25 197q13 100 20 131q3 15 23 28q19 13 43 13q13 0 53 -7q34 -6 72 -18q34 -11 71 -27q36 -15 53 -30q20 -14 39 -43q18 -27 15 -56l-4 -14q-2 -17 -17 -72q-10 -36 -20 -98q26 9 49 12q22 3 43 0q24 -5 47 -14 q9 -4 32 -14t36 -15q33 -13 69 -32q31 -16 49 -27q28 -19 37 -59q8 -36 8 -68q0 -87 -30 -158t-82 -123t-129 -79q-76 -27 -168 -21q-128 9 -215 55q-87 45 -131 93q-11 7 -13 14q-21 30 -18 65zM416 266l2 -4h18q5 0 25 4q30 8 63 41q31 31 31 78q0 25 -14 53 q-15 31 -43 31q-35 0 -62 -6q-4 -35 -12 -101q-4 -32 -8 -96zM913 209q0 43 7 158q6 95 18 196q6 50 25 185q12 86 18 126q6 35 27 56q20 20 55 20q19 0 49 -6q46 -9 62 -14q36 -11 59 -21q34 -15 47 -26q33 -26 55 -62t19 -78l-4 -4q-9 -59 -21 -153q-9 -71 -20 -199 q-3 -30 -19 -197q-9 -92 -12 -147q-3 -43 -51 -43q-31 0 -74 12q-31 9 -86 35q-27 13 -80 47q-36 23 -53 47q-21 27 -21 68z" />
<glyph unicode="&#x44c;" horiz-adv-x="933" d="M35 197q2 42 16 163q11 99 27 215q3 23 13 96t15 109q6 47 19 135q3 16 16 29q12 12 37 12q22 0 53 -8q51 -13 72 -20q2 0 72 -25q23 -8 53 -18q22 -9 37 -37q15 -27 12 -55l-22 -7q-3 -23 -9 -73q-9 -72 -14 -101q94 22 164 11q74 -12 129 -39t92 -64q36 -36 49 -65 q11 -33 11 -74q0 -88 -39 -156q-39 -69 -105 -119q-61 -47 -147 -75q-82 -27 -172 -27h-43h-25q-30 0 -74 12q-33 9 -86 31q-26 11 -80 41q-37 21 -53 43q-21 30 -18 66zM403 373q0 -15 5 -88h12q4 0 24 4q43 8 80 37q33 26 33 73q0 22 -25 50q-23 26 -51 26q-42 0 -75 -10 q-3 -47 -3 -92z" />
<glyph unicode="&#x44d;" horiz-adv-x="774" d="M8 238q-9 22 6 43t43 12l13 -23q22 -16 53 -22q30 -6 67 -6q32 0 70 10q34 9 55 24q14 11 29 80h-59q-18 0 -58 4q-26 3 -43 11q-21 15 -30 55t-9 61q0 7 7 25q6 14 28 14h80q63 0 98 2v17q-3 64 -20 96q-18 34 -33 37q-21 0 -31 -2q-15 0 -30 -6q-17 -7 -25 -15 q-31 -22 -61 -10q-31 12 -43 47q-1 4 -5 16t-6 19t-12 47t-12 47l-10 35q-12 60 20 74q46 21 111 33q72 13 123 16q49 3 84 -8q33 -11 67 -31q33 -20 53 -37q15 -13 37 -26q18 -11 41 -31q27 -24 49 -58q27 -42 43 -92q18 -56 21 -131q3 -125 -25 -233q-27 -105 -82 -178 q-54 -72 -135 -113q-77 -39 -184 -39q-142 0 -203 64t-82 172z" />
<glyph unicode="&#x44e;" horiz-adv-x="1404" d="M43 573q0 23 25 23h57q8 90 22 197q9 65 23 129q3 16 12 28q10 13 35 13q10 0 57 -7q68 -10 82 -12q26 -4 82 -16q43 -10 62 -15q26 -10 35 -22t6 -37l-6 -8q-9 -35 -15 -98q-10 -110 -14 -142l82 6q15 79 39 142q24 66 61 114q41 54 82 78q50 29 104 29q44 0 87 -6 q36 -5 81 -15q39 -9 70 -18q34 -10 47 -18q21 -10 49 -33q34 -27 62 -68q31 -44 51 -104q22 -64 22 -142q0 -112 -30 -217q-29 -103 -86 -184t-129 -127q-74 -47 -160 -47q-73 0 -145 16q-59 13 -101 35q-15 9 -33 27q-17 17 -36 53q-20 39 -31 86q-14 63 -17 125l-88 -6 q-3 -47 -8 -160q-2 -47 -2 -111q0 -45 -45 -45q-26 0 -76 13q-40 10 -94 30q-40 15 -88 43q-32 19 -57 48q-19 32 -19 67q0 51 2 84q3 44 6 109q-28 45 -45 92q-18 50 -18 71zM825 377q0 -66 15 -84t30 -21l2 -2q14 0 25 11q2 4 12 34q11 32 19 72q7 33 14 96q6 53 6 111 q0 67 -14 84q-15 18 -31 18q-12 0 -24 -12q-10 -10 -25 -70q-17 -69 -25 -147l17 -39q18 -40 -19 -49z" />
<glyph unicode="&#x44f;" horiz-adv-x="999" d="M0 203q17 26 37 49q24 28 39 43q29 29 41 43q21 25 41 53q-29 23 -49 53q-21 32 -29 50q-23 58 -23 102t4 72q34 156 127 227q93 72 273 72q85 0 174 -27q94 -29 174 -61q5 -5 10 -5l17 -8l14 -6l20 -6l-2 -2q12 -7 43 -29q27 -27 21 -67q-9 -57 -21 -164 q-9 -77 -20 -215q-3 -37 -19 -205q-11 -113 -14 -135q-3 -16 -14 -27q-12 -12 -37 -12q-17 0 -51 12q-13 5 -37.5 15.5t-32.5 13.5q-13 5 -70 35q-24 13 -51 35q-20 16 -35 41q-15 24 -12 53l-2 49l-96 29q-10 -26 -43 -115q-15 -41 -47 -98q-23 -42 -49 -68t-50 -23 q-23 3 -61 19q-29 13 -64 37q-30 21 -57 45q-28 25 -43 43q-33 42 -6 82zM387 573q0 -14 16 -43q16 -28 80 -43q38 -10 54 -10l4 -2q8 59 10 86q3 43 6 84q-28 14 -37 17q-23 8 -35 10q-48 3 -73 -19t-25 -80z" />
<glyph unicode="&#x451;" horiz-adv-x="964" d="M20 432q0 124 41 227q40 101 105 175q63 72 141 116q77 44 152 47q70 4 88 4q27 0 67 -4q24 -2 58 -10q50 -11 61 -14q12 -7 43 -21q27 -12 49 -43q22 -32 31 -82q9 -53 -12 -135q-15 -58 -33 -88q-5 -8 -19.5 -31t-23.5 -38l2 -15q-47 -50 -100 -67q-56 -18 -105 -21 q-48 -3 -88 6q-39 9 -49 19v-25q3 -57 25 -100q21 -40 36 -43q13 0 29 -2q25 -3 66 24q4 4 16 13l29 22q13 10 35 25q20 14 30 16q37 13 62 10q30 -3 59 -43q1 -3 19 -51q9 -24 18 -51q6 -28 0 -55q-6 -28 -25 -50q-46 -58 -125 -98q-76 -39 -198 -45q-109 -6 -191 19 q-69 21 -112 47q-15 9 -45 36q-34 31 -62 74q-30 46 -51 111q-23 71 -23 141zM182 1233q0 44 17 78q15 29 24 65q3 9 23 29q18 18 39 18q39 0 86 -6q45 -6 86 -33q16 -10 30 -32q16 -25 13 -45l-8 4q-9 -39 -15 -56q-2 -6 -8 -30q-3 -12 -6 -21l-8 -30q-6 -14 -23 -35 q-16 -19 -35 -19q-75 0 -125 13q-46 12 -73 49q-17 24 -17 51zM424 551q50 -9 74 6q27 17 41 61q6 58 -13 68q-18 9 -39 6h-6q-29 -7 -41 -49q-13 -48 -16 -92zM600 1229q0 46 16 78q17 34 25 65q3 9 23 29q18 18 38 18q40 0 86 -6q45 -6 86 -33q18 -11 31 -32 q16 -25 13 -45l-9 4q-12 -50 -14 -56t-8 -30q-3 -12 -6 -21l-9 -31q-6 -15 -22 -34t-35 -19q-79 0 -125 12q-47 12 -74 50q-16 22 -16 51z" />
<glyph unicode="&#x452;" horiz-adv-x="1136" d="M0 1100q0 27 16 43t25 16q27 -3 68 0q47 3 86 6q21 139 26 168q13 74 21 99q2 12 16 26q12 12 37 12q27 0 65 -6t78 -12q29 -4 74 -16q27 -7 55 -19q24 -9 37 -22q11 -11 8 -37q-12 -57 -24 -156q54 4 74 4q41 0 55 -2q26 6 51 -22q8 -8 16 -27q12 -28 19 -49 q11 -34 16 -55q6 -27 6 -50q0 -29 -9.5 -42.5t-29.5 -12.5q-37 3 -100 0q-64 -3 -135 -6l-33 -295q7 -3 23 19q15 21 18 24q41 41 86 96q41 51 74 62q8 4 18 4q20 -5 62 -19q46 -16 71 -26q30 -12 68 -31q32 -16 53 -31q17 -12 33 -28q11 -11 8 -37l-6 -16q-3 -64 -6 -99 q-3 -32 -6 -61q-3 -25 -6 -62q-1 -10 -5 -42.5t-6 -55.5q-18 -165 -55 -289q-40 -136 -80 -219q-49 -102 -82 -153q-36 -54 -55 -89q-7 -13 -29 -43q-18 -24 -41 -14q-46 23 -53 27q-21 12 -39 24q-11 7 -33 25q-15 12 -36 27q-16 10 -25 30q-9 21 4 37q29 37 49 96 q30 88 49 148q25 90 35 178q19 163 23 209q-3 24 0 55q2 20 2 58q0 35 -2 47q-3 19 -15 22q-15 6 -39 -12q-27 -20 -43 -39q-3 -3 -7.5 -8.5t-6.5 -7.5t-12 -17q-16 -201 -17 -213q-9 -154 -10 -178q-3 -43 -49 -43q-104 0 -188 41q-85 42 -121 86q-21 27 -21 68q0 51 6 131 q7 89 15 176q4 45 22 200q4 38 13 108.5t12 98.5q-40 -3 -62 13q-21 15 -30 30q-23 40 -51 80q-25 36 -25 68z" />
<glyph unicode="&#x453;" horiz-adv-x="786" d="M37 199q0 165 24 282q13 64 48 201q-36 51 -52 109q-9 25 0 43q8 17 25 30q56 36 137 60q101 30 227 41q32 4 64 4h80q51 0 76 -2q37 -3 55 -6q33 -6 59 -25t23 -72q0 -26 -2 -49q-2 -26 -13 -67q-9 -34 -24 -58t-39 -18t-80 12q-61 7 -102 4q-68 -5 -82 -6 q-42 -3 -72 -23l39 -30q23 -17 35 -37q11 -20 8 -45h-2q-3 -20 -16 -93.5t-21 -121.5q-21 -126 -33 -285q-3 -43 -49 -43q-103 0 -180 41q-76 40 -113 86q-20 26 -20 68zM295 1112q3 22 12 25q7 10 25.5 34.5t29.5 40.5q10 14 31 43t31 43q17 24 61 84q30 40 62 66h2 q19 16 53 10q10 0 25 -12q20 -16 35 -31q18 -18 36 -39q21 -25 31 -37q15 -21 12 -36q-3 -16 -12 -25q-33 -33 -63 -57q-34 -27 -74 -64q-15 -14 -40 -36t-28 -25q-31 -28 -49 -49q-27 -27 -51 -27q-19 0 -39 4q-21 9 -33 12t-18 6q-2 1 -12 11l-15 16q-15 21 -12 43z" />
<glyph unicode="&#x454;" horiz-adv-x="929" d="M14 410q0 124 35 227q36 105 92 176q59 73 135 117q77 44 160 47q107 6 166 -2q54 -8 129 -25q6 -4 47 -20q33 -13 56 -39q24 -27 30 -74q6 -44 -22 -123q-9 -30 -15 -45t-12 -24q-10 -15 -14 -19q-8 -8 -21 -31q-18 -15 -43 -26q-20 -9 -37 -12q-52 3 -94 16 q-33 11 -63 37q-10 3 -19 22t6 66q3 29 -2 37q-6 9 -24 18q-23 10 -35 -8q-8 -12 -16 -20q-9 -6 -27 -46q-20 -45 -31 -104q46 4 62 4q35 0 49 -2l-14 -18q26 6 51 -23q14 -17 22 -45q13 -45 19 -68q3 -23 -9 -38q-13 -16 -28 -13q-18 2 -70 2q-59 0 -94 -2q12 -40 33 -67 q22 -28 33 -31q12 0 30 -2q27 -3 68 24q4 4 16 13q4 3 15 10t16 10q6 4 18.5 12.5t18.5 12.5q15 10 31 22q39 13 61 11q30 -3 59 -43q8 -25 19 -39q9 -12 18 -39q7 -31 4 -56q-3 -29 -20 -49q-23 -23 -53 -47q-29 -23 -68 -45q-43 -24 -86 -37q-50 -15 -107 -18 q-55 -3 -104 6q-27 5 -88 23q-42 12 -68 24q-18 8 -43 23q-10 6 -45 34q-29 24 -57 68q-29 47 -49 102q-21 58 -21 136z" />
<glyph unicode="&#x455;" horiz-adv-x="784" d="M16 649q8 47 37 99q26 48 68 90q41 41 92 67q55 28 111 31t86 -2q27 -5 61 -16q33 -11 53 -21t58 -20q16 -10 47 -19q33 -10 59 -33q27 -24 39 -67t-12 -113q-7 -21 -19 -45q-11 -21 -18 -31q-9 -12 -21 -24t-24 -33q-14 -12 -37 -35q-15 -15 -31 -18q-29 10 -55 24 q-24 13 -55 41q-8 3 -15 23q-5 15 11 65q9 34 -13 50q-21 15 -43 18q-28 3 -43 -6q-13 -8 -20 -25q-6 -15 -6 -31v-20l-11 -20q-9 -57 13 -93q20 -32 59 -51q42 -20 84 -31q51 -13 90 -32q43 -21 78 -56q34 -34 43 -92q12 -74 -16 -125q-26 -47 -80 -75q-53 -27 -119 -33 q-67 -6 -135 6q-52 8 -92 22q-33 11 -60 25q-26 13 -43 27q-7 6 -23.5 18.5t-23.5 17.5q-56 65 -65 127q-10 67 -5 86q6 28 13 31q6 3 45 -6q14 -10 37 -22q37 -19 49 -23q35 -13 45 -16q21 -6 24 -9q10 -5 25 -10q11 -4 41 -8q21 -3 39 0q17 3 20 18q3 25 -24 43 q-32 21 -70 37q-15 6 -45.5 20t-46.5 21q-44 19 -88 56q-42 36 -61 81q-22 51 -7 117z" />
<glyph unicode="&#x456;" horiz-adv-x="641" d="M57 201q3 238 29 430q16 114 41 264q3 28 41 43q40 16 61 16q22 0 60 -10q15 -4 67 -22q27 -9 66 -25q25 -10 49 -18q20 -9 43 -41q21 -30 18 -56l-6 -6q-10 -56 -24 -121q-20 -93 -29 -163q-14 -108 -22 -207q-11 -139 -11 -252q0 -43 -45 -43q-52 0 -98 14 q-41 12 -92 37q-28 13 -76 47q-27 18 -51 47q-21 34 -21 66zM160 1257q0 121 51 201q15 25 18 29q9 12 37 12q61 0 121 -14q68 -16 123 -51q19 -13 43 -48q21 -30 18 -57l-16 -4q-5 -54 -12 -104q-4 -30 -23 -101q-7 -23 -14 -33q-9 -12 -33 -12q-104 0 -180 31 q-71 29 -113 80q-20 26 -20 71z" />
<glyph unicode="&#x457;" horiz-adv-x="641" d="M8 1237q0 44 17 78q15 29 24 65q3 9 23 29q18 18 39 18q39 0 86 -6t86 -32q15 -9 30 -33q16 -25 13 -45l-9 4q-11 -46 -14 -55q-1 -3 -8 -31q-3 -12 -6 -21l-8 -30q-6 -14 -23 -35q-16 -19 -35 -19q-75 0 -125 13q-46 12 -73 49q-17 24 -17 51zM57 201q3 238 29 430 q16 114 41 264q3 28 41 43q40 16 61 16q22 0 60 -10q15 -4 67 -22q27 -9 66 -25q25 -10 49 -18q20 -9 43 -41q21 -30 18 -56l-6 -6q-10 -56 -24 -121q-20 -93 -29 -163q-14 -108 -22 -207q-11 -139 -11 -252q0 -43 -45 -43q-52 0 -98 14q-41 12 -92 37q-28 13 -76 47 q-27 18 -51 47q-21 34 -21 66zM410 1241q0 46 16 78q17 34 25 65q3 10 22 29t39 19q32 0 86 -7q47 -6 86 -32q17 -10 31 -33q15 -24 12 -45l-8 4q-11 -46 -14 -55q-5 -15 -9 -31q-3 -12 -6 -21l-8 -30q-6 -14 -23 -35q-16 -19 -34 -19q-75 0 -125 13q-48 12 -74 49 q-16 22 -16 51z" />
<glyph unicode="&#x458;" horiz-adv-x="704" d="M-408 -168q-3 8 7 18q14 14 20 17q12 6 27 6q16 0 24 -8q21 -10 49 -33q27 -21 50 -33q61 -25 81 -30q16 -4 41 -9q37 -3 70 7q30 9 51 24q22 16 35 35t16 35h-10q0 10 8 37q12 38 19 77q8 41 18 103q2 13 6 34.5t6.5 38t4.5 31.5q-3 10 0 23l4 28v7v6v-2q39 224 55 391 q14 150 31 246q3 28 41 43q40 16 61 16q22 0 55 -10q18 -5 62 -23q50 -20 59 -24q30 -13 47 -19q20 -9 43 -41q22 -31 19 -55q-19 -107 -55 -276q-37 -172 -52 -449l-4 -23q-9 -132 -47 -245q-37 -110 -96 -187q-56 -73 -135 -118q-76 -43 -162 -43q-109 0 -186 18 q-76 18 -101 43q-37 37 -55 63q-28 40 -43 74q-24 55 -35 90q-20 65 -29 117zM219 1264q0 120 51 200q11 18 19 29q9 12 37 12q60 0 120 -14q68 -16 123 -51q20 -14 43 -47q22 -31 19 -58l-17 -4q-6 -54 -12 -104q-5 -38 -22 -101q-6 -19 -15 -32q-10 -13 -33 -13 q-104 0 -180 31q-70 29 -112 80q-21 27 -21 72z" />
<glyph unicode="&#x459;" horiz-adv-x="1492" d="M-41 170q0 14 39 70q23 38 61 108q39 74 60 129q27 73 35 121q9 56 -9 86q-2 2 -2 12q-7 29 -14 80q-6 44 -6 64q0 34 12 61q12 28 29 31q7 1 29.5 4.5t39.5 5.5q59 8 111 10q64 3 143 0q90 -3 168 -14q24 -4 47 -4q20 0 56 -4q72 -4 110 -8q59 -6 86 -15q23 -10 37 -24 q16 -16 13 -43l-9 -13q-6 -83 -8 -102q-4 -44 -8 -135q95 27 172 18q74 -9 135 -37q58 -27 96 -65q40 -40 54 -68q10 -30 10 -73q0 -88 -39 -156q-40 -70 -104 -119q-63 -48 -148 -76q-79 -26 -172 -26h-39q-15 0 -35 4q-23 0 -75 10q-39 8 -93 25q-44 14 -86 36 q-36 19 -57 43q-22 28 -25 68q-2 27 -2 92q0 33 4 111q1 18 3.5 57.5t3.5 61.5q2 39 10 118q-27 2 -80 2h-80h4h4q22 -10 37 -43q15 -34 12 -61q-17 -128 -49 -240q-34 -119 -69 -215q-21 -49 -68 -49q-37 0 -86 6q-40 5 -96 23q-39 12 -86 37q-39 20 -55 43q-9 15 -15 24 t-6 29zM958 266h15h18q5 0 25 4q43 8 80 37q32 25 32 74q0 22 -24 49t-51 27q-28 0 -49 -6q-19 -5 -37 -9q-4 -62 -4 -90q0 -57 -2 -84z" />
<glyph unicode="&#x45a;" horiz-adv-x="1501" d="M37 545q0 24 20 24h64q8 90 22 197q9 65 23 129q3 16 16 29q12 12 37 12q18 0 55 -6q63 -10 76 -12q14 -2 76 -17q46 -11 55 -14q21 -9 35 -23q13 -13 10 -41l-26 -10q-12 -47 -17 -96q-11 -117 -14 -139q37 3 72 6q32 3 61 6q5 58 23 180q10 69 22 119q3 15 17 29 q12 12 38 12q16 0 54 -6q11 -2 35.5 -6.5t39.5 -6.5q24 -4 76 -16q50 -12 56 -14q19 -8 34 -23q14 -14 11 -41q-9 -35 -15 -92q-6 -59 -12 -129q92 27 170 18q77 -9 135 -36q59 -27 96 -64q36 -36 52 -68q3 -13 6 -38q4 -36 4 -50q0 -84 -41 -155q-39 -69 -105 -119 q-64 -49 -149 -76q-82 -26 -174 -26h-31q-11 0 -31 4q-2 -2 -12 -2q-22 0 -70 10q-28 6 -88 29q-35 14 -81 43q-40 25 -54 51q-24 30 -24 65q0 52 6 135q-8 -1 -18 -2t-22.5 -2t-19.5 -2q-27 -3 -65 -6q-3 -89 -6 -162q-2 -49 -2 -112q0 -43 -51 -43q-30 0 -74 12 q-33 9 -86 31q-36 15 -80 43q-36 23 -53 47q-21 27 -21 67q0 51 2 84q3 44 6 109q-28 45 -45 92q-18 49 -18 72zM944 270l2 2q4 -2 15 -2h18q15 0 25 2q45 9 77 31q31 22 31 68q0 36 -20 59q-22 25 -50 25v-6q-14 0 -49 -5q-25 -4 -37 -6q-1 -15 -3 -43t-3 -43 q-1 -14 -6 -82z" />
<glyph unicode="&#x45b;" horiz-adv-x="1095" d="M0 1100q0 27 16 43t25 16q27 -3 68 0q47 3 86 6q21 139 26 168q13 74 21 99q2 12 16 26q12 12 37 12q27 0 65 -6t78 -12q29 -4 74 -16q27 -7 55 -19q24 -9 37 -22q11 -11 8 -37q-12 -57 -24 -156q54 4 74 4q41 0 55 -2q26 6 51 -22q8 -8 16 -27q12 -28 19 -49 q11 -34 16 -55q6 -27 6 -50q0 -29 -9.5 -42.5t-29.5 -12.5q-37 3 -100 0q-64 -3 -135 -6l-33 -295q7 -3 23 19q15 21 18 24q41 41 86 96q41 51 74 62q8 4 18 4q20 -5 62 -19q46 -16 71 -26q30 -12 68 -31q32 -16 53 -31q17 -12 33 -28q11 -11 8 -37l-10 -6q-4 -105 -8 -148 q-4 -39 -8 -121q-1 -13 -2.5 -40.5t-2.5 -53t-2 -49.5q-3 -82 -6 -215q0 -43 -49 -43q-99 0 -186 41q-85 40 -119 86q-21 27 -21 68q1 22 3.5 65t3.5 64l8 131q0 19 -4 43q-3 19 -13 22q-14 6 -38 -12q-27 -20 -43 -39l-29 -35q-2 -26 -6 -70.5t-6.5 -79.5t-4.5 -65 q-9 -154 -10 -178q-3 -43 -49 -43q-104 0 -188 41q-85 42 -121 86q-21 27 -21 68q0 51 6 131q7 89 15 176q4 45 22 200q4 38 13 108.5t12 98.5q-40 -3 -62 13q-21 15 -30 30q-23 40 -51 80q-25 36 -25 68z" />
<glyph unicode="&#x45c;" horiz-adv-x="1101" d="M35 563q0 25 22 25h31q23 0 37 2q7 88 22 196q9 65 23 129q3 16 16 29q12 12 37 12q17 0 58 -6q9 -1 25 -3.5t29.5 -4.5t26.5 -4q32 -4 84 -16q45 -10 60 -15q25 -9 39 -22q11 -11 8 -41l-16 -17q-9 -35 -15 -96q-11 -117 -14 -139l78 6q17 38 45 92q5 9 22 41t25 49 q7 15 21 41.5t20 38.5q13 27 35 58q9 15 24 24t37 0q30 -15 53 -27q31 -16 70 -38q33 -18 68 -43q33 -23 47 -37q31 -31 10 -68q-3 -4 -15.5 -19t-21.5 -26q-7 -9 -25.5 -32t-29.5 -36q-9 -11 -19.5 -23t-23.5 -27.5t-21 -24.5q-38 -45 -61 -74q52 -85 108 -156 q57 -72 90 -98q20 -17 17 -31t-19 -37q-15 -18 -43 -43q-38 -33 -57 -47q-36 -25 -63 -37q-32 -14 -62 -14q-24 0 -61 29q-33 26 -68 73q-25 33 -67 105q-35 59 -62 121l-72 -6q-3 -51 -8 -162q-2 -49 -2 -115q0 -43 -51 -43q-27 0 -74 12q-36 9 -92 31q-27 11 -86 41 q-36 18 -57 47q-19 25 -19 66q0 49 2 80q3 47 6 102q-32 55 -49 100q-22 58 -22 78zM500 1096q3 21 12 24q7 10 25.5 35t29.5 41q10 14 31 43t31 43q16 24 61 84q30 40 62 66h2q19 16 53 10q9 0 24 -12q20 -16 35 -31q25 -25 37 -39q21 -25 31 -37q15 -21 12 -37 q-3 -15 -12 -24q-34 -34 -64 -58q-35 -28 -73 -63q-40 -37 -68 -62q-31 -28 -49 -49q-26 -26 -51 -26q-19 0 -39 4q-21 9 -33 12t-18 6t-13 10l-14 17q-15 21 -12 43z" />
<glyph unicode="&#x45e;" horiz-adv-x="1083" d="M-4 772q0 29 2 43q2 16 10 43q5 17 17 33q24 24 55 35q38 13 74 16q54 4 79 4q51 0 74 2h29q13 0 37 -4q18 -3 30 -12q13 -10 13 -27q3 -91 6 -168q2 -58 10 -141q5 -53 19 -125q11 -59 30 -119q54 141 82 201q62 135 80 170q38 75 68 127q29 51 49 74l24 24q16 16 35 19 q24 6 55 0q29 -6 60 -23q35 -19 53 -33q12 -9 47 -34q8 -6 27 -25q15 -15 18 -37q3 -27 -6 -57t-24 -51q-41 -61 -93 -160q-44 -85 -98 -205q-47 -106 -98 -229q-36 -88 -92 -234q-29 -76 -76 -215q-33 -96 -55 -178q-3 -16 -15 -31q-13 -16 -26 -24q-18 -11 -37 -11 q-22 0 -49 15l-191 98q-20 9 -33 31q-13 23 -16 47q-3 25 0 49q3 26 6 37q19 53 62 158q45 111 86 200l-5 -2q-25 -2 -61 -2q-25 0 -43 12q-15 10 -33 35q-14 19 -30 60q-58 141 -93 282q-32 131 -61 295q-2 10 -2 37zM254 1399q3 12 12 24q6 8 29 31l33 27l-2 2q24 18 49 2 q24 -15 49 -43q16 -18 49 -51q25 -25 49 -25q40 0 90 20q57 23 84 39q45 26 84 62q36 33 66 33q15 0 31 -19q11 -13 26 -43q11 -21 21 -49q4 -9 9.5 -23t6.5 -16q24 -52 12 -90q-12 -37 -59 -72q-59 -47 -133 -71q-77 -25 -150 -25q-119 0 -202 59q-85 60 -134 158 q-8 16 -18 41q-6 14 -2 29z" />
<glyph unicode="&#x45f;" horiz-adv-x="1032" d="M33 113q13 55 24 161q12 111 21 234q5 74 14 233q6 111 6 166q0 43 49 43q31 0 74 -12q33 -9 86 -31q36 -15 80 -43q36 -23 55 -45q25 -31 25 -65q0 -55 -2 -92q-5 -84 -8 -121q-1 -14 -6 -61t-7 -74q-8 -91 -14 -136q54 4 86 4q61 0 92 -2l-6 11q-23 33 -45 55 q-23 23 -14 72q15 65 22 116q2 18 9 62t10 69q9 68 12 131q4 86 4 121q0 43 51 43q31 0 74 -12q33 -9 86 -31q36 -15 80 -43q38 -25 53 -45q21 -27 21 -67q0 -36 -7 -129q-9 -118 -14 -168q-9 -89 -18 -174q-6 -56 -19 -150q23 -54 23 -76q0 -13 -10 -43q-9 -27 -48 -24 q-50 4 -84 4h-98q-10 -54 -18 -98q-9 -52 -15 -117q-3 -43 -49 -43q-52 0 -98 12q-38 10 -82 31q-27 13 -63 37q-38 25 -46 32q-15 12 -18 31q-3 18 0 39l6 86q-15 0 -55 4l-64 6q-34 3 -59 9q-29 7 -43 12q-23 10 -35 31q-11 20 -8 49z" />
<glyph unicode="&#x490;" horiz-adv-x="942" d="M45 180q3 118 12 248q5 68 23 246q13 125 24 213q18 142 19 151q-28 34 -49 76q-26 51 -29 94q-3 25 4 45t25 29q64 33 96 47q69 30 129 47q81 23 160 37q92 16 188 19h2l15 180q3 23 18 41t37 18q106 0 170 -37q65 -38 102 -84q21 -27 21 -67l-13 -125v-10q0 -27 -2 -50 q-3 -30 -12 -69q-9 -37 -24 -64q-14 -26 -39 -26h-25h-43q-51 0 -90 -2q-102 -5 -166 -7q-25 -3 -82 -12q-40 -6 -100 -22h10h10q35 -6 53 -21q19 -16 25 -37q5 -19 2 -49q-1 -9 -6 -59l-23 -12q-11 -109 -20 -166q-19 -120 -25 -164q-10 -68 -20 -197q-7 -87 -14 -264 q-3 -61 -13 -107q-9 -39 -49 -36q-91 3 -166 43q-78 41 -114 86q-21 27 -21 67z" />
<glyph unicode="&#x491;" horiz-adv-x="823" d="M47 201q0 160 25 282q17 84 47 201q-35 49 -51 109q-9 25 0 43t24 30q56 36 137 60q101 30 228 41h12q10 0 16 2q2 9 6.5 33t6.5 38q8 49 10 78q3 46 47 43q96 -9 154 -45q70 -43 96 -63q15 -12 18 -31q3 -18 0 -39q-3 -45 -6 -70q-3 -24 -6 -39q-4 -20 -6 -28 q-2 -9 -6 -35q-5 -36 -8 -49q-6 -29 -15 -49q-10 -23 -20 -33q-11 -11 -31 -8q-24 6 -80 12q-61 7 -102 4q-68 -5 -82 -6q-42 -3 -72 -23l39 -30q23 -17 35 -37q11 -20 8 -45l8 2q-3 -20 -16 -93.5t-21 -121.5q-19 -115 -32 -285q-3 -43 -50 -43q-103 0 -180 41 q-74 39 -112 86q-21 27 -21 68z" />
<glyph unicode="&#x2000;" horiz-adv-x="1005" />
<glyph unicode="&#x2001;" horiz-adv-x="2011" />
<glyph unicode="&#x2002;" horiz-adv-x="1005" />
<glyph unicode="&#x2003;" horiz-adv-x="2011" />
<glyph unicode="&#x2004;" horiz-adv-x="670" />
<glyph unicode="&#x2005;" horiz-adv-x="502" />
<glyph unicode="&#x2006;" horiz-adv-x="335" />
<glyph unicode="&#x2007;" horiz-adv-x="335" />
<glyph unicode="&#x2008;" horiz-adv-x="251" />
<glyph unicode="&#x2009;" horiz-adv-x="402" />
<glyph unicode="&#x200a;" horiz-adv-x="111" />
<glyph unicode="&#x2010;" d="M43 672q0 27 16 43t25 16q52 0 147 6q15 1 197 17q54 5 195 14q84 6 139 2v-6q26 6 51 -23q7 -7 16 -28q12 -29 19 -51q11 -36 16 -62q6 -30 6 -51q0 -29 -9.5 -42.5t-29.5 -12.5q-47 3 -135 0q-23 -1 -184 -11q-119 -8 -178 -14q-82 -9 -123 -12q-40 -3 -61 12 q-22 15 -31 31q-32 55 -51 92q-25 48 -25 80z" />
<glyph unicode="&#x2011;" d="M43 672q0 27 16 43t25 16q52 0 147 6q15 1 197 17q54 5 195 14q84 6 139 2v-6q26 6 51 -23q7 -7 16 -28q12 -29 19 -51q11 -36 16 -62q6 -30 6 -51q0 -29 -9.5 -42.5t-29.5 -12.5q-47 3 -135 0q-23 -1 -184 -11q-119 -8 -178 -14q-82 -9 -123 -12q-40 -3 -61 12 q-22 15 -31 31q-32 55 -51 92q-25 48 -25 80z" />
<glyph unicode="&#x2012;" d="M43 672q0 27 16 43t25 16q52 0 147 6q15 1 197 17q54 5 195 14q84 6 139 2v-6q26 6 51 -23q7 -7 16 -28q12 -29 19 -51q11 -36 16 -62q6 -30 6 -51q0 -29 -9.5 -42.5t-29.5 -12.5q-47 3 -135 0q-23 -1 -184 -11q-119 -8 -178 -14q-82 -9 -123 -12q-40 -3 -61 12 q-22 15 -31 31q-32 55 -51 92q-25 48 -25 80z" />
<glyph unicode="&#x2013;" horiz-adv-x="1454" d="M45 598q-9 27 0 33t18 6q37 3 130 6q89 3 210 12q7 1 103.5 8t148.5 11q132 9 252 18q84 6 209 19q92 9 121 18l2 -2q26 6 51 -22q6 -6 21 -27q16 -23 28 -49q4 -9 12.5 -28t12.5 -28q12 -27 12 -49q0 -11 -12 -20q-11 -8 -31 -15q-11 -4 -37 -8q-16 -3 -26 -6 q-40 -6 -172 -20q-165 -17 -264 -25q-147 -12 -310 -18q-146 -5 -307 -2q-41 3 -61 20q-23 20 -31 33q-25 43 -49 74q-23 29 -31 61z" />
<glyph unicode="&#x2014;" horiz-adv-x="1853" d="M47 604q-9 27 0 33t19 6q184 4 270 8q35 1 305 17q115 7 311 22q159 13 287 27q45 5 124.5 13.5t113.5 12.5q58 7 159 23v-4q26 6 52 -23q3 -3 20 -30q18 -29 29 -56q4 -10 12 -30.5t12 -30.5q13 -33 13 -53q0 -11 -13 -21q-10 -7 -30 -14q-11 -4 -37 -8q-12 -2 -27 -2 q-21 0 -131 -7q-36 -2 -116 -8t-105 -8q-19 -1 -277 -22q-150 -12 -297 -21q-213 -13 -278 -16q-132 -6 -227 -6q-41 0 -62 18q-23 20 -31 33q-25 43 -57 80q-31 35 -39 67z" />
<glyph unicode="&#x2018;" horiz-adv-x="462" d="M61 1004q2 14 6 34.5t5 28.5q4 28 6 43q2 14 10 37q5 15 12 43l6 18q10 27 44 97q23 47 49 90q20 33 47 43q24 9 61 -6q47 -18 41 -62l-8 2q-39 -91 -59 -153q31 -9 53 -25q24 -17 41 -37q18 -24 18 -61q0 -54 -6 -103q-4 -35 -16 -88q-3 -10 -13 -24q-10 -13 -30 -13 q-48 0 -109 6q-63 6 -110 39q-19 13 -35 41q-16 29 -13 50z" />
<glyph unicode="&#x2019;" horiz-adv-x="462" d="M59 1223q0 44 7 102q5 40 16 90q3 13 12 25t31 12q47 0 108 -6q64 -6 111 -39q19 -13 35 -41q15 -27 12 -49q-2 -12 -5.5 -33.5t-4.5 -30.5q-3 -28 -6 -43q-4 -24 -8 -36q-8 -24 -13 -44q-2 -8 -6 -20q-12 -40 -39 -96q-13 -26 -45 -88q-20 -33 -47 -43q-24 -9 -61 6 q-47 18 -41 61l-4 -4q18 40 30 74q5 13 15.5 39.5t15.5 40.5q-64 18 -94 61q-19 25 -19 62z" />
<glyph unicode="&#x201a;" horiz-adv-x="462" d="M20 100q0 45 7 103q5 40 16 90q3 12 12 24q10 13 31 13q48 0 109 -6q63 -6 110 -39q19 -13 35 -41q15 -27 12 -49q-2 -12 -5.5 -33.5t-4.5 -30.5q-4 -28 -6 -43q-4 -26 -8 -37q-9 -27 -13 -43q-2 -2 -2 -8q0 -4 -4 -8q-3 -10 -16 -45q-5 -12 -23 -49q-4 -8 -12 -25 t-12 -25l-8 -14t-8.5 -14t-6.5 -10q-20 -33 -47 -43q-24 -9 -61 6q-47 18 -41 61l-4 -10q17 40 30 74q5 13 15.5 39t15.5 40q-57 15 -92 62q-19 25 -19 61z" />
<glyph unicode="&#x201c;" horiz-adv-x="851" d="M53 1006q2 13 5.5 34t4.5 29q1 4 7 43q2 14 10 37q5 15 12 43l6 18q13 36 43 97q23 47 49 90q20 32 48 43q24 9 61 -6q47 -18 41 -62l-8 2q-43 -101 -60 -153q33 -10 54 -25q24 -17 41 -37q18 -24 18 -61q0 -54 -6 -103q-3 -25 -17 -88q-3 -12 -12 -24q-10 -13 -31 -13 q-36 0 -108 7q-66 6 -111 38q-18 12 -34 41t-13 50zM451 1004q2 13 5.5 34t4.5 29q3 28 6 43q2 14 10 37q5 15 12 43l7 18q13 36 43 97q23 47 49 90q20 33 47 43q24 9 61 -6q47 -18 41 -62l-8 2q-39 -91 -59 -153q31 -9 53 -25q24 -17 41 -37q18 -24 18 -61q0 -54 -6 -103 q-4 -35 -16 -88q-3 -12 -12 -24q-10 -13 -31 -13q-48 0 -109 6q-63 6 -110 39q-19 13 -35 41q-15 27 -12 50z" />
<glyph unicode="&#x201d;" horiz-adv-x="851" d="M59 1223q0 44 7 102q5 40 16 90q3 13 12 25t31 12q47 0 108 -6q64 -6 111 -39q19 -13 35 -41q15 -27 12 -49q-2 -12 -5.5 -33.5t-4.5 -30.5q-3 -28 -6 -43q-4 -24 -8 -36q-8 -24 -13 -44q-2 -8 -6 -20q-12 -40 -39 -96q-13 -26 -45 -88q-20 -33 -47 -43q-24 -9 -61 6 q-47 18 -41 61l-4 -4q18 40 30 74q5 13 15.5 39.5t15.5 40.5q-64 18 -94 61q-19 25 -19 62zM444 1219q0 44 7 102q5 40 16 90q3 13 12 25t31 12q46 0 108 -6q64 -6 111 -39q19 -13 35 -41q15 -27 12 -49q-2 -12 -5.5 -33.5t-4.5 -30.5q-4 -28 -6 -43q-4 -26 -8 -37 q-9 -27 -13 -43q-2 -8 -6 -20q-12 -40 -39 -96q-13 -26 -45 -88q-20 -33 -47 -43q-24 -9 -61 6q-47 18 -41 61l-4 -4q17 40 30 74q5 14 15.5 40t15.5 40q-64 18 -94 61q-19 25 -19 62z" />
<glyph unicode="&#x201e;" horiz-adv-x="851" d="M18 117q0 44 7 102q5 40 16 90q3 13 12 25t31 12q47 0 109 -6q63 -6 110 -39q19 -13 35 -41q15 -27 12 -49q-2 -12 -5.5 -33.5t-4.5 -30.5q-4 -28 -6 -43q-4 -24 -8 -36q-9 -27 -13 -43q-3 -12 -6 -21q-12 -40 -39 -96q-13 -26 -45 -88q-20 -33 -47 -43q-24 -9 -61 6 q-47 18 -41 61l-4 -4q17 40 30 74q5 13 15.5 40t15.5 40q-64 18 -94 61q-19 25 -19 62zM403 113q0 44 7 102q5 40 16 90q3 13 12 25t31 12q47 0 109 -6q63 -6 110 -39q19 -13 35 -41q15 -27 12 -49q-2 -12 -5.5 -33.5t-4.5 -30.5q-3 -28 -6 -43q-4 -26 -8 -37 q-9 -27 -13 -43q-2 -8 -6 -20q-12 -40 -39 -96q-13 -26 -45 -88q-20 -33 -47 -43q-24 -9 -61 6q-47 18 -41 61l-4 -4q17 40 30 74q5 14 15.5 40t15.5 40q-64 18 -94 61q-19 25 -19 62z" />
<glyph unicode="&#x2022;" horiz-adv-x="671" d="M100 514q0 40 11 115q8 56 18 100q1 1 4.5 7.5t5.5 11.5q6 11 19 28q12 15 35 25t49 10q53 0 108 -8q62 -9 111 -43q16 -11 33 -41q15 -27 12 -49l-4 -8q-3 -39 -6 -64q0 -4 -7 -43q-4 -26 -8 -37q-5 -15 -12 -43q-1 -2 -2 -6.5t-2.5 -9t-3.5 -8.5q-7 -18 -15 -31 q-11 -19 -24 -29q-14 -11 -39 -14q-74 -6 -133 0q-54 6 -105 35q-27 15 -36 49t-9 53z" />
<glyph unicode="&#x2026;" horiz-adv-x="1404" d="M27 104q0 54 6 103q5 40 16 90q3 13 12 25t31 12q48 0 109 -6q63 -6 110 -39q19 -13 35 -41q15 -27 12 -49l2 -6q-2 -12 -5.5 -33.5t-4.5 -30.5q-4 -28 -6 -43q-4 -26 -8 -37q-5 -15 -12 -43q-6 -19 -13 -29t-28 -10q-87 0 -150 17q-52 14 -88 59q-18 24 -18 61zM500 98 q0 54 6 103q5 40 16 90q2 10 13 24q10 13 30 13q48 0 109 -6q63 -6 110 -39q19 -13 35 -41q15 -27 12 -49l3 -7q-2 -14 -6 -34.5t-5 -28.5q-3 -28 -6 -43q-4 -26 -8 -37q-5 -15 -12 -43q-6 -19 -13 -29t-28 -10q-91 0 -150 16q-51 14 -88 60q-18 24 -18 61zM973 92 q0 54 6 103q5 40 16 90q2 10 13 24q10 13 30 13q37 0 109 -7q63 -6 110 -39q20 -14 35 -40q16 -29 13 -50l2 -6q-2 -14 -6 -34.5t-5 -28.5q-4 -28 -6 -43q-4 -26 -8 -37q-5 -15 -12 -43q-6 -19 -13 -29t-28 -10q-91 0 -150 16q-51 14 -88 60q-18 24 -18 61z" />
<glyph unicode="&#x202f;" horiz-adv-x="402" />
<glyph unicode="&#x2039;" horiz-adv-x="638" d="M27 498q3 20 36 61q52 93 123 197q48 70 119 182q13 22 39 31q28 9 51 -2q31 -17 72 -37q43 -21 68 -49q9 -15 12 -33t-19 -49q-25 -33 -41 -62q-6 -11 -49 -80q-43 -68 -55 -90q-27 -47 -51 -90q9 -15 27.5 -43.5t27.5 -42.5l55 -82q10 -15 28 -40t24 -33 q9 -13 23.5 -32.5t17.5 -23.5q21 -30 18 -49q-3 -18 -12 -33q-10 -12 -31 -30q-14 -12 -41 -31q-8 -6 -23.5 -15.5t-17.5 -11.5q-3 -2 -33 -20q-12 -6 -26 -6q-15 0 -27 6q-20 10 -23 12q-6 4 -12 10q-38 57 -63 92q-28 39 -74 111q-12 19 -36.5 58t-37.5 59q-33 51 -63 110 q-18 21 -6 56z" />
<glyph unicode="&#x203a;" horiz-adv-x="679" d="M39 106q-3 20 18 50q23 27 41 59q6 11 49 80q6 10 17.5 28t21 33t17.5 29q32 54 51 92q-9 14 -27.5 42.5t-27.5 43.5q-10 17 -30 45t-26 37q-46 68 -49 74q-13 22 -37 55q-21 30 -18 49q3 18 12 33q12 15 31 31q14 12 41 31q14 10 41 28l35 21q12 6 26 6q17 0 29 -6 q10 -5 22 -13q9 -6 13 -10q38 -57 63 -92q28 -39 74 -111q13 -20 37.5 -58.5t36.5 -57.5q40 -62 65 -111l-10 -6q18 -21 6 -55q-4 -11 -12 -25q-7 -13 -25 -37q-56 -95 -125 -196q-42 -62 -118 -181q-12 -21 -39 -30q-26 -9 -52 4q-37 21 -71 37q-43 21 -68 49q-9 15 -12 32 z" />
<glyph unicode="&#x205f;" horiz-adv-x="502" />
<glyph unicode="&#x20ac;" horiz-adv-x="1167" d="M-10 885q-9 28 10 41t29 16l239 19q36 136 88 221q57 94 123 151q70 60 148 84q85 26 159 23q72 -4 103 -8q39 -5 76 -15q39 -10 61 -20q32 -14 55 -27q24 -12 33 -37q9 -23 2 -53q-12 -50 -14 -55q-3 -10 -19 -58q-10 -32 -18 -49q-12 -28 -14 -31q-15 -24 -52 -30 q-35 -6 -57 10q-83 35 -100 41q-50 17 -76 14q-14 -9 -37 -41t-43 -92q70 4 92 4q50 0 66 -2q26 6 51 -22q15 -18 25 -39q6 -12 30 -66q10 -23 -8 -47q-19 -25 -33 -22q-37 3 -108 0q-73 -3 -160 -9q-2 -14 -2 -43v-43q141 10 197 7l-11 -25q26 6 52 -23q11 -14 32 -51 q26 -47 37 -76q9 -24 6 -38t-10 -25q-5 -8 -18 -8h-21q-40 3 -112 0q-110 -4 -160 -8q3 -66 18 -101q14 -33 56 -45q46 -15 98 -6q55 9 78 18q36 16 65 13q33 -3 47 -51q22 -61 25 -91q2 -20 2 -59q0 -23 -4 -63q-3 -30 -49 -39q-46 -8 -119 -27q-66 -17 -156 -20 q-108 -3 -190 28q-77 29 -135 90q-50 53 -88 140q-34 78 -46 182q-20 -4 -28 -6t-23 -2q-39 -3 -57 12q-21 17 -31 25q-26 26 -41 55q-21 40 -28 67q-10 29 12 41q28 16 31 17q29 3 69 6q16 1 94 10v19q0 12 2 18v27v26l-81 -8q-40 -3 -62 19q-15 15 -35 30q-45 38 -65 107z " />
<glyph unicode="&#x2122;" horiz-adv-x="1460" d="M16 1372q-15 34 17 43q27 9 86 12q11 1 123 11q26 0 51 -2q12 -1 37 -3t37 -3q14 -1 37.5 -3.5t33.5 -3.5q35 -3 47 -6q20 -3 31 -10q10 -7 16 -39q4 -13 7 -43q3 -32 6 -61q3 -22 -6 -31t-19 -6q-6 3 -26 6q-39 6 -50 8q-35 8 -57 10q-35 3 -55 6l18 -18q8 -9 19 -12 q12 -7 24 -23q9 -12 6 -26q-21 -121 -22 -129q-12 -74 -21 -177q0 -26 -28 -26q-64 0 -111 24q-42 22 -67 43q-11 11 -11 19v22q0 102 15 179t30 129q-7 -1 -21.5 -3.5t-21.5 -3.5q-24 -3 -37 -6l-10 4q-12 2 -24 2h-9q-3 0 -6 7q-3 6 -12 18q-5 7 -14 43q-2 9 -5 20t-5 18 t-3 11zM606 989q-3 37 0 96q4 78 8 119q2 18 4 37.5t5 41.5t4 34q6 55 12 78q3 9 16 22t29 13q4 0 9 -1t13.5 -2t14.5 -2l49 -8q38 -4 53 -8q24 -6 33 -12q16 -12 25 -21q10 -10 24 -41q9 -20 37 -78q4 -8 53 -98q41 65 84 135q42 69 74 105q17 17 27 22q3 1 7.5 4t8 4.5 t6.5 2.5h6h6q17 0 31 -2q7 -1 21.5 -3.5t21.5 -3.5t21.5 -3t21.5 -3q26 -4 35 -6q15 -3 25 -16q9 -12 6 -29l-17 -2q-1 -9 -3.5 -40t-4.5 -54q-7 -72 -12 -137q-4 -45 -8 -142q-3 -66 0 -106q3 -15 -6 -27q-10 -13 -25 -10q-18 0 -45 6q-29 6 -55 18q-36 16 -54 25 q-24 12 -34 29q-15 21 -15 41q-3 27 0 71q3 39 19 109q-5 -11 -17 -32t-18 -32q-6 -12 -16 -29t-13 -22l-8 -10v-2q-13 -13 -21 -19q-11 -8 -20 -8q-25 -3 -49 6q-30 11 -37 13q-13 3 -20 16q-7 14 -13 23q-1 3 -9 15.5t-13 20.5q-19 34 -29 56l-6 10q3 -83 0 -160 q-2 -51 -2 -114q0 -16 -12 -25q-11 -8 -29 -8q-21 0 -45 8q-40 13 -55 20q-19 9 -52 29q-21 13 -32 31q-10 10 -13 27q-2 12 -2 28z" />
<glyph unicode="&#x25fc;" horiz-adv-x="952" d="M0 0v952h952v-952h-952z" />
</font>
</defs>
</svg>
