<?xml version="1.0" encoding="utf-8"?>
<svg version="1.1" id="Layer_1" xmlns="http://www.w3.org/2000/svg" xmlns:xlink="http://www.w3.org/1999/xlink" x="0px" y="0px"
	 viewBox="0 0 377.3 133" style="enable-background:new 0 0 377.3 133;" xml:space="preserve">
<style type="text/css">
	.st0{fill:#5A9441;}
	.st1{fill:#1F77B2;}
</style>
<path class="st0" d="M133.3,130.7c-4.6,0.2-6.4-3-8.3-5.5c-7.3-9.2-10.2-20.1-10-31.6c0.1-7.5-2.7-14.1-4-21.1
	c-4.3-24.7,6.8-47.7,28.8-59.8c15.3-8.4,31.8-11.9,49-12.6c4.8-0.2,9.6,0,14.7,0.6c-0.9,0.7-1.8,1.4-2.7,2
	c-9.7,6.1-14.9,14.7-15.6,26.2c-0.5,9-1.8,18-5.2,26.4c-2.8,7-7,12.8-13.6,16.7c-10.4,5.8-20.3,5.9-28.7,10.4
	c-4.3,2.3-7.9,6.6-12.3,10.3c-0.6-11.5,2.6-22.1,8.8-31.4c6.1-9.3,13.4-17.8,20.2-26.7c-16.4,10.4-27,25.1-31.9,43.7
	C117.4,97.3,120,115.1,133.3,130.7z"/>
<path class="st1" d="M111.6,111c-0.1,11.3-5.2,18.8-14.3,21.1c-13.9,3.6-25.5-5-26-19.4c-0.2-6.3,0.6-12.2,4.7-17.2
	c5.9-7,13.8-7.9,21.9-5.7c8.2,2.2,12.3,8.3,13.4,16.5C111.6,107.9,111.6,109.5,111.6,111z M100.5,111.1c-0.2-5.5-0.4-6.6-1.8-9.5
	c-2.8-5.9-10.5-6.2-14.1-0.8c-3.2,4.8-3.2,15.3,0,20.1c3.5,5.3,11,5.2,13.9-0.4C100,117.7,100.7,116,100.5,111.1z"/>
<path class="st0" d="M308.6,89.6c2.5,0,4.7,0,7.5,0c3.2,7.2,6.5,14.5,10.3,22.7c3.5-8.1,6.7-15.4,9.9-22.7c2.7,0,5.1,0,7.9,0
	c0,14,0,27.8,0,42c-1.7,0-3.5,0-6,0c0-10.3,0-21.8,0-32c-0.5,0-0.3,0-1,0c-2.9,6.5-6.2,13.9-9.2,20.6c-1.2,0-2.4,0-3.8,0
	c-3-6.9-6-13.8-9-20.6c-0.5,0-0.6,0-1.1,0c0,10.6,0,21.4,0,32.2c-2.1,0-3.6,0-5.5,0C308.6,117.9,308.6,104,308.6,89.6z"/>
<path class="st1" d="M27.7,97.9c-2.9,0-5.7,0-8.5,0c-2.7,0-5.4,0-8.4,0c0,2.4,0,4.6,0,7.3c5.2,0,10.3,0,15.5,0c0,3,0,5.5,0,8.3
	c-5.4,0-10.4,0-15.6,0c0,3.5,0,6.6,0,10.1c5.6,0,11.2,0,17.1,0c0,2.8,0,5.2,0,7.9c-9.2,0-18.3,0-27.7,0C0,117.7,0,104,0,90
	c9.2,0,18.3,0,27.7,0C27.7,92.4,27.7,94.8,27.7,97.9z"/>
<path class="st1" d="M61.9,99.5c-8.8-5.6-17.5-1.2-18.3,9.2c-0.1,1.6-0.1,3.2,0,4.7c0.8,9.8,9.4,14.2,17.9,9.1
	c1.8-1.1,3.6-2.3,6.2-3.9c0,4.2,0,7.2,0,10.1c-12.6,6.5-24.8,5-31.1-3.6c-6.1-8.4-5.1-23.5,2.1-30.8c6.1-6.2,20.8-6.8,28.6-1.2
	c0,2.8,0,5.6,0,8.9"/>
<path class="st0" d="M212.7,115.8c0,5.2,0,10.5,0,16c-2.2,0-3.9,0-5.9,0c0-14,0-27.8,0-42.3c7,0.4,14.1-1.4,20.8,2
	c3.3,1.7,4.8,4.4,5.2,8.4c0.6,6.4-2.1,10.8-7.4,14.5c4.6,5.8,8.9,11.3,13.7,17.4c-3,0-5.1,0-7.6,0c-3.5-4.5-7.3-8.9-10.7-13.7
	C218.7,115.2,216.2,114.9,212.7,115.8z M212.7,109.7c4.6,1.6,10.3,0.5,12.5-2.4c1.8-2.3,2.2-7,0.7-9.3c-1.8-2.9-7.6-4.1-13.2-2.7
	C212.7,100,212.7,104.7,212.7,109.7z"/>
<path class="st0" d="M266.9,106c0,2.1,0,3.5,0,5.5c-6.3,0-12.4,0-18.7,0c0,5.2,0,9.9,0,15c6.7,0,13.1,0,20,0c0,2,0,3.6,0,5.4
	c-8.7,0-17.1,0-25.9,0c0-14,0-27.9,0-42.1c8.6,0,17.1,0,25.9,0c0,1.6,0,3.1,0,5.1c-6.5,0-13,0-19.9,0c0,3.9,0,7.2,0,11.1
	C254.4,106,260.4,106,266.9,106z"/>
<path class="st0" d="M304.8,131.8c-2.4,0-4.2,0-6.2,0c-0.7-1.9-1.2-3.7-1.9-5.5c-0.6-1.8-1.3-3.6-2-5.6c-5.1,0-10,0-15.4,0
	c-1.2,3.4-2.5,7.1-3.9,11.1c-1.8,0-3.5,0-5.9,0c4.7-14.2,9.3-28.1,14-42.1c2.5,0,4.6,0,7.2,0C295.4,103.6,300.1,117.5,304.8,131.8z
	 M287.5,97.4c-0.3,0-0.6,0-0.9,0c-1.8,5.8-3.6,11.6-5.4,17.4c4.5,0,8,0,12,0C291.1,108.8,289.3,103.1,287.5,97.4z"/>
<path class="st0" d="M139.8,129.3c0-2.2,0-4.1,0-6.8c1.7,1,3,1.7,4.1,2.5c3.7,2.4,7.8,2.9,12,2.3c3.3-0.5,5.7-3,5.8-6.1
	c0.2-3.4-1.4-5.6-4.6-6.6c-3-0.9-6.1-1.5-9.1-2.5c-5.7-1.9-8.3-5.5-8.3-10.9c0-5.1,3.4-9.6,8.6-11.3c5.1-1.7,13.2-0.7,17.8,2.2
	c0,1.8,0,3.8,0,6.2c-2.2-1.1-4-2.4-5.9-2.8c-2.9-0.7-6-1.1-8.9-0.9c-3.2,0.3-5.3,2.5-5.5,5.9c-0.2,3.4,1.8,5.5,4.9,6.4
	c2.8,0.8,5.7,1.4,8.5,2.3c6.1,1.9,8.7,5.3,8.6,11c-0.1,5.5-3.6,10.2-9,11.8C153.2,133.7,145.8,132.7,139.8,129.3z"/>
<path class="st0" d="M349.2,129.3c0-2.2,0-4.1,0-6.8c1.7,1,3,1.7,4.1,2.5c3.7,2.4,7.8,2.9,12,2.3c3.3-0.5,5.7-3,5.8-6.1
	c0.2-3.4-1.4-5.6-4.6-6.6c-3-0.9-6.1-1.5-9.1-2.5c-5.7-1.9-8.3-5.5-8.3-10.9c0-5.1,3.4-9.6,8.6-11.3c5.1-1.7,13.2-0.7,17.8,2.2
	c0,1.8,0,3.8,0,6.2c-2.2-1.1-4-2.4-5.9-2.8c-2.9-0.7-6-1.1-8.9-0.9c-3.2,0.3-5.3,2.5-5.5,5.9c-0.2,3.4,1.8,5.5,4.9,6.4
	c2.8,0.8,5.7,1.4,8.5,2.3c6.1,1.9,8.7,5.3,8.6,11c-0.1,5.5-3.6,10.2-9,11.8C362.6,133.7,355.2,132.7,349.2,129.3z"/>
<path class="st0" d="M169.3,95.4c0-2.3,0-3.8,0-5.6c11.1,0,22.1,0,33.4,0c0,1.7,0,3.2,0,5.2c-4.5,0-8.8,0-13.7,0
	c0,12.5,0,24.6,0,36.9c-2.2,0-3.8,0-5.9,0c0-12.1,0-24,0-36.5C178.4,95.4,174.1,95.4,169.3,95.4z"/>
</svg>
